<?xml version="1.0" encoding="utf-8" standalone="no"?>
<!DOCTYPE svg PUBLIC "-//W3C//DTD SVG 1.1//EN"
  "http://www.w3.org/Graphics/SVG/1.1/DTD/svg11.dtd">
<svg height="345.6pt" version="1.1" viewBox="0 0 460.8 345.6" width="460.8pt" xmlns="http://www.w3.org/2000/svg" xmlns:xlink="http://www.w3.org/1999/xlink">
 <metadata>
  <rdf:RDF xmlns:cc="http://creativecommons.org/ns#" xmlns:dc="http://purl.org/dc/elements/1.1/" xmlns:rdf="http://www.w3.org/1999/02/22-rdf-syntax-ns#">
   <cc:Work>
    <dc:type rdf:resource="http://purl.org/dc/dcmitype/StillImage"/>
    <dc:date>2022-08-22T12:12:50.910904</dc:date>
    <dc:format>image/svg+xml</dc:format>
    <dc:creator>
     <cc:Agent>
      <dc:title>Matplotlib v3.4.3, https://matplotlib.org/</dc:title>
     </cc:Agent>
    </dc:creator>
   </cc:Work>
  </rdf:RDF>
 </metadata>
 <defs>
  <style type="text/css">*{stroke-linecap:butt;stroke-linejoin:round;}</style>
 </defs>
 <g id="figure_1">
  <g id="patch_1">
   <path d="M 0 345.6 
L 460.8 345.6 
L 460.8 0 
L 0 0 
z
" style="fill:#ffffff;"/>
  </g>
  <g id="axes_1">
   <g id="patch_2">
    <path d="M 57.6 307.584 
L 414.72 307.584 
L 414.72 41.472 
L 57.6 41.472 
z
" style="fill:#ffffff;"/>
   </g>
   <g id="matplotlib.axis_1">
    <g id="xtick_1">
     <g id="line2d_1">
      <defs>
       <path d="M 0 0 
L 0 3.5 
" id="m34ba2c3d02" style="stroke:#000000;stroke-width:0.8;"/>
      </defs>
      <g>
       <use style="stroke:#000000;stroke-width:0.8;" x="71.009644" xlink:href="#m34ba2c3d02" y="307.584"/>
      </g>
     </g>
     <g id="text_1">
      <!-- 0 -->
      <g transform="translate(67.828394 322.182437)scale(0.1 -0.1)">
       <defs>
        <path d="M 2034 4250 
Q 1547 4250 1301 3770 
Q 1056 3291 1056 2328 
Q 1056 1369 1301 889 
Q 1547 409 2034 409 
Q 2525 409 2770 889 
Q 3016 1369 3016 2328 
Q 3016 3291 2770 3770 
Q 2525 4250 2034 4250 
z
M 2034 4750 
Q 2819 4750 3233 4129 
Q 3647 3509 3647 2328 
Q 3647 1150 3233 529 
Q 2819 -91 2034 -91 
Q 1250 -91 836 529 
Q 422 1150 422 2328 
Q 422 3509 836 4129 
Q 1250 4750 2034 4750 
z
" id="DejaVuSans-30" transform="scale(0.015625)"/>
       </defs>
       <use xlink:href="#DejaVuSans-30"/>
      </g>
     </g>
    </g>
    <g id="xtick_2">
     <g id="line2d_2">
      <g>
       <use style="stroke:#000000;stroke-width:0.8;" x="141.586719" xlink:href="#m34ba2c3d02" y="307.584"/>
      </g>
     </g>
     <g id="text_2">
      <!-- 50 -->
      <g transform="translate(135.224219 322.182437)scale(0.1 -0.1)">
       <defs>
        <path d="M 691 4666 
L 3169 4666 
L 3169 4134 
L 1269 4134 
L 1269 2991 
Q 1406 3038 1543 3061 
Q 1681 3084 1819 3084 
Q 2600 3084 3056 2656 
Q 3513 2228 3513 1497 
Q 3513 744 3044 326 
Q 2575 -91 1722 -91 
Q 1428 -91 1123 -41 
Q 819 9 494 109 
L 494 744 
Q 775 591 1075 516 
Q 1375 441 1709 441 
Q 2250 441 2565 725 
Q 2881 1009 2881 1497 
Q 2881 1984 2565 2268 
Q 2250 2553 1709 2553 
Q 1456 2553 1204 2497 
Q 953 2441 691 2322 
L 691 4666 
z
" id="DejaVuSans-35" transform="scale(0.015625)"/>
       </defs>
       <use xlink:href="#DejaVuSans-35"/>
       <use x="63.623047" xlink:href="#DejaVuSans-30"/>
      </g>
     </g>
    </g>
    <g id="xtick_3">
     <g id="line2d_3">
      <g>
       <use style="stroke:#000000;stroke-width:0.8;" x="212.163794" xlink:href="#m34ba2c3d02" y="307.584"/>
      </g>
     </g>
     <g id="text_3">
      <!-- 100 -->
      <g transform="translate(202.620044 322.182437)scale(0.1 -0.1)">
       <defs>
        <path d="M 794 531 
L 1825 531 
L 1825 4091 
L 703 3866 
L 703 4441 
L 1819 4666 
L 2450 4666 
L 2450 531 
L 3481 531 
L 3481 0 
L 794 0 
L 794 531 
z
" id="DejaVuSans-31" transform="scale(0.015625)"/>
       </defs>
       <use xlink:href="#DejaVuSans-31"/>
       <use x="63.623047" xlink:href="#DejaVuSans-30"/>
       <use x="127.246094" xlink:href="#DejaVuSans-30"/>
      </g>
     </g>
    </g>
    <g id="xtick_4">
     <g id="line2d_4">
      <g>
       <use style="stroke:#000000;stroke-width:0.8;" x="282.74087" xlink:href="#m34ba2c3d02" y="307.584"/>
      </g>
     </g>
     <g id="text_4">
      <!-- 150 -->
      <g transform="translate(273.19712 322.182437)scale(0.1 -0.1)">
       <use xlink:href="#DejaVuSans-31"/>
       <use x="63.623047" xlink:href="#DejaVuSans-35"/>
       <use x="127.246094" xlink:href="#DejaVuSans-30"/>
      </g>
     </g>
    </g>
    <g id="xtick_5">
     <g id="line2d_5">
      <g>
       <use style="stroke:#000000;stroke-width:0.8;" x="353.317945" xlink:href="#m34ba2c3d02" y="307.584"/>
      </g>
     </g>
     <g id="text_5">
      <!-- 200 -->
      <g transform="translate(343.774195 322.182437)scale(0.1 -0.1)">
       <defs>
        <path d="M 1228 531 
L 3431 531 
L 3431 0 
L 469 0 
L 469 531 
Q 828 903 1448 1529 
Q 2069 2156 2228 2338 
Q 2531 2678 2651 2914 
Q 2772 3150 2772 3378 
Q 2772 3750 2511 3984 
Q 2250 4219 1831 4219 
Q 1534 4219 1204 4116 
Q 875 4013 500 3803 
L 500 4441 
Q 881 4594 1212 4672 
Q 1544 4750 1819 4750 
Q 2544 4750 2975 4387 
Q 3406 4025 3406 3419 
Q 3406 3131 3298 2873 
Q 3191 2616 2906 2266 
Q 2828 2175 2409 1742 
Q 1991 1309 1228 531 
z
" id="DejaVuSans-32" transform="scale(0.015625)"/>
       </defs>
       <use xlink:href="#DejaVuSans-32"/>
       <use x="63.623047" xlink:href="#DejaVuSans-30"/>
       <use x="127.246094" xlink:href="#DejaVuSans-30"/>
      </g>
     </g>
    </g>
    <g id="text_6">
     <!-- Times(s) -->
     <g transform="translate(214.815469 335.860562)scale(0.1 -0.1)">
      <defs>
       <path d="M -19 4666 
L 3928 4666 
L 3928 4134 
L 2272 4134 
L 2272 0 
L 1638 0 
L 1638 4134 
L -19 4134 
L -19 4666 
z
" id="DejaVuSans-54" transform="scale(0.015625)"/>
       <path d="M 603 3500 
L 1178 3500 
L 1178 0 
L 603 0 
L 603 3500 
z
M 603 4863 
L 1178 4863 
L 1178 4134 
L 603 4134 
L 603 4863 
z
" id="DejaVuSans-69" transform="scale(0.015625)"/>
       <path d="M 3328 2828 
Q 3544 3216 3844 3400 
Q 4144 3584 4550 3584 
Q 5097 3584 5394 3201 
Q 5691 2819 5691 2113 
L 5691 0 
L 5113 0 
L 5113 2094 
Q 5113 2597 4934 2840 
Q 4756 3084 4391 3084 
Q 3944 3084 3684 2787 
Q 3425 2491 3425 1978 
L 3425 0 
L 2847 0 
L 2847 2094 
Q 2847 2600 2669 2842 
Q 2491 3084 2119 3084 
Q 1678 3084 1418 2786 
Q 1159 2488 1159 1978 
L 1159 0 
L 581 0 
L 581 3500 
L 1159 3500 
L 1159 2956 
Q 1356 3278 1631 3431 
Q 1906 3584 2284 3584 
Q 2666 3584 2933 3390 
Q 3200 3197 3328 2828 
z
" id="DejaVuSans-6d" transform="scale(0.015625)"/>
       <path d="M 3597 1894 
L 3597 1613 
L 953 1613 
Q 991 1019 1311 708 
Q 1631 397 2203 397 
Q 2534 397 2845 478 
Q 3156 559 3463 722 
L 3463 178 
Q 3153 47 2828 -22 
Q 2503 -91 2169 -91 
Q 1331 -91 842 396 
Q 353 884 353 1716 
Q 353 2575 817 3079 
Q 1281 3584 2069 3584 
Q 2775 3584 3186 3129 
Q 3597 2675 3597 1894 
z
M 3022 2063 
Q 3016 2534 2758 2815 
Q 2500 3097 2075 3097 
Q 1594 3097 1305 2825 
Q 1016 2553 972 2059 
L 3022 2063 
z
" id="DejaVuSans-65" transform="scale(0.015625)"/>
       <path d="M 2834 3397 
L 2834 2853 
Q 2591 2978 2328 3040 
Q 2066 3103 1784 3103 
Q 1356 3103 1142 2972 
Q 928 2841 928 2578 
Q 928 2378 1081 2264 
Q 1234 2150 1697 2047 
L 1894 2003 
Q 2506 1872 2764 1633 
Q 3022 1394 3022 966 
Q 3022 478 2636 193 
Q 2250 -91 1575 -91 
Q 1294 -91 989 -36 
Q 684 19 347 128 
L 347 722 
Q 666 556 975 473 
Q 1284 391 1588 391 
Q 1994 391 2212 530 
Q 2431 669 2431 922 
Q 2431 1156 2273 1281 
Q 2116 1406 1581 1522 
L 1381 1569 
Q 847 1681 609 1914 
Q 372 2147 372 2553 
Q 372 3047 722 3315 
Q 1072 3584 1716 3584 
Q 2034 3584 2315 3537 
Q 2597 3491 2834 3397 
z
" id="DejaVuSans-73" transform="scale(0.015625)"/>
       <path d="M 1984 4856 
Q 1566 4138 1362 3434 
Q 1159 2731 1159 2009 
Q 1159 1288 1364 580 
Q 1569 -128 1984 -844 
L 1484 -844 
Q 1016 -109 783 600 
Q 550 1309 550 2009 
Q 550 2706 781 3412 
Q 1013 4119 1484 4856 
L 1984 4856 
z
" id="DejaVuSans-28" transform="scale(0.015625)"/>
       <path d="M 513 4856 
L 1013 4856 
Q 1481 4119 1714 3412 
Q 1947 2706 1947 2009 
Q 1947 1309 1714 600 
Q 1481 -109 1013 -844 
L 513 -844 
Q 928 -128 1133 580 
Q 1338 1288 1338 2009 
Q 1338 2731 1133 3434 
Q 928 4138 513 4856 
z
" id="DejaVuSans-29" transform="scale(0.015625)"/>
      </defs>
      <use xlink:href="#DejaVuSans-54"/>
      <use x="57.958984" xlink:href="#DejaVuSans-69"/>
      <use x="85.742188" xlink:href="#DejaVuSans-6d"/>
      <use x="183.154297" xlink:href="#DejaVuSans-65"/>
      <use x="244.677734" xlink:href="#DejaVuSans-73"/>
      <use x="296.777344" xlink:href="#DejaVuSans-28"/>
      <use x="335.791016" xlink:href="#DejaVuSans-73"/>
      <use x="387.890625" xlink:href="#DejaVuSans-29"/>
     </g>
    </g>
   </g>
   <g id="matplotlib.axis_2">
    <g id="ytick_1">
     <g id="line2d_6">
      <defs>
       <path d="M 0 0 
L -3.5 0 
" id="m80442e4f07" style="stroke:#000000;stroke-width:0.8;"/>
      </defs>
      <g>
       <use style="stroke:#000000;stroke-width:0.8;" x="57.6" xlink:href="#m80442e4f07" y="277.334752"/>
      </g>
     </g>
     <g id="text_7">
      <!-- 130 -->
      <g transform="translate(31.5125 281.133971)scale(0.1 -0.1)">
       <defs>
        <path d="M 2597 2516 
Q 3050 2419 3304 2112 
Q 3559 1806 3559 1356 
Q 3559 666 3084 287 
Q 2609 -91 1734 -91 
Q 1441 -91 1130 -33 
Q 819 25 488 141 
L 488 750 
Q 750 597 1062 519 
Q 1375 441 1716 441 
Q 2309 441 2620 675 
Q 2931 909 2931 1356 
Q 2931 1769 2642 2001 
Q 2353 2234 1838 2234 
L 1294 2234 
L 1294 2753 
L 1863 2753 
Q 2328 2753 2575 2939 
Q 2822 3125 2822 3475 
Q 2822 3834 2567 4026 
Q 2313 4219 1838 4219 
Q 1578 4219 1281 4162 
Q 984 4106 628 3988 
L 628 4550 
Q 988 4650 1302 4700 
Q 1616 4750 1894 4750 
Q 2613 4750 3031 4423 
Q 3450 4097 3450 3541 
Q 3450 3153 3228 2886 
Q 3006 2619 2597 2516 
z
" id="DejaVuSans-33" transform="scale(0.015625)"/>
       </defs>
       <use xlink:href="#DejaVuSans-31"/>
       <use x="63.623047" xlink:href="#DejaVuSans-33"/>
       <use x="127.246094" xlink:href="#DejaVuSans-30"/>
      </g>
     </g>
    </g>
    <g id="ytick_2">
     <g id="line2d_7">
      <g>
       <use style="stroke:#000000;stroke-width:0.8;" x="57.6" xlink:href="#m80442e4f07" y="232.765029"/>
      </g>
     </g>
     <g id="text_8">
      <!-- 140 -->
      <g transform="translate(31.5125 236.564247)scale(0.1 -0.1)">
       <defs>
        <path d="M 2419 4116 
L 825 1625 
L 2419 1625 
L 2419 4116 
z
M 2253 4666 
L 3047 4666 
L 3047 1625 
L 3713 1625 
L 3713 1100 
L 3047 1100 
L 3047 0 
L 2419 0 
L 2419 1100 
L 313 1100 
L 313 1709 
L 2253 4666 
z
" id="DejaVuSans-34" transform="scale(0.015625)"/>
       </defs>
       <use xlink:href="#DejaVuSans-31"/>
       <use x="63.623047" xlink:href="#DejaVuSans-34"/>
       <use x="127.246094" xlink:href="#DejaVuSans-30"/>
      </g>
     </g>
    </g>
    <g id="ytick_3">
     <g id="line2d_8">
      <g>
       <use style="stroke:#000000;stroke-width:0.8;" x="57.6" xlink:href="#m80442e4f07" y="188.195306"/>
      </g>
     </g>
     <g id="text_9">
      <!-- 150 -->
      <g transform="translate(31.5125 191.994524)scale(0.1 -0.1)">
       <use xlink:href="#DejaVuSans-31"/>
       <use x="63.623047" xlink:href="#DejaVuSans-35"/>
       <use x="127.246094" xlink:href="#DejaVuSans-30"/>
      </g>
     </g>
    </g>
    <g id="ytick_4">
     <g id="line2d_9">
      <g>
       <use style="stroke:#000000;stroke-width:0.8;" x="57.6" xlink:href="#m80442e4f07" y="143.625582"/>
      </g>
     </g>
     <g id="text_10">
      <!-- 160 -->
      <g transform="translate(31.5125 147.424801)scale(0.1 -0.1)">
       <defs>
        <path d="M 2113 2584 
Q 1688 2584 1439 2293 
Q 1191 2003 1191 1497 
Q 1191 994 1439 701 
Q 1688 409 2113 409 
Q 2538 409 2786 701 
Q 3034 994 3034 1497 
Q 3034 2003 2786 2293 
Q 2538 2584 2113 2584 
z
M 3366 4563 
L 3366 3988 
Q 3128 4100 2886 4159 
Q 2644 4219 2406 4219 
Q 1781 4219 1451 3797 
Q 1122 3375 1075 2522 
Q 1259 2794 1537 2939 
Q 1816 3084 2150 3084 
Q 2853 3084 3261 2657 
Q 3669 2231 3669 1497 
Q 3669 778 3244 343 
Q 2819 -91 2113 -91 
Q 1303 -91 875 529 
Q 447 1150 447 2328 
Q 447 3434 972 4092 
Q 1497 4750 2381 4750 
Q 2619 4750 2861 4703 
Q 3103 4656 3366 4563 
z
" id="DejaVuSans-36" transform="scale(0.015625)"/>
       </defs>
       <use xlink:href="#DejaVuSans-31"/>
       <use x="63.623047" xlink:href="#DejaVuSans-36"/>
       <use x="127.246094" xlink:href="#DejaVuSans-30"/>
      </g>
     </g>
    </g>
    <g id="ytick_5">
     <g id="line2d_10">
      <g>
       <use style="stroke:#000000;stroke-width:0.8;" x="57.6" xlink:href="#m80442e4f07" y="99.055859"/>
      </g>
     </g>
     <g id="text_11">
      <!-- 170 -->
      <g transform="translate(31.5125 102.855078)scale(0.1 -0.1)">
       <defs>
        <path d="M 525 4666 
L 3525 4666 
L 3525 4397 
L 1831 0 
L 1172 0 
L 2766 4134 
L 525 4134 
L 525 4666 
z
" id="DejaVuSans-37" transform="scale(0.015625)"/>
       </defs>
       <use xlink:href="#DejaVuSans-31"/>
       <use x="63.623047" xlink:href="#DejaVuSans-37"/>
       <use x="127.246094" xlink:href="#DejaVuSans-30"/>
      </g>
     </g>
    </g>
    <g id="ytick_6">
     <g id="line2d_11">
      <g>
       <use style="stroke:#000000;stroke-width:0.8;" x="57.6" xlink:href="#m80442e4f07" y="54.486136"/>
      </g>
     </g>
     <g id="text_12">
      <!-- 180 -->
      <g transform="translate(31.5125 58.285355)scale(0.1 -0.1)">
       <defs>
        <path d="M 2034 2216 
Q 1584 2216 1326 1975 
Q 1069 1734 1069 1313 
Q 1069 891 1326 650 
Q 1584 409 2034 409 
Q 2484 409 2743 651 
Q 3003 894 3003 1313 
Q 3003 1734 2745 1975 
Q 2488 2216 2034 2216 
z
M 1403 2484 
Q 997 2584 770 2862 
Q 544 3141 544 3541 
Q 544 4100 942 4425 
Q 1341 4750 2034 4750 
Q 2731 4750 3128 4425 
Q 3525 4100 3525 3541 
Q 3525 3141 3298 2862 
Q 3072 2584 2669 2484 
Q 3125 2378 3379 2068 
Q 3634 1759 3634 1313 
Q 3634 634 3220 271 
Q 2806 -91 2034 -91 
Q 1263 -91 848 271 
Q 434 634 434 1313 
Q 434 1759 690 2068 
Q 947 2378 1403 2484 
z
M 1172 3481 
Q 1172 3119 1398 2916 
Q 1625 2713 2034 2713 
Q 2441 2713 2670 2916 
Q 2900 3119 2900 3481 
Q 2900 3844 2670 4047 
Q 2441 4250 2034 4250 
Q 1625 4250 1398 4047 
Q 1172 3844 1172 3481 
z
" id="DejaVuSans-38" transform="scale(0.015625)"/>
       </defs>
       <use xlink:href="#DejaVuSans-31"/>
       <use x="63.623047" xlink:href="#DejaVuSans-38"/>
       <use x="127.246094" xlink:href="#DejaVuSans-30"/>
      </g>
     </g>
    </g>
    <g id="text_13">
     <!-- Delay(ms) -->
     <g transform="translate(25.432812 200.243625)rotate(-90)scale(0.1 -0.1)">
      <defs>
       <path d="M 1259 4147 
L 1259 519 
L 2022 519 
Q 2988 519 3436 956 
Q 3884 1394 3884 2338 
Q 3884 3275 3436 3711 
Q 2988 4147 2022 4147 
L 1259 4147 
z
M 628 4666 
L 1925 4666 
Q 3281 4666 3915 4102 
Q 4550 3538 4550 2338 
Q 4550 1131 3912 565 
Q 3275 0 1925 0 
L 628 0 
L 628 4666 
z
" id="DejaVuSans-44" transform="scale(0.015625)"/>
       <path d="M 603 4863 
L 1178 4863 
L 1178 0 
L 603 0 
L 603 4863 
z
" id="DejaVuSans-6c" transform="scale(0.015625)"/>
       <path d="M 2194 1759 
Q 1497 1759 1228 1600 
Q 959 1441 959 1056 
Q 959 750 1161 570 
Q 1363 391 1709 391 
Q 2188 391 2477 730 
Q 2766 1069 2766 1631 
L 2766 1759 
L 2194 1759 
z
M 3341 1997 
L 3341 0 
L 2766 0 
L 2766 531 
Q 2569 213 2275 61 
Q 1981 -91 1556 -91 
Q 1019 -91 701 211 
Q 384 513 384 1019 
Q 384 1609 779 1909 
Q 1175 2209 1959 2209 
L 2766 2209 
L 2766 2266 
Q 2766 2663 2505 2880 
Q 2244 3097 1772 3097 
Q 1472 3097 1187 3025 
Q 903 2953 641 2809 
L 641 3341 
Q 956 3463 1253 3523 
Q 1550 3584 1831 3584 
Q 2591 3584 2966 3190 
Q 3341 2797 3341 1997 
z
" id="DejaVuSans-61" transform="scale(0.015625)"/>
       <path d="M 2059 -325 
Q 1816 -950 1584 -1140 
Q 1353 -1331 966 -1331 
L 506 -1331 
L 506 -850 
L 844 -850 
Q 1081 -850 1212 -737 
Q 1344 -625 1503 -206 
L 1606 56 
L 191 3500 
L 800 3500 
L 1894 763 
L 2988 3500 
L 3597 3500 
L 2059 -325 
z
" id="DejaVuSans-79" transform="scale(0.015625)"/>
      </defs>
      <use xlink:href="#DejaVuSans-44"/>
      <use x="77.001953" xlink:href="#DejaVuSans-65"/>
      <use x="138.525391" xlink:href="#DejaVuSans-6c"/>
      <use x="166.308594" xlink:href="#DejaVuSans-61"/>
      <use x="227.587891" xlink:href="#DejaVuSans-79"/>
      <use x="286.767578" xlink:href="#DejaVuSans-28"/>
      <use x="325.78125" xlink:href="#DejaVuSans-6d"/>
      <use x="423.193359" xlink:href="#DejaVuSans-73"/>
      <use x="475.292969" xlink:href="#DejaVuSans-29"/>
     </g>
    </g>
   </g>
   <g id="line2d_12">
    <path clip-path="url(#pae6f4ef901)" d="M 73.832727 239.893482 
L 76.65581 155.617987 
L 79.478893 153.290236 
L 82.301976 151.43157 
L 85.125059 153.675772 
L 87.948142 157.621911 
L 90.771225 162.57571 
L 93.594308 157.571862 
L 96.417391 145.493404 
L 99.240474 152.599423 
L 102.063557 150.322522 
L 104.88664 156.745952 
L 107.709723 143.192889 
L 110.532806 149.105706 
L 113.355889 146.255075 
L 116.178972 159.222871 
L 119.002055 156.184481 
L 121.825138 155.732815 
L 124.648221 156.900614 
L 127.471304 152.689754 
L 130.294387 150.057281 
L 133.11747 159.184689 
L 135.940553 161.60382 
L 138.763636 151.114459 
L 141.586719 155.473517 
L 144.409802 162.925655 
L 147.232885 166.396366 
L 150.055968 163.196956 
L 152.879051 163.934887 
L 155.702134 156.929152 
L 158.525217 138.585512 
L 161.3483 148.311957 
L 164.171383 151.953276 
L 166.994466 160.219833 
L 169.817549 153.817519 
L 172.640632 154.45416 
L 175.463715 149.920203 
L 178.286798 146.592443 
L 181.109881 152.132515 
L 183.932964 154.655534 
L 186.756047 141.958365 
L 189.57913 143.483247 
L 192.402213 147.765606 
L 195.225296 149.1382 
L 198.048379 148.845699 
L 200.871462 156.097545 
L 203.694545 149.951118 
L 206.517628 147.207769 
L 209.340711 155.719648 
L 212.163794 151.120305 
L 214.986877 147.910304 
L 217.80996 150.948882 
L 220.633043 165.701831 
L 223.456126 151.305272 
L 226.279209 156.119275 
L 229.102292 141.946286 
L 231.925375 155.638406 
L 234.748458 145.928327 
L 237.571542 149.186544 
L 240.394625 150.527029 
L 243.217708 147.395359 
L 246.040791 155.731033 
L 248.863874 151.598041 
L 251.686957 153.058246 
L 254.51004 150.560447 
L 257.333123 139.95396 
L 260.156206 138.581581 
L 262.979289 145.671534 
L 265.802372 147.626928 
L 268.625455 142.39687 
L 271.448538 151.518436 
L 274.271621 153.478852 
L 277.094704 155.452557 
L 279.917787 144.073482 
L 282.74087 158.270382 
L 285.563953 157.950582 
L 288.387036 150.77669 
L 291.210119 152.157568 
L 294.033202 160.93756 
L 296.856285 139.144992 
L 299.679368 140.985505 
L 302.502451 145.779585 
L 305.325534 160.904838 
L 308.148617 154.097473 
L 310.9717 153.231238 
L 313.794783 164.764228 
L 316.617866 159.550809 
L 319.440949 152.348308 
L 322.264032 173.333884 
L 325.087115 169.814149 
L 327.910198 161.150208 
L 330.733281 161.20094 
L 333.556364 164.65608 
L 336.379447 148.237578 
L 339.20253 152.837128 
L 342.025613 158.047852 
L 344.848696 150.572241 
L 347.671779 160.506267 
L 350.494862 169.328918 
L 353.317945 155.631328 
L 356.141028 158.549998 
L 358.964111 170.253291 
L 361.787194 161.889091 
L 364.610277 160.253867 
L 367.43336 156.067655 
L 370.256443 142.250302 
L 373.079526 173.214126 
L 375.902609 148.993419 
L 378.725692 143.358815 
L 381.548775 155.90833 
L 384.371858 159.485433 
L 387.194941 157.26843 
L 390.018024 163.943512 
L 392.841107 159.321414 
L 395.66419 168.406766 
L 398.487273 154.028423 
" style="fill:none;stroke:#1f77b4;stroke-dasharray:2,3.3;stroke-dashoffset:0;stroke-width:2;"/>
    <defs>
     <path d="M 0 3 
C 0.795609 3 1.55874 2.683901 2.12132 2.12132 
C 2.683901 1.55874 3 0.795609 3 0 
C 3 -0.795609 2.683901 -1.55874 2.12132 -2.12132 
C 1.55874 -2.683901 0.795609 -3 0 -3 
C -0.795609 -3 -1.55874 -2.683901 -2.12132 -2.12132 
C -2.683901 -1.55874 -3 -0.795609 -3 0 
C -3 0.795609 -2.683901 1.55874 -2.12132 2.12132 
C -1.55874 2.683901 -0.795609 3 0 3 
z
" id="m4b0baebe44" style="stroke:#1f77b4;"/>
    </defs>
    <g clip-path="url(#pae6f4ef901)">
     <use style="fill-opacity:0;stroke:#1f77b4;" x="73.832727" xlink:href="#m4b0baebe44" y="239.893482"/>
     <use style="fill-opacity:0;stroke:#1f77b4;" x="76.65581" xlink:href="#m4b0baebe44" y="155.617987"/>
     <use style="fill-opacity:0;stroke:#1f77b4;" x="79.478893" xlink:href="#m4b0baebe44" y="153.290236"/>
     <use style="fill-opacity:0;stroke:#1f77b4;" x="82.301976" xlink:href="#m4b0baebe44" y="151.43157"/>
     <use style="fill-opacity:0;stroke:#1f77b4;" x="85.125059" xlink:href="#m4b0baebe44" y="153.675772"/>
     <use style="fill-opacity:0;stroke:#1f77b4;" x="87.948142" xlink:href="#m4b0baebe44" y="157.621911"/>
     <use style="fill-opacity:0;stroke:#1f77b4;" x="90.771225" xlink:href="#m4b0baebe44" y="162.57571"/>
     <use style="fill-opacity:0;stroke:#1f77b4;" x="93.594308" xlink:href="#m4b0baebe44" y="157.571862"/>
     <use style="fill-opacity:0;stroke:#1f77b4;" x="96.417391" xlink:href="#m4b0baebe44" y="145.493404"/>
     <use style="fill-opacity:0;stroke:#1f77b4;" x="99.240474" xlink:href="#m4b0baebe44" y="152.599423"/>
     <use style="fill-opacity:0;stroke:#1f77b4;" x="102.063557" xlink:href="#m4b0baebe44" y="150.322522"/>
     <use style="fill-opacity:0;stroke:#1f77b4;" x="104.88664" xlink:href="#m4b0baebe44" y="156.745952"/>
     <use style="fill-opacity:0;stroke:#1f77b4;" x="107.709723" xlink:href="#m4b0baebe44" y="143.192889"/>
     <use style="fill-opacity:0;stroke:#1f77b4;" x="110.532806" xlink:href="#m4b0baebe44" y="149.105706"/>
     <use style="fill-opacity:0;stroke:#1f77b4;" x="113.355889" xlink:href="#m4b0baebe44" y="146.255075"/>
     <use style="fill-opacity:0;stroke:#1f77b4;" x="116.178972" xlink:href="#m4b0baebe44" y="159.222871"/>
     <use style="fill-opacity:0;stroke:#1f77b4;" x="119.002055" xlink:href="#m4b0baebe44" y="156.184481"/>
     <use style="fill-opacity:0;stroke:#1f77b4;" x="121.825138" xlink:href="#m4b0baebe44" y="155.732815"/>
     <use style="fill-opacity:0;stroke:#1f77b4;" x="124.648221" xlink:href="#m4b0baebe44" y="156.900614"/>
     <use style="fill-opacity:0;stroke:#1f77b4;" x="127.471304" xlink:href="#m4b0baebe44" y="152.689754"/>
     <use style="fill-opacity:0;stroke:#1f77b4;" x="130.294387" xlink:href="#m4b0baebe44" y="150.057281"/>
     <use style="fill-opacity:0;stroke:#1f77b4;" x="133.11747" xlink:href="#m4b0baebe44" y="159.184689"/>
     <use style="fill-opacity:0;stroke:#1f77b4;" x="135.940553" xlink:href="#m4b0baebe44" y="161.60382"/>
     <use style="fill-opacity:0;stroke:#1f77b4;" x="138.763636" xlink:href="#m4b0baebe44" y="151.114459"/>
     <use style="fill-opacity:0;stroke:#1f77b4;" x="141.586719" xlink:href="#m4b0baebe44" y="155.473517"/>
     <use style="fill-opacity:0;stroke:#1f77b4;" x="144.409802" xlink:href="#m4b0baebe44" y="162.925655"/>
     <use style="fill-opacity:0;stroke:#1f77b4;" x="147.232885" xlink:href="#m4b0baebe44" y="166.396366"/>
     <use style="fill-opacity:0;stroke:#1f77b4;" x="150.055968" xlink:href="#m4b0baebe44" y="163.196956"/>
     <use style="fill-opacity:0;stroke:#1f77b4;" x="152.879051" xlink:href="#m4b0baebe44" y="163.934887"/>
     <use style="fill-opacity:0;stroke:#1f77b4;" x="155.702134" xlink:href="#m4b0baebe44" y="156.929152"/>
     <use style="fill-opacity:0;stroke:#1f77b4;" x="158.525217" xlink:href="#m4b0baebe44" y="138.585512"/>
     <use style="fill-opacity:0;stroke:#1f77b4;" x="161.3483" xlink:href="#m4b0baebe44" y="148.311957"/>
     <use style="fill-opacity:0;stroke:#1f77b4;" x="164.171383" xlink:href="#m4b0baebe44" y="151.953276"/>
     <use style="fill-opacity:0;stroke:#1f77b4;" x="166.994466" xlink:href="#m4b0baebe44" y="160.219833"/>
     <use style="fill-opacity:0;stroke:#1f77b4;" x="169.817549" xlink:href="#m4b0baebe44" y="153.817519"/>
     <use style="fill-opacity:0;stroke:#1f77b4;" x="172.640632" xlink:href="#m4b0baebe44" y="154.45416"/>
     <use style="fill-opacity:0;stroke:#1f77b4;" x="175.463715" xlink:href="#m4b0baebe44" y="149.920203"/>
     <use style="fill-opacity:0;stroke:#1f77b4;" x="178.286798" xlink:href="#m4b0baebe44" y="146.592443"/>
     <use style="fill-opacity:0;stroke:#1f77b4;" x="181.109881" xlink:href="#m4b0baebe44" y="152.132515"/>
     <use style="fill-opacity:0;stroke:#1f77b4;" x="183.932964" xlink:href="#m4b0baebe44" y="154.655534"/>
     <use style="fill-opacity:0;stroke:#1f77b4;" x="186.756047" xlink:href="#m4b0baebe44" y="141.958365"/>
     <use style="fill-opacity:0;stroke:#1f77b4;" x="189.57913" xlink:href="#m4b0baebe44" y="143.483247"/>
     <use style="fill-opacity:0;stroke:#1f77b4;" x="192.402213" xlink:href="#m4b0baebe44" y="147.765606"/>
     <use style="fill-opacity:0;stroke:#1f77b4;" x="195.225296" xlink:href="#m4b0baebe44" y="149.1382"/>
     <use style="fill-opacity:0;stroke:#1f77b4;" x="198.048379" xlink:href="#m4b0baebe44" y="148.845699"/>
     <use style="fill-opacity:0;stroke:#1f77b4;" x="200.871462" xlink:href="#m4b0baebe44" y="156.097545"/>
     <use style="fill-opacity:0;stroke:#1f77b4;" x="203.694545" xlink:href="#m4b0baebe44" y="149.951118"/>
     <use style="fill-opacity:0;stroke:#1f77b4;" x="206.517628" xlink:href="#m4b0baebe44" y="147.207769"/>
     <use style="fill-opacity:0;stroke:#1f77b4;" x="209.340711" xlink:href="#m4b0baebe44" y="155.719648"/>
     <use style="fill-opacity:0;stroke:#1f77b4;" x="212.163794" xlink:href="#m4b0baebe44" y="151.120305"/>
     <use style="fill-opacity:0;stroke:#1f77b4;" x="214.986877" xlink:href="#m4b0baebe44" y="147.910304"/>
     <use style="fill-opacity:0;stroke:#1f77b4;" x="217.80996" xlink:href="#m4b0baebe44" y="150.948882"/>
     <use style="fill-opacity:0;stroke:#1f77b4;" x="220.633043" xlink:href="#m4b0baebe44" y="165.701831"/>
     <use style="fill-opacity:0;stroke:#1f77b4;" x="223.456126" xlink:href="#m4b0baebe44" y="151.305272"/>
     <use style="fill-opacity:0;stroke:#1f77b4;" x="226.279209" xlink:href="#m4b0baebe44" y="156.119275"/>
     <use style="fill-opacity:0;stroke:#1f77b4;" x="229.102292" xlink:href="#m4b0baebe44" y="141.946286"/>
     <use style="fill-opacity:0;stroke:#1f77b4;" x="231.925375" xlink:href="#m4b0baebe44" y="155.638406"/>
     <use style="fill-opacity:0;stroke:#1f77b4;" x="234.748458" xlink:href="#m4b0baebe44" y="145.928327"/>
     <use style="fill-opacity:0;stroke:#1f77b4;" x="237.571542" xlink:href="#m4b0baebe44" y="149.186544"/>
     <use style="fill-opacity:0;stroke:#1f77b4;" x="240.394625" xlink:href="#m4b0baebe44" y="150.527029"/>
     <use style="fill-opacity:0;stroke:#1f77b4;" x="243.217708" xlink:href="#m4b0baebe44" y="147.395359"/>
     <use style="fill-opacity:0;stroke:#1f77b4;" x="246.040791" xlink:href="#m4b0baebe44" y="155.731033"/>
     <use style="fill-opacity:0;stroke:#1f77b4;" x="248.863874" xlink:href="#m4b0baebe44" y="151.598041"/>
     <use style="fill-opacity:0;stroke:#1f77b4;" x="251.686957" xlink:href="#m4b0baebe44" y="153.058246"/>
     <use style="fill-opacity:0;stroke:#1f77b4;" x="254.51004" xlink:href="#m4b0baebe44" y="150.560447"/>
     <use style="fill-opacity:0;stroke:#1f77b4;" x="257.333123" xlink:href="#m4b0baebe44" y="139.95396"/>
     <use style="fill-opacity:0;stroke:#1f77b4;" x="260.156206" xlink:href="#m4b0baebe44" y="138.581581"/>
     <use style="fill-opacity:0;stroke:#1f77b4;" x="262.979289" xlink:href="#m4b0baebe44" y="145.671534"/>
     <use style="fill-opacity:0;stroke:#1f77b4;" x="265.802372" xlink:href="#m4b0baebe44" y="147.626928"/>
     <use style="fill-opacity:0;stroke:#1f77b4;" x="268.625455" xlink:href="#m4b0baebe44" y="142.39687"/>
     <use style="fill-opacity:0;stroke:#1f77b4;" x="271.448538" xlink:href="#m4b0baebe44" y="151.518436"/>
     <use style="fill-opacity:0;stroke:#1f77b4;" x="274.271621" xlink:href="#m4b0baebe44" y="153.478852"/>
     <use style="fill-opacity:0;stroke:#1f77b4;" x="277.094704" xlink:href="#m4b0baebe44" y="155.452557"/>
     <use style="fill-opacity:0;stroke:#1f77b4;" x="279.917787" xlink:href="#m4b0baebe44" y="144.073482"/>
     <use style="fill-opacity:0;stroke:#1f77b4;" x="282.74087" xlink:href="#m4b0baebe44" y="158.270382"/>
     <use style="fill-opacity:0;stroke:#1f77b4;" x="285.563953" xlink:href="#m4b0baebe44" y="157.950582"/>
     <use style="fill-opacity:0;stroke:#1f77b4;" x="288.387036" xlink:href="#m4b0baebe44" y="150.77669"/>
     <use style="fill-opacity:0;stroke:#1f77b4;" x="291.210119" xlink:href="#m4b0baebe44" y="152.157568"/>
     <use style="fill-opacity:0;stroke:#1f77b4;" x="294.033202" xlink:href="#m4b0baebe44" y="160.93756"/>
     <use style="fill-opacity:0;stroke:#1f77b4;" x="296.856285" xlink:href="#m4b0baebe44" y="139.144992"/>
     <use style="fill-opacity:0;stroke:#1f77b4;" x="299.679368" xlink:href="#m4b0baebe44" y="140.985505"/>
     <use style="fill-opacity:0;stroke:#1f77b4;" x="302.502451" xlink:href="#m4b0baebe44" y="145.779585"/>
     <use style="fill-opacity:0;stroke:#1f77b4;" x="305.325534" xlink:href="#m4b0baebe44" y="160.904838"/>
     <use style="fill-opacity:0;stroke:#1f77b4;" x="308.148617" xlink:href="#m4b0baebe44" y="154.097473"/>
     <use style="fill-opacity:0;stroke:#1f77b4;" x="310.9717" xlink:href="#m4b0baebe44" y="153.231238"/>
     <use style="fill-opacity:0;stroke:#1f77b4;" x="313.794783" xlink:href="#m4b0baebe44" y="164.764228"/>
     <use style="fill-opacity:0;stroke:#1f77b4;" x="316.617866" xlink:href="#m4b0baebe44" y="159.550809"/>
     <use style="fill-opacity:0;stroke:#1f77b4;" x="319.440949" xlink:href="#m4b0baebe44" y="152.348308"/>
     <use style="fill-opacity:0;stroke:#1f77b4;" x="322.264032" xlink:href="#m4b0baebe44" y="173.333884"/>
     <use style="fill-opacity:0;stroke:#1f77b4;" x="325.087115" xlink:href="#m4b0baebe44" y="169.814149"/>
     <use style="fill-opacity:0;stroke:#1f77b4;" x="327.910198" xlink:href="#m4b0baebe44" y="161.150208"/>
     <use style="fill-opacity:0;stroke:#1f77b4;" x="330.733281" xlink:href="#m4b0baebe44" y="161.20094"/>
     <use style="fill-opacity:0;stroke:#1f77b4;" x="333.556364" xlink:href="#m4b0baebe44" y="164.65608"/>
     <use style="fill-opacity:0;stroke:#1f77b4;" x="336.379447" xlink:href="#m4b0baebe44" y="148.237578"/>
     <use style="fill-opacity:0;stroke:#1f77b4;" x="339.20253" xlink:href="#m4b0baebe44" y="152.837128"/>
     <use style="fill-opacity:0;stroke:#1f77b4;" x="342.025613" xlink:href="#m4b0baebe44" y="158.047852"/>
     <use style="fill-opacity:0;stroke:#1f77b4;" x="344.848696" xlink:href="#m4b0baebe44" y="150.572241"/>
     <use style="fill-opacity:0;stroke:#1f77b4;" x="347.671779" xlink:href="#m4b0baebe44" y="160.506267"/>
     <use style="fill-opacity:0;stroke:#1f77b4;" x="350.494862" xlink:href="#m4b0baebe44" y="169.328918"/>
     <use style="fill-opacity:0;stroke:#1f77b4;" x="353.317945" xlink:href="#m4b0baebe44" y="155.631328"/>
     <use style="fill-opacity:0;stroke:#1f77b4;" x="356.141028" xlink:href="#m4b0baebe44" y="158.549998"/>
     <use style="fill-opacity:0;stroke:#1f77b4;" x="358.964111" xlink:href="#m4b0baebe44" y="170.253291"/>
     <use style="fill-opacity:0;stroke:#1f77b4;" x="361.787194" xlink:href="#m4b0baebe44" y="161.889091"/>
     <use style="fill-opacity:0;stroke:#1f77b4;" x="364.610277" xlink:href="#m4b0baebe44" y="160.253867"/>
     <use style="fill-opacity:0;stroke:#1f77b4;" x="367.43336" xlink:href="#m4b0baebe44" y="156.067655"/>
     <use style="fill-opacity:0;stroke:#1f77b4;" x="370.256443" xlink:href="#m4b0baebe44" y="142.250302"/>
     <use style="fill-opacity:0;stroke:#1f77b4;" x="373.079526" xlink:href="#m4b0baebe44" y="173.214126"/>
     <use style="fill-opacity:0;stroke:#1f77b4;" x="375.902609" xlink:href="#m4b0baebe44" y="148.993419"/>
     <use style="fill-opacity:0;stroke:#1f77b4;" x="378.725692" xlink:href="#m4b0baebe44" y="143.358815"/>
     <use style="fill-opacity:0;stroke:#1f77b4;" x="381.548775" xlink:href="#m4b0baebe44" y="155.90833"/>
     <use style="fill-opacity:0;stroke:#1f77b4;" x="384.371858" xlink:href="#m4b0baebe44" y="159.485433"/>
     <use style="fill-opacity:0;stroke:#1f77b4;" x="387.194941" xlink:href="#m4b0baebe44" y="157.26843"/>
     <use style="fill-opacity:0;stroke:#1f77b4;" x="390.018024" xlink:href="#m4b0baebe44" y="163.943512"/>
     <use style="fill-opacity:0;stroke:#1f77b4;" x="392.841107" xlink:href="#m4b0baebe44" y="159.321414"/>
     <use style="fill-opacity:0;stroke:#1f77b4;" x="395.66419" xlink:href="#m4b0baebe44" y="168.406766"/>
     <use style="fill-opacity:0;stroke:#1f77b4;" x="398.487273" xlink:href="#m4b0baebe44" y="154.028423"/>
    </g>
   </g>
   <g id="line2d_13">
    <path clip-path="url(#pae6f4ef901)" d="M 183.932964 295.488 
L 186.756047 181.422275 
L 189.57913 168.397446 
L 192.402213 148.315302 
L 195.225296 153.86326 
L 198.048379 158.090167 
L 200.871462 147.663598 
L 203.694545 159.283413 
L 206.517628 152.946525 
L 209.340711 157.369858 
L 212.163794 147.726802 
L 214.986877 141.804497 
L 217.80996 146.465613 
L 220.633043 154.951305 
L 223.456126 149.53955 
L 226.279209 152.558709 
L 229.102292 153.728168 
L 231.925375 156.369561 
L 234.748458 143.256434 
L 237.571542 153.432887 
L 240.394625 147.101192 
L 243.217708 148.362273 
L 246.040791 154.813492 
L 248.863874 153.881613 
L 251.686957 158.330344 
L 254.51004 158.676529 
L 257.333123 143.936943 
L 260.156206 151.246758 
L 262.979289 153.794958 
L 265.802372 151.980962 
L 268.625455 142.364849 
L 271.448538 159.913062 
L 274.271621 152.698633 
L 277.094704 159.757166 
L 279.917787 156.118497 
L 282.74087 160.818252 
L 285.563953 158.760588 
L 288.387036 156.638087 
L 291.210119 157.33484 
L 294.033202 163.339427 
L 296.856285 149.094535 
L 299.679368 154.682485 
L 302.502451 156.996471 
L 305.325534 158.874558 
L 308.148617 158.38022 
L 310.9717 162.787342 
L 313.794783 165.441201 
L 316.617866 153.24338 
L 319.440949 167.180762 
L 322.264032 172.790443 
L 325.087115 161.210994 
L 327.910198 154.126681 
L 330.733281 144.632675 
L 333.556364 163.476214 
L 336.379447 157.827479 
L 339.20253 154.341069 
L 342.025613 163.436741 
L 344.848696 157.960037 
L 347.671779 184.405391 
L 350.494862 160.550112 
L 353.317945 164.525541 
L 356.141028 172.75057 
L 358.964111 166.0985 
L 361.787194 158.77329 
L 364.610277 159.492388 
L 367.43336 163.975846 
L 370.256443 150.932936 
L 373.079526 173.219666 
L 375.902609 150.234899 
L 378.725692 155.885775 
L 381.548775 160.684108 
L 384.371858 160.413852 
L 387.194941 162.155934 
L 390.018024 166.008227 
L 392.841107 166.643912 
L 395.66419 159.737039 
L 398.487273 163.173428 
" style="fill:none;stroke:#ff7f0e;stroke-dasharray:2,3.3;stroke-dashoffset:0;stroke-width:2;"/>
    <defs>
     <path d="M -0 3 
L 3 -3 
L -3 -3 
z
" id="m3212a1253a" style="stroke:#ff7f0e;stroke-linejoin:miter;"/>
    </defs>
    <g clip-path="url(#pae6f4ef901)">
     <use style="fill-opacity:0;stroke:#ff7f0e;stroke-linejoin:miter;" x="183.932964" xlink:href="#m3212a1253a" y="295.488"/>
     <use style="fill-opacity:0;stroke:#ff7f0e;stroke-linejoin:miter;" x="186.756047" xlink:href="#m3212a1253a" y="181.422275"/>
     <use style="fill-opacity:0;stroke:#ff7f0e;stroke-linejoin:miter;" x="189.57913" xlink:href="#m3212a1253a" y="168.397446"/>
     <use style="fill-opacity:0;stroke:#ff7f0e;stroke-linejoin:miter;" x="192.402213" xlink:href="#m3212a1253a" y="148.315302"/>
     <use style="fill-opacity:0;stroke:#ff7f0e;stroke-linejoin:miter;" x="195.225296" xlink:href="#m3212a1253a" y="153.86326"/>
     <use style="fill-opacity:0;stroke:#ff7f0e;stroke-linejoin:miter;" x="198.048379" xlink:href="#m3212a1253a" y="158.090167"/>
     <use style="fill-opacity:0;stroke:#ff7f0e;stroke-linejoin:miter;" x="200.871462" xlink:href="#m3212a1253a" y="147.663598"/>
     <use style="fill-opacity:0;stroke:#ff7f0e;stroke-linejoin:miter;" x="203.694545" xlink:href="#m3212a1253a" y="159.283413"/>
     <use style="fill-opacity:0;stroke:#ff7f0e;stroke-linejoin:miter;" x="206.517628" xlink:href="#m3212a1253a" y="152.946525"/>
     <use style="fill-opacity:0;stroke:#ff7f0e;stroke-linejoin:miter;" x="209.340711" xlink:href="#m3212a1253a" y="157.369858"/>
     <use style="fill-opacity:0;stroke:#ff7f0e;stroke-linejoin:miter;" x="212.163794" xlink:href="#m3212a1253a" y="147.726802"/>
     <use style="fill-opacity:0;stroke:#ff7f0e;stroke-linejoin:miter;" x="214.986877" xlink:href="#m3212a1253a" y="141.804497"/>
     <use style="fill-opacity:0;stroke:#ff7f0e;stroke-linejoin:miter;" x="217.80996" xlink:href="#m3212a1253a" y="146.465613"/>
     <use style="fill-opacity:0;stroke:#ff7f0e;stroke-linejoin:miter;" x="220.633043" xlink:href="#m3212a1253a" y="154.951305"/>
     <use style="fill-opacity:0;stroke:#ff7f0e;stroke-linejoin:miter;" x="223.456126" xlink:href="#m3212a1253a" y="149.53955"/>
     <use style="fill-opacity:0;stroke:#ff7f0e;stroke-linejoin:miter;" x="226.279209" xlink:href="#m3212a1253a" y="152.558709"/>
     <use style="fill-opacity:0;stroke:#ff7f0e;stroke-linejoin:miter;" x="229.102292" xlink:href="#m3212a1253a" y="153.728168"/>
     <use style="fill-opacity:0;stroke:#ff7f0e;stroke-linejoin:miter;" x="231.925375" xlink:href="#m3212a1253a" y="156.369561"/>
     <use style="fill-opacity:0;stroke:#ff7f0e;stroke-linejoin:miter;" x="234.748458" xlink:href="#m3212a1253a" y="143.256434"/>
     <use style="fill-opacity:0;stroke:#ff7f0e;stroke-linejoin:miter;" x="237.571542" xlink:href="#m3212a1253a" y="153.432887"/>
     <use style="fill-opacity:0;stroke:#ff7f0e;stroke-linejoin:miter;" x="240.394625" xlink:href="#m3212a1253a" y="147.101192"/>
     <use style="fill-opacity:0;stroke:#ff7f0e;stroke-linejoin:miter;" x="243.217708" xlink:href="#m3212a1253a" y="148.362273"/>
     <use style="fill-opacity:0;stroke:#ff7f0e;stroke-linejoin:miter;" x="246.040791" xlink:href="#m3212a1253a" y="154.813492"/>
     <use style="fill-opacity:0;stroke:#ff7f0e;stroke-linejoin:miter;" x="248.863874" xlink:href="#m3212a1253a" y="153.881613"/>
     <use style="fill-opacity:0;stroke:#ff7f0e;stroke-linejoin:miter;" x="251.686957" xlink:href="#m3212a1253a" y="158.330344"/>
     <use style="fill-opacity:0;stroke:#ff7f0e;stroke-linejoin:miter;" x="254.51004" xlink:href="#m3212a1253a" y="158.676529"/>
     <use style="fill-opacity:0;stroke:#ff7f0e;stroke-linejoin:miter;" x="257.333123" xlink:href="#m3212a1253a" y="143.936943"/>
     <use style="fill-opacity:0;stroke:#ff7f0e;stroke-linejoin:miter;" x="260.156206" xlink:href="#m3212a1253a" y="151.246758"/>
     <use style="fill-opacity:0;stroke:#ff7f0e;stroke-linejoin:miter;" x="262.979289" xlink:href="#m3212a1253a" y="153.794958"/>
     <use style="fill-opacity:0;stroke:#ff7f0e;stroke-linejoin:miter;" x="265.802372" xlink:href="#m3212a1253a" y="151.980962"/>
     <use style="fill-opacity:0;stroke:#ff7f0e;stroke-linejoin:miter;" x="268.625455" xlink:href="#m3212a1253a" y="142.364849"/>
     <use style="fill-opacity:0;stroke:#ff7f0e;stroke-linejoin:miter;" x="271.448538" xlink:href="#m3212a1253a" y="159.913062"/>
     <use style="fill-opacity:0;stroke:#ff7f0e;stroke-linejoin:miter;" x="274.271621" xlink:href="#m3212a1253a" y="152.698633"/>
     <use style="fill-opacity:0;stroke:#ff7f0e;stroke-linejoin:miter;" x="277.094704" xlink:href="#m3212a1253a" y="159.757166"/>
     <use style="fill-opacity:0;stroke:#ff7f0e;stroke-linejoin:miter;" x="279.917787" xlink:href="#m3212a1253a" y="156.118497"/>
     <use style="fill-opacity:0;stroke:#ff7f0e;stroke-linejoin:miter;" x="282.74087" xlink:href="#m3212a1253a" y="160.818252"/>
     <use style="fill-opacity:0;stroke:#ff7f0e;stroke-linejoin:miter;" x="285.563953" xlink:href="#m3212a1253a" y="158.760588"/>
     <use style="fill-opacity:0;stroke:#ff7f0e;stroke-linejoin:miter;" x="288.387036" xlink:href="#m3212a1253a" y="156.638087"/>
     <use style="fill-opacity:0;stroke:#ff7f0e;stroke-linejoin:miter;" x="291.210119" xlink:href="#m3212a1253a" y="157.33484"/>
     <use style="fill-opacity:0;stroke:#ff7f0e;stroke-linejoin:miter;" x="294.033202" xlink:href="#m3212a1253a" y="163.339427"/>
     <use style="fill-opacity:0;stroke:#ff7f0e;stroke-linejoin:miter;" x="296.856285" xlink:href="#m3212a1253a" y="149.094535"/>
     <use style="fill-opacity:0;stroke:#ff7f0e;stroke-linejoin:miter;" x="299.679368" xlink:href="#m3212a1253a" y="154.682485"/>
     <use style="fill-opacity:0;stroke:#ff7f0e;stroke-linejoin:miter;" x="302.502451" xlink:href="#m3212a1253a" y="156.996471"/>
     <use style="fill-opacity:0;stroke:#ff7f0e;stroke-linejoin:miter;" x="305.325534" xlink:href="#m3212a1253a" y="158.874558"/>
     <use style="fill-opacity:0;stroke:#ff7f0e;stroke-linejoin:miter;" x="308.148617" xlink:href="#m3212a1253a" y="158.38022"/>
     <use style="fill-opacity:0;stroke:#ff7f0e;stroke-linejoin:miter;" x="310.9717" xlink:href="#m3212a1253a" y="162.787342"/>
     <use style="fill-opacity:0;stroke:#ff7f0e;stroke-linejoin:miter;" x="313.794783" xlink:href="#m3212a1253a" y="165.441201"/>
     <use style="fill-opacity:0;stroke:#ff7f0e;stroke-linejoin:miter;" x="316.617866" xlink:href="#m3212a1253a" y="153.24338"/>
     <use style="fill-opacity:0;stroke:#ff7f0e;stroke-linejoin:miter;" x="319.440949" xlink:href="#m3212a1253a" y="167.180762"/>
     <use style="fill-opacity:0;stroke:#ff7f0e;stroke-linejoin:miter;" x="322.264032" xlink:href="#m3212a1253a" y="172.790443"/>
     <use style="fill-opacity:0;stroke:#ff7f0e;stroke-linejoin:miter;" x="325.087115" xlink:href="#m3212a1253a" y="161.210994"/>
     <use style="fill-opacity:0;stroke:#ff7f0e;stroke-linejoin:miter;" x="327.910198" xlink:href="#m3212a1253a" y="154.126681"/>
     <use style="fill-opacity:0;stroke:#ff7f0e;stroke-linejoin:miter;" x="330.733281" xlink:href="#m3212a1253a" y="144.632675"/>
     <use style="fill-opacity:0;stroke:#ff7f0e;stroke-linejoin:miter;" x="333.556364" xlink:href="#m3212a1253a" y="163.476214"/>
     <use style="fill-opacity:0;stroke:#ff7f0e;stroke-linejoin:miter;" x="336.379447" xlink:href="#m3212a1253a" y="157.827479"/>
     <use style="fill-opacity:0;stroke:#ff7f0e;stroke-linejoin:miter;" x="339.20253" xlink:href="#m3212a1253a" y="154.341069"/>
     <use style="fill-opacity:0;stroke:#ff7f0e;stroke-linejoin:miter;" x="342.025613" xlink:href="#m3212a1253a" y="163.436741"/>
     <use style="fill-opacity:0;stroke:#ff7f0e;stroke-linejoin:miter;" x="344.848696" xlink:href="#m3212a1253a" y="157.960037"/>
     <use style="fill-opacity:0;stroke:#ff7f0e;stroke-linejoin:miter;" x="347.671779" xlink:href="#m3212a1253a" y="184.405391"/>
     <use style="fill-opacity:0;stroke:#ff7f0e;stroke-linejoin:miter;" x="350.494862" xlink:href="#m3212a1253a" y="160.550112"/>
     <use style="fill-opacity:0;stroke:#ff7f0e;stroke-linejoin:miter;" x="353.317945" xlink:href="#m3212a1253a" y="164.525541"/>
     <use style="fill-opacity:0;stroke:#ff7f0e;stroke-linejoin:miter;" x="356.141028" xlink:href="#m3212a1253a" y="172.75057"/>
     <use style="fill-opacity:0;stroke:#ff7f0e;stroke-linejoin:miter;" x="358.964111" xlink:href="#m3212a1253a" y="166.0985"/>
     <use style="fill-opacity:0;stroke:#ff7f0e;stroke-linejoin:miter;" x="361.787194" xlink:href="#m3212a1253a" y="158.77329"/>
     <use style="fill-opacity:0;stroke:#ff7f0e;stroke-linejoin:miter;" x="364.610277" xlink:href="#m3212a1253a" y="159.492388"/>
     <use style="fill-opacity:0;stroke:#ff7f0e;stroke-linejoin:miter;" x="367.43336" xlink:href="#m3212a1253a" y="163.975846"/>
     <use style="fill-opacity:0;stroke:#ff7f0e;stroke-linejoin:miter;" x="370.256443" xlink:href="#m3212a1253a" y="150.932936"/>
     <use style="fill-opacity:0;stroke:#ff7f0e;stroke-linejoin:miter;" x="373.079526" xlink:href="#m3212a1253a" y="173.219666"/>
     <use style="fill-opacity:0;stroke:#ff7f0e;stroke-linejoin:miter;" x="375.902609" xlink:href="#m3212a1253a" y="150.234899"/>
     <use style="fill-opacity:0;stroke:#ff7f0e;stroke-linejoin:miter;" x="378.725692" xlink:href="#m3212a1253a" y="155.885775"/>
     <use style="fill-opacity:0;stroke:#ff7f0e;stroke-linejoin:miter;" x="381.548775" xlink:href="#m3212a1253a" y="160.684108"/>
     <use style="fill-opacity:0;stroke:#ff7f0e;stroke-linejoin:miter;" x="384.371858" xlink:href="#m3212a1253a" y="160.413852"/>
     <use style="fill-opacity:0;stroke:#ff7f0e;stroke-linejoin:miter;" x="387.194941" xlink:href="#m3212a1253a" y="162.155934"/>
     <use style="fill-opacity:0;stroke:#ff7f0e;stroke-linejoin:miter;" x="390.018024" xlink:href="#m3212a1253a" y="166.008227"/>
     <use style="fill-opacity:0;stroke:#ff7f0e;stroke-linejoin:miter;" x="392.841107" xlink:href="#m3212a1253a" y="166.643912"/>
     <use style="fill-opacity:0;stroke:#ff7f0e;stroke-linejoin:miter;" x="395.66419" xlink:href="#m3212a1253a" y="159.737039"/>
     <use style="fill-opacity:0;stroke:#ff7f0e;stroke-linejoin:miter;" x="398.487273" xlink:href="#m3212a1253a" y="163.173428"/>
    </g>
   </g>
   <g id="line2d_14">
    <path clip-path="url(#pae6f4ef901)" d="M 296.856285 53.568 
L 299.679368 223.020233 
L 302.502451 177.209995 
L 305.325534 157.582824 
L 308.148617 185.402123 
L 310.9717 158.66282 
L 313.794783 179.238732 
L 316.617866 166.40615 
L 319.440949 153.849792 
L 322.264032 164.075054 
L 325.087115 162.255492 
L 327.910198 158.297753 
L 330.733281 146.795131 
L 333.556364 162.744833 
L 336.379447 158.289702 
L 339.20253 151.931058 
L 342.025613 145.963343 
L 344.848696 164.468733 
L 347.671779 176.597393 
L 350.494862 166.372787 
L 353.317945 159.942494 
L 356.141028 145.943984 
L 358.964111 172.949126 
L 361.787194 153.928323 
L 364.610277 155.127431 
L 367.43336 154.205673 
L 370.256443 159.456227 
L 373.079526 170.546351 
L 375.902609 151.339837 
L 378.725692 163.854282 
L 381.548775 161.464071 
L 384.371858 144.627752 
L 387.194941 157.170345 
L 390.018024 157.630029 
L 392.841107 158.651633 
L 395.66419 151.080586 
L 398.487273 147.483257 
" style="fill:none;stroke:#2ca02c;stroke-dasharray:2,3.3;stroke-dashoffset:0;stroke-width:2;"/>
    <defs>
     <path d="M 0 -3 
L -3 3 
L 3 3 
z
" id="m6c61b92077" style="stroke:#2ca02c;stroke-linejoin:miter;"/>
    </defs>
    <g clip-path="url(#pae6f4ef901)">
     <use style="fill-opacity:0;stroke:#2ca02c;stroke-linejoin:miter;" x="296.856285" xlink:href="#m6c61b92077" y="53.568"/>
     <use style="fill-opacity:0;stroke:#2ca02c;stroke-linejoin:miter;" x="299.679368" xlink:href="#m6c61b92077" y="223.020233"/>
     <use style="fill-opacity:0;stroke:#2ca02c;stroke-linejoin:miter;" x="302.502451" xlink:href="#m6c61b92077" y="177.209995"/>
     <use style="fill-opacity:0;stroke:#2ca02c;stroke-linejoin:miter;" x="305.325534" xlink:href="#m6c61b92077" y="157.582824"/>
     <use style="fill-opacity:0;stroke:#2ca02c;stroke-linejoin:miter;" x="308.148617" xlink:href="#m6c61b92077" y="185.402123"/>
     <use style="fill-opacity:0;stroke:#2ca02c;stroke-linejoin:miter;" x="310.9717" xlink:href="#m6c61b92077" y="158.66282"/>
     <use style="fill-opacity:0;stroke:#2ca02c;stroke-linejoin:miter;" x="313.794783" xlink:href="#m6c61b92077" y="179.238732"/>
     <use style="fill-opacity:0;stroke:#2ca02c;stroke-linejoin:miter;" x="316.617866" xlink:href="#m6c61b92077" y="166.40615"/>
     <use style="fill-opacity:0;stroke:#2ca02c;stroke-linejoin:miter;" x="319.440949" xlink:href="#m6c61b92077" y="153.849792"/>
     <use style="fill-opacity:0;stroke:#2ca02c;stroke-linejoin:miter;" x="322.264032" xlink:href="#m6c61b92077" y="164.075054"/>
     <use style="fill-opacity:0;stroke:#2ca02c;stroke-linejoin:miter;" x="325.087115" xlink:href="#m6c61b92077" y="162.255492"/>
     <use style="fill-opacity:0;stroke:#2ca02c;stroke-linejoin:miter;" x="327.910198" xlink:href="#m6c61b92077" y="158.297753"/>
     <use style="fill-opacity:0;stroke:#2ca02c;stroke-linejoin:miter;" x="330.733281" xlink:href="#m6c61b92077" y="146.795131"/>
     <use style="fill-opacity:0;stroke:#2ca02c;stroke-linejoin:miter;" x="333.556364" xlink:href="#m6c61b92077" y="162.744833"/>
     <use style="fill-opacity:0;stroke:#2ca02c;stroke-linejoin:miter;" x="336.379447" xlink:href="#m6c61b92077" y="158.289702"/>
     <use style="fill-opacity:0;stroke:#2ca02c;stroke-linejoin:miter;" x="339.20253" xlink:href="#m6c61b92077" y="151.931058"/>
     <use style="fill-opacity:0;stroke:#2ca02c;stroke-linejoin:miter;" x="342.025613" xlink:href="#m6c61b92077" y="145.963343"/>
     <use style="fill-opacity:0;stroke:#2ca02c;stroke-linejoin:miter;" x="344.848696" xlink:href="#m6c61b92077" y="164.468733"/>
     <use style="fill-opacity:0;stroke:#2ca02c;stroke-linejoin:miter;" x="347.671779" xlink:href="#m6c61b92077" y="176.597393"/>
     <use style="fill-opacity:0;stroke:#2ca02c;stroke-linejoin:miter;" x="350.494862" xlink:href="#m6c61b92077" y="166.372787"/>
     <use style="fill-opacity:0;stroke:#2ca02c;stroke-linejoin:miter;" x="353.317945" xlink:href="#m6c61b92077" y="159.942494"/>
     <use style="fill-opacity:0;stroke:#2ca02c;stroke-linejoin:miter;" x="356.141028" xlink:href="#m6c61b92077" y="145.943984"/>
     <use style="fill-opacity:0;stroke:#2ca02c;stroke-linejoin:miter;" x="358.964111" xlink:href="#m6c61b92077" y="172.949126"/>
     <use style="fill-opacity:0;stroke:#2ca02c;stroke-linejoin:miter;" x="361.787194" xlink:href="#m6c61b92077" y="153.928323"/>
     <use style="fill-opacity:0;stroke:#2ca02c;stroke-linejoin:miter;" x="364.610277" xlink:href="#m6c61b92077" y="155.127431"/>
     <use style="fill-opacity:0;stroke:#2ca02c;stroke-linejoin:miter;" x="367.43336" xlink:href="#m6c61b92077" y="154.205673"/>
     <use style="fill-opacity:0;stroke:#2ca02c;stroke-linejoin:miter;" x="370.256443" xlink:href="#m6c61b92077" y="159.456227"/>
     <use style="fill-opacity:0;stroke:#2ca02c;stroke-linejoin:miter;" x="373.079526" xlink:href="#m6c61b92077" y="170.546351"/>
     <use style="fill-opacity:0;stroke:#2ca02c;stroke-linejoin:miter;" x="375.902609" xlink:href="#m6c61b92077" y="151.339837"/>
     <use style="fill-opacity:0;stroke:#2ca02c;stroke-linejoin:miter;" x="378.725692" xlink:href="#m6c61b92077" y="163.854282"/>
     <use style="fill-opacity:0;stroke:#2ca02c;stroke-linejoin:miter;" x="381.548775" xlink:href="#m6c61b92077" y="161.464071"/>
     <use style="fill-opacity:0;stroke:#2ca02c;stroke-linejoin:miter;" x="384.371858" xlink:href="#m6c61b92077" y="144.627752"/>
     <use style="fill-opacity:0;stroke:#2ca02c;stroke-linejoin:miter;" x="387.194941" xlink:href="#m6c61b92077" y="157.170345"/>
     <use style="fill-opacity:0;stroke:#2ca02c;stroke-linejoin:miter;" x="390.018024" xlink:href="#m6c61b92077" y="157.630029"/>
     <use style="fill-opacity:0;stroke:#2ca02c;stroke-linejoin:miter;" x="392.841107" xlink:href="#m6c61b92077" y="158.651633"/>
     <use style="fill-opacity:0;stroke:#2ca02c;stroke-linejoin:miter;" x="395.66419" xlink:href="#m6c61b92077" y="151.080586"/>
     <use style="fill-opacity:0;stroke:#2ca02c;stroke-linejoin:miter;" x="398.487273" xlink:href="#m6c61b92077" y="147.483257"/>
    </g>
   </g>
   <g id="patch_3">
    <path d="M 57.6 307.584 
L 57.6 41.472 
" style="fill:none;stroke:#000000;stroke-linecap:square;stroke-linejoin:miter;stroke-width:0.8;"/>
   </g>
   <g id="patch_4">
    <path d="M 414.72 307.584 
L 414.72 41.472 
" style="fill:none;stroke:#000000;stroke-linecap:square;stroke-linejoin:miter;stroke-width:0.8;"/>
   </g>
   <g id="patch_5">
    <path d="M 57.6 307.584 
L 414.72 307.584 
" style="fill:none;stroke:#000000;stroke-linecap:square;stroke-linejoin:miter;stroke-width:0.8;"/>
   </g>
   <g id="patch_6">
    <path d="M 57.6 41.472 
L 414.72 41.472 
" style="fill:none;stroke:#000000;stroke-linecap:square;stroke-linejoin:miter;stroke-width:0.8;"/>
   </g>
   <g id="text_14">
    <!-- Scenario 3.2 mircc delay -->
    <g transform="translate(161.976562 35.472)scale(0.12 -0.12)">
     <defs>
      <path d="M 3425 4513 
L 3425 3897 
Q 3066 4069 2747 4153 
Q 2428 4238 2131 4238 
Q 1616 4238 1336 4038 
Q 1056 3838 1056 3469 
Q 1056 3159 1242 3001 
Q 1428 2844 1947 2747 
L 2328 2669 
Q 3034 2534 3370 2195 
Q 3706 1856 3706 1288 
Q 3706 609 3251 259 
Q 2797 -91 1919 -91 
Q 1588 -91 1214 -16 
Q 841 59 441 206 
L 441 856 
Q 825 641 1194 531 
Q 1563 422 1919 422 
Q 2459 422 2753 634 
Q 3047 847 3047 1241 
Q 3047 1584 2836 1778 
Q 2625 1972 2144 2069 
L 1759 2144 
Q 1053 2284 737 2584 
Q 422 2884 422 3419 
Q 422 4038 858 4394 
Q 1294 4750 2059 4750 
Q 2388 4750 2728 4690 
Q 3069 4631 3425 4513 
z
" id="DejaVuSans-53" transform="scale(0.015625)"/>
      <path d="M 3122 3366 
L 3122 2828 
Q 2878 2963 2633 3030 
Q 2388 3097 2138 3097 
Q 1578 3097 1268 2742 
Q 959 2388 959 1747 
Q 959 1106 1268 751 
Q 1578 397 2138 397 
Q 2388 397 2633 464 
Q 2878 531 3122 666 
L 3122 134 
Q 2881 22 2623 -34 
Q 2366 -91 2075 -91 
Q 1284 -91 818 406 
Q 353 903 353 1747 
Q 353 2603 823 3093 
Q 1294 3584 2113 3584 
Q 2378 3584 2631 3529 
Q 2884 3475 3122 3366 
z
" id="DejaVuSans-63" transform="scale(0.015625)"/>
      <path d="M 3513 2113 
L 3513 0 
L 2938 0 
L 2938 2094 
Q 2938 2591 2744 2837 
Q 2550 3084 2163 3084 
Q 1697 3084 1428 2787 
Q 1159 2491 1159 1978 
L 1159 0 
L 581 0 
L 581 3500 
L 1159 3500 
L 1159 2956 
Q 1366 3272 1645 3428 
Q 1925 3584 2291 3584 
Q 2894 3584 3203 3211 
Q 3513 2838 3513 2113 
z
" id="DejaVuSans-6e" transform="scale(0.015625)"/>
      <path d="M 2631 2963 
Q 2534 3019 2420 3045 
Q 2306 3072 2169 3072 
Q 1681 3072 1420 2755 
Q 1159 2438 1159 1844 
L 1159 0 
L 581 0 
L 581 3500 
L 1159 3500 
L 1159 2956 
Q 1341 3275 1631 3429 
Q 1922 3584 2338 3584 
Q 2397 3584 2469 3576 
Q 2541 3569 2628 3553 
L 2631 2963 
z
" id="DejaVuSans-72" transform="scale(0.015625)"/>
      <path d="M 1959 3097 
Q 1497 3097 1228 2736 
Q 959 2375 959 1747 
Q 959 1119 1226 758 
Q 1494 397 1959 397 
Q 2419 397 2687 759 
Q 2956 1122 2956 1747 
Q 2956 2369 2687 2733 
Q 2419 3097 1959 3097 
z
M 1959 3584 
Q 2709 3584 3137 3096 
Q 3566 2609 3566 1747 
Q 3566 888 3137 398 
Q 2709 -91 1959 -91 
Q 1206 -91 779 398 
Q 353 888 353 1747 
Q 353 2609 779 3096 
Q 1206 3584 1959 3584 
z
" id="DejaVuSans-6f" transform="scale(0.015625)"/>
      <path id="DejaVuSans-20" transform="scale(0.015625)"/>
      <path d="M 684 794 
L 1344 794 
L 1344 0 
L 684 0 
L 684 794 
z
" id="DejaVuSans-2e" transform="scale(0.015625)"/>
      <path d="M 2906 2969 
L 2906 4863 
L 3481 4863 
L 3481 0 
L 2906 0 
L 2906 525 
Q 2725 213 2448 61 
Q 2172 -91 1784 -91 
Q 1150 -91 751 415 
Q 353 922 353 1747 
Q 353 2572 751 3078 
Q 1150 3584 1784 3584 
Q 2172 3584 2448 3432 
Q 2725 3281 2906 2969 
z
M 947 1747 
Q 947 1113 1208 752 
Q 1469 391 1925 391 
Q 2381 391 2643 752 
Q 2906 1113 2906 1747 
Q 2906 2381 2643 2742 
Q 2381 3103 1925 3103 
Q 1469 3103 1208 2742 
Q 947 2381 947 1747 
z
" id="DejaVuSans-64" transform="scale(0.015625)"/>
     </defs>
     <use xlink:href="#DejaVuSans-53"/>
     <use x="63.476562" xlink:href="#DejaVuSans-63"/>
     <use x="118.457031" xlink:href="#DejaVuSans-65"/>
     <use x="179.980469" xlink:href="#DejaVuSans-6e"/>
     <use x="243.359375" xlink:href="#DejaVuSans-61"/>
     <use x="304.638672" xlink:href="#DejaVuSans-72"/>
     <use x="345.751953" xlink:href="#DejaVuSans-69"/>
     <use x="373.535156" xlink:href="#DejaVuSans-6f"/>
     <use x="434.716797" xlink:href="#DejaVuSans-20"/>
     <use x="466.503906" xlink:href="#DejaVuSans-33"/>
     <use x="530.126953" xlink:href="#DejaVuSans-2e"/>
     <use x="561.914062" xlink:href="#DejaVuSans-32"/>
     <use x="625.537109" xlink:href="#DejaVuSans-20"/>
     <use x="657.324219" xlink:href="#DejaVuSans-6d"/>
     <use x="754.736328" xlink:href="#DejaVuSans-69"/>
     <use x="782.519531" xlink:href="#DejaVuSans-72"/>
     <use x="821.382812" xlink:href="#DejaVuSans-63"/>
     <use x="876.363281" xlink:href="#DejaVuSans-63"/>
     <use x="931.34375" xlink:href="#DejaVuSans-20"/>
     <use x="963.130859" xlink:href="#DejaVuSans-64"/>
     <use x="1026.607422" xlink:href="#DejaVuSans-65"/>
     <use x="1088.130859" xlink:href="#DejaVuSans-6c"/>
     <use x="1115.914062" xlink:href="#DejaVuSans-61"/>
     <use x="1177.193359" xlink:href="#DejaVuSans-79"/>
    </g>
   </g>
   <g id="legend_1">
    <g id="patch_7">
     <path d="M 362.374688 93.506375 
L 407.72 93.506375 
Q 409.72 93.506375 409.72 91.506375 
L 409.72 48.472 
Q 409.72 46.472 407.72 46.472 
L 362.374688 46.472 
Q 360.374688 46.472 360.374688 48.472 
L 360.374688 91.506375 
Q 360.374688 93.506375 362.374688 93.506375 
z
" style="fill:#ffffff;opacity:0.8;stroke:#cccccc;stroke-linejoin:miter;"/>
    </g>
    <g id="line2d_15">
     <path d="M 364.374688 54.570438 
L 384.374688 54.570438 
" style="fill:none;stroke:#1f77b4;stroke-dasharray:2,3.3;stroke-dashoffset:0;stroke-width:2;"/>
    </g>
    <g id="line2d_16">
     <g>
      <use style="fill-opacity:0;stroke:#1f77b4;" x="374.374688" xlink:href="#m4b0baebe44" y="54.570438"/>
     </g>
    </g>
    <g id="text_15">
     <!-- C1 -->
     <g transform="translate(392.374688 58.070438)scale(0.1 -0.1)">
      <defs>
       <path d="M 4122 4306 
L 4122 3641 
Q 3803 3938 3442 4084 
Q 3081 4231 2675 4231 
Q 1875 4231 1450 3742 
Q 1025 3253 1025 2328 
Q 1025 1406 1450 917 
Q 1875 428 2675 428 
Q 3081 428 3442 575 
Q 3803 722 4122 1019 
L 4122 359 
Q 3791 134 3420 21 
Q 3050 -91 2638 -91 
Q 1578 -91 968 557 
Q 359 1206 359 2328 
Q 359 3453 968 4101 
Q 1578 4750 2638 4750 
Q 3056 4750 3426 4639 
Q 3797 4528 4122 4306 
z
" id="DejaVuSans-43" transform="scale(0.015625)"/>
      </defs>
      <use xlink:href="#DejaVuSans-43"/>
      <use x="69.824219" xlink:href="#DejaVuSans-31"/>
     </g>
    </g>
    <g id="line2d_17">
     <path d="M 364.374688 69.248563 
L 384.374688 69.248563 
" style="fill:none;stroke:#ff7f0e;stroke-dasharray:2,3.3;stroke-dashoffset:0;stroke-width:2;"/>
    </g>
    <g id="line2d_18">
     <g>
      <use style="fill-opacity:0;stroke:#ff7f0e;stroke-linejoin:miter;" x="374.374688" xlink:href="#m3212a1253a" y="69.248563"/>
     </g>
    </g>
    <g id="text_16">
     <!-- C2 -->
     <g transform="translate(392.374688 72.748563)scale(0.1 -0.1)">
      <use xlink:href="#DejaVuSans-43"/>
      <use x="69.824219" xlink:href="#DejaVuSans-32"/>
     </g>
    </g>
    <g id="line2d_19">
     <path d="M 364.374688 83.926688 
L 384.374688 83.926688 
" style="fill:none;stroke:#2ca02c;stroke-dasharray:2,3.3;stroke-dashoffset:0;stroke-width:2;"/>
    </g>
    <g id="line2d_20">
     <g>
      <use style="fill-opacity:0;stroke:#2ca02c;stroke-linejoin:miter;" x="374.374688" xlink:href="#m6c61b92077" y="83.926688"/>
     </g>
    </g>
    <g id="text_17">
     <!-- C3 -->
     <g transform="translate(392.374688 87.426688)scale(0.1 -0.1)">
      <use xlink:href="#DejaVuSans-43"/>
      <use x="69.824219" xlink:href="#DejaVuSans-33"/>
     </g>
    </g>
   </g>
  </g>
 </g>
 <defs>
  <clipPath id="pae6f4ef901">
   <rect height="266.112" width="357.12" x="57.6" y="41.472"/>
  </clipPath>
 </defs>
</svg>
