<?xml version="1.0" encoding="utf-8" standalone="no"?>
<!DOCTYPE svg PUBLIC "-//W3C//DTD SVG 1.1//EN"
  "http://www.w3.org/Graphics/SVG/1.1/DTD/svg11.dtd">
<svg height="345.6pt" version="1.1" viewBox="0 0 460.8 345.6" width="460.8pt" xmlns="http://www.w3.org/2000/svg" xmlns:xlink="http://www.w3.org/1999/xlink">
 <metadata>
  <rdf:RDF xmlns:cc="http://creativecommons.org/ns#" xmlns:dc="http://purl.org/dc/elements/1.1/" xmlns:rdf="http://www.w3.org/1999/02/22-rdf-syntax-ns#">
   <cc:Work>
    <dc:type rdf:resource="http://purl.org/dc/dcmitype/StillImage"/>
    <dc:date>2022-08-11T22:25:31.860843</dc:date>
    <dc:format>image/svg+xml</dc:format>
    <dc:creator>
     <cc:Agent>
      <dc:title>Matplotlib v3.4.3, https://matplotlib.org/</dc:title>
     </cc:Agent>
    </dc:creator>
   </cc:Work>
  </rdf:RDF>
 </metadata>
 <defs>
  <style type="text/css">*{stroke-linecap:butt;stroke-linejoin:round;}</style>
 </defs>
 <g id="figure_1">
  <g id="patch_1">
   <path d="M 0 345.6 
L 460.8 345.6 
L 460.8 0 
L 0 0 
z
" style="fill:#ffffff;"/>
  </g>
  <g id="axes_1">
   <g id="patch_2">
    <path d="M 57.6 307.584 
L 414.72 307.584 
L 414.72 41.472 
L 57.6 41.472 
z
" style="fill:#ffffff;"/>
   </g>
   <g id="matplotlib.axis_1">
    <g id="xtick_1">
     <g id="line2d_1">
      <defs>
       <path d="M 0 0 
L 0 3.5 
" id="m6dffb6c133" style="stroke:#000000;stroke-width:0.8;"/>
      </defs>
      <g>
       <use style="stroke:#000000;stroke-width:0.8;" x="70.225455" xlink:href="#m6dffb6c133" y="307.584"/>
      </g>
     </g>
     <g id="text_1">
      <!-- 0 -->
      <g transform="translate(67.044205 322.182437)scale(0.1 -0.1)">
       <defs>
        <path d="M 2034 4250 
Q 1547 4250 1301 3770 
Q 1056 3291 1056 2328 
Q 1056 1369 1301 889 
Q 1547 409 2034 409 
Q 2525 409 2770 889 
Q 3016 1369 3016 2328 
Q 3016 3291 2770 3770 
Q 2525 4250 2034 4250 
z
M 2034 4750 
Q 2819 4750 3233 4129 
Q 3647 3509 3647 2328 
Q 3647 1150 3233 529 
Q 2819 -91 2034 -91 
Q 1250 -91 836 529 
Q 422 1150 422 2328 
Q 422 3509 836 4129 
Q 1250 4750 2034 4750 
z
" id="DejaVuSans-30" transform="scale(0.015625)"/>
       </defs>
       <use xlink:href="#DejaVuSans-30"/>
      </g>
     </g>
    </g>
    <g id="xtick_2">
     <g id="line2d_2">
      <g>
       <use style="stroke:#000000;stroke-width:0.8;" x="115.316364" xlink:href="#m6dffb6c133" y="307.584"/>
      </g>
     </g>
     <g id="text_2">
      <!-- 25 -->
      <g transform="translate(108.953864 322.182437)scale(0.1 -0.1)">
       <defs>
        <path d="M 1228 531 
L 3431 531 
L 3431 0 
L 469 0 
L 469 531 
Q 828 903 1448 1529 
Q 2069 2156 2228 2338 
Q 2531 2678 2651 2914 
Q 2772 3150 2772 3378 
Q 2772 3750 2511 3984 
Q 2250 4219 1831 4219 
Q 1534 4219 1204 4116 
Q 875 4013 500 3803 
L 500 4441 
Q 881 4594 1212 4672 
Q 1544 4750 1819 4750 
Q 2544 4750 2975 4387 
Q 3406 4025 3406 3419 
Q 3406 3131 3298 2873 
Q 3191 2616 2906 2266 
Q 2828 2175 2409 1742 
Q 1991 1309 1228 531 
z
" id="DejaVuSans-32" transform="scale(0.015625)"/>
        <path d="M 691 4666 
L 3169 4666 
L 3169 4134 
L 1269 4134 
L 1269 2991 
Q 1406 3038 1543 3061 
Q 1681 3084 1819 3084 
Q 2600 3084 3056 2656 
Q 3513 2228 3513 1497 
Q 3513 744 3044 326 
Q 2575 -91 1722 -91 
Q 1428 -91 1123 -41 
Q 819 9 494 109 
L 494 744 
Q 775 591 1075 516 
Q 1375 441 1709 441 
Q 2250 441 2565 725 
Q 2881 1009 2881 1497 
Q 2881 1984 2565 2268 
Q 2250 2553 1709 2553 
Q 1456 2553 1204 2497 
Q 953 2441 691 2322 
L 691 4666 
z
" id="DejaVuSans-35" transform="scale(0.015625)"/>
       </defs>
       <use xlink:href="#DejaVuSans-32"/>
       <use x="63.623047" xlink:href="#DejaVuSans-35"/>
      </g>
     </g>
    </g>
    <g id="xtick_3">
     <g id="line2d_3">
      <g>
       <use style="stroke:#000000;stroke-width:0.8;" x="160.407273" xlink:href="#m6dffb6c133" y="307.584"/>
      </g>
     </g>
     <g id="text_3">
      <!-- 50 -->
      <g transform="translate(154.044773 322.182437)scale(0.1 -0.1)">
       <use xlink:href="#DejaVuSans-35"/>
       <use x="63.623047" xlink:href="#DejaVuSans-30"/>
      </g>
     </g>
    </g>
    <g id="xtick_4">
     <g id="line2d_4">
      <g>
       <use style="stroke:#000000;stroke-width:0.8;" x="205.498182" xlink:href="#m6dffb6c133" y="307.584"/>
      </g>
     </g>
     <g id="text_4">
      <!-- 75 -->
      <g transform="translate(199.135682 322.182437)scale(0.1 -0.1)">
       <defs>
        <path d="M 525 4666 
L 3525 4666 
L 3525 4397 
L 1831 0 
L 1172 0 
L 2766 4134 
L 525 4134 
L 525 4666 
z
" id="DejaVuSans-37" transform="scale(0.015625)"/>
       </defs>
       <use xlink:href="#DejaVuSans-37"/>
       <use x="63.623047" xlink:href="#DejaVuSans-35"/>
      </g>
     </g>
    </g>
    <g id="xtick_5">
     <g id="line2d_5">
      <g>
       <use style="stroke:#000000;stroke-width:0.8;" x="250.589091" xlink:href="#m6dffb6c133" y="307.584"/>
      </g>
     </g>
     <g id="text_5">
      <!-- 100 -->
      <g transform="translate(241.045341 322.182437)scale(0.1 -0.1)">
       <defs>
        <path d="M 794 531 
L 1825 531 
L 1825 4091 
L 703 3866 
L 703 4441 
L 1819 4666 
L 2450 4666 
L 2450 531 
L 3481 531 
L 3481 0 
L 794 0 
L 794 531 
z
" id="DejaVuSans-31" transform="scale(0.015625)"/>
       </defs>
       <use xlink:href="#DejaVuSans-31"/>
       <use x="63.623047" xlink:href="#DejaVuSans-30"/>
       <use x="127.246094" xlink:href="#DejaVuSans-30"/>
      </g>
     </g>
    </g>
    <g id="xtick_6">
     <g id="line2d_6">
      <g>
       <use style="stroke:#000000;stroke-width:0.8;" x="295.68" xlink:href="#m6dffb6c133" y="307.584"/>
      </g>
     </g>
     <g id="text_6">
      <!-- 125 -->
      <g transform="translate(286.13625 322.182437)scale(0.1 -0.1)">
       <use xlink:href="#DejaVuSans-31"/>
       <use x="63.623047" xlink:href="#DejaVuSans-32"/>
       <use x="127.246094" xlink:href="#DejaVuSans-35"/>
      </g>
     </g>
    </g>
    <g id="xtick_7">
     <g id="line2d_7">
      <g>
       <use style="stroke:#000000;stroke-width:0.8;" x="340.770909" xlink:href="#m6dffb6c133" y="307.584"/>
      </g>
     </g>
     <g id="text_7">
      <!-- 150 -->
      <g transform="translate(331.227159 322.182437)scale(0.1 -0.1)">
       <use xlink:href="#DejaVuSans-31"/>
       <use x="63.623047" xlink:href="#DejaVuSans-35"/>
       <use x="127.246094" xlink:href="#DejaVuSans-30"/>
      </g>
     </g>
    </g>
    <g id="xtick_8">
     <g id="line2d_8">
      <g>
       <use style="stroke:#000000;stroke-width:0.8;" x="385.861818" xlink:href="#m6dffb6c133" y="307.584"/>
      </g>
     </g>
     <g id="text_8">
      <!-- 175 -->
      <g transform="translate(376.318068 322.182437)scale(0.1 -0.1)">
       <use xlink:href="#DejaVuSans-31"/>
       <use x="63.623047" xlink:href="#DejaVuSans-37"/>
       <use x="127.246094" xlink:href="#DejaVuSans-35"/>
      </g>
     </g>
    </g>
    <g id="text_9">
     <!-- Times(s) -->
     <g transform="translate(214.815469 335.860562)scale(0.1 -0.1)">
      <defs>
       <path d="M -19 4666 
L 3928 4666 
L 3928 4134 
L 2272 4134 
L 2272 0 
L 1638 0 
L 1638 4134 
L -19 4134 
L -19 4666 
z
" id="DejaVuSans-54" transform="scale(0.015625)"/>
       <path d="M 603 3500 
L 1178 3500 
L 1178 0 
L 603 0 
L 603 3500 
z
M 603 4863 
L 1178 4863 
L 1178 4134 
L 603 4134 
L 603 4863 
z
" id="DejaVuSans-69" transform="scale(0.015625)"/>
       <path d="M 3328 2828 
Q 3544 3216 3844 3400 
Q 4144 3584 4550 3584 
Q 5097 3584 5394 3201 
Q 5691 2819 5691 2113 
L 5691 0 
L 5113 0 
L 5113 2094 
Q 5113 2597 4934 2840 
Q 4756 3084 4391 3084 
Q 3944 3084 3684 2787 
Q 3425 2491 3425 1978 
L 3425 0 
L 2847 0 
L 2847 2094 
Q 2847 2600 2669 2842 
Q 2491 3084 2119 3084 
Q 1678 3084 1418 2786 
Q 1159 2488 1159 1978 
L 1159 0 
L 581 0 
L 581 3500 
L 1159 3500 
L 1159 2956 
Q 1356 3278 1631 3431 
Q 1906 3584 2284 3584 
Q 2666 3584 2933 3390 
Q 3200 3197 3328 2828 
z
" id="DejaVuSans-6d" transform="scale(0.015625)"/>
       <path d="M 3597 1894 
L 3597 1613 
L 953 1613 
Q 991 1019 1311 708 
Q 1631 397 2203 397 
Q 2534 397 2845 478 
Q 3156 559 3463 722 
L 3463 178 
Q 3153 47 2828 -22 
Q 2503 -91 2169 -91 
Q 1331 -91 842 396 
Q 353 884 353 1716 
Q 353 2575 817 3079 
Q 1281 3584 2069 3584 
Q 2775 3584 3186 3129 
Q 3597 2675 3597 1894 
z
M 3022 2063 
Q 3016 2534 2758 2815 
Q 2500 3097 2075 3097 
Q 1594 3097 1305 2825 
Q 1016 2553 972 2059 
L 3022 2063 
z
" id="DejaVuSans-65" transform="scale(0.015625)"/>
       <path d="M 2834 3397 
L 2834 2853 
Q 2591 2978 2328 3040 
Q 2066 3103 1784 3103 
Q 1356 3103 1142 2972 
Q 928 2841 928 2578 
Q 928 2378 1081 2264 
Q 1234 2150 1697 2047 
L 1894 2003 
Q 2506 1872 2764 1633 
Q 3022 1394 3022 966 
Q 3022 478 2636 193 
Q 2250 -91 1575 -91 
Q 1294 -91 989 -36 
Q 684 19 347 128 
L 347 722 
Q 666 556 975 473 
Q 1284 391 1588 391 
Q 1994 391 2212 530 
Q 2431 669 2431 922 
Q 2431 1156 2273 1281 
Q 2116 1406 1581 1522 
L 1381 1569 
Q 847 1681 609 1914 
Q 372 2147 372 2553 
Q 372 3047 722 3315 
Q 1072 3584 1716 3584 
Q 2034 3584 2315 3537 
Q 2597 3491 2834 3397 
z
" id="DejaVuSans-73" transform="scale(0.015625)"/>
       <path d="M 1984 4856 
Q 1566 4138 1362 3434 
Q 1159 2731 1159 2009 
Q 1159 1288 1364 580 
Q 1569 -128 1984 -844 
L 1484 -844 
Q 1016 -109 783 600 
Q 550 1309 550 2009 
Q 550 2706 781 3412 
Q 1013 4119 1484 4856 
L 1984 4856 
z
" id="DejaVuSans-28" transform="scale(0.015625)"/>
       <path d="M 513 4856 
L 1013 4856 
Q 1481 4119 1714 3412 
Q 1947 2706 1947 2009 
Q 1947 1309 1714 600 
Q 1481 -109 1013 -844 
L 513 -844 
Q 928 -128 1133 580 
Q 1338 1288 1338 2009 
Q 1338 2731 1133 3434 
Q 928 4138 513 4856 
z
" id="DejaVuSans-29" transform="scale(0.015625)"/>
      </defs>
      <use xlink:href="#DejaVuSans-54"/>
      <use x="57.958984" xlink:href="#DejaVuSans-69"/>
      <use x="85.742188" xlink:href="#DejaVuSans-6d"/>
      <use x="183.154297" xlink:href="#DejaVuSans-65"/>
      <use x="244.677734" xlink:href="#DejaVuSans-73"/>
      <use x="296.777344" xlink:href="#DejaVuSans-28"/>
      <use x="335.791016" xlink:href="#DejaVuSans-73"/>
      <use x="387.890625" xlink:href="#DejaVuSans-29"/>
     </g>
    </g>
   </g>
   <g id="matplotlib.axis_2">
    <g id="ytick_1">
     <g id="line2d_9">
      <defs>
       <path d="M 0 0 
L -3.5 0 
" id="md93df0ae6a" style="stroke:#000000;stroke-width:0.8;"/>
      </defs>
      <g>
       <use style="stroke:#000000;stroke-width:0.8;" x="57.6" xlink:href="#md93df0ae6a" y="275.671441"/>
      </g>
     </g>
     <g id="text_10">
      <!-- 120 -->
      <g transform="translate(31.5125 279.47066)scale(0.1 -0.1)">
       <use xlink:href="#DejaVuSans-31"/>
       <use x="63.623047" xlink:href="#DejaVuSans-32"/>
       <use x="127.246094" xlink:href="#DejaVuSans-30"/>
      </g>
     </g>
    </g>
    <g id="ytick_2">
     <g id="line2d_10">
      <g>
       <use style="stroke:#000000;stroke-width:0.8;" x="57.6" xlink:href="#md93df0ae6a" y="240.432309"/>
      </g>
     </g>
     <g id="text_11">
      <!-- 140 -->
      <g transform="translate(31.5125 244.231527)scale(0.1 -0.1)">
       <defs>
        <path d="M 2419 4116 
L 825 1625 
L 2419 1625 
L 2419 4116 
z
M 2253 4666 
L 3047 4666 
L 3047 1625 
L 3713 1625 
L 3713 1100 
L 3047 1100 
L 3047 0 
L 2419 0 
L 2419 1100 
L 313 1100 
L 313 1709 
L 2253 4666 
z
" id="DejaVuSans-34" transform="scale(0.015625)"/>
       </defs>
       <use xlink:href="#DejaVuSans-31"/>
       <use x="63.623047" xlink:href="#DejaVuSans-34"/>
       <use x="127.246094" xlink:href="#DejaVuSans-30"/>
      </g>
     </g>
    </g>
    <g id="ytick_3">
     <g id="line2d_11">
      <g>
       <use style="stroke:#000000;stroke-width:0.8;" x="57.6" xlink:href="#md93df0ae6a" y="205.193176"/>
      </g>
     </g>
     <g id="text_12">
      <!-- 160 -->
      <g transform="translate(31.5125 208.992395)scale(0.1 -0.1)">
       <defs>
        <path d="M 2113 2584 
Q 1688 2584 1439 2293 
Q 1191 2003 1191 1497 
Q 1191 994 1439 701 
Q 1688 409 2113 409 
Q 2538 409 2786 701 
Q 3034 994 3034 1497 
Q 3034 2003 2786 2293 
Q 2538 2584 2113 2584 
z
M 3366 4563 
L 3366 3988 
Q 3128 4100 2886 4159 
Q 2644 4219 2406 4219 
Q 1781 4219 1451 3797 
Q 1122 3375 1075 2522 
Q 1259 2794 1537 2939 
Q 1816 3084 2150 3084 
Q 2853 3084 3261 2657 
Q 3669 2231 3669 1497 
Q 3669 778 3244 343 
Q 2819 -91 2113 -91 
Q 1303 -91 875 529 
Q 447 1150 447 2328 
Q 447 3434 972 4092 
Q 1497 4750 2381 4750 
Q 2619 4750 2861 4703 
Q 3103 4656 3366 4563 
z
" id="DejaVuSans-36" transform="scale(0.015625)"/>
       </defs>
       <use xlink:href="#DejaVuSans-31"/>
       <use x="63.623047" xlink:href="#DejaVuSans-36"/>
       <use x="127.246094" xlink:href="#DejaVuSans-30"/>
      </g>
     </g>
    </g>
    <g id="ytick_4">
     <g id="line2d_12">
      <g>
       <use style="stroke:#000000;stroke-width:0.8;" x="57.6" xlink:href="#md93df0ae6a" y="169.954044"/>
      </g>
     </g>
     <g id="text_13">
      <!-- 180 -->
      <g transform="translate(31.5125 173.753263)scale(0.1 -0.1)">
       <defs>
        <path d="M 2034 2216 
Q 1584 2216 1326 1975 
Q 1069 1734 1069 1313 
Q 1069 891 1326 650 
Q 1584 409 2034 409 
Q 2484 409 2743 651 
Q 3003 894 3003 1313 
Q 3003 1734 2745 1975 
Q 2488 2216 2034 2216 
z
M 1403 2484 
Q 997 2584 770 2862 
Q 544 3141 544 3541 
Q 544 4100 942 4425 
Q 1341 4750 2034 4750 
Q 2731 4750 3128 4425 
Q 3525 4100 3525 3541 
Q 3525 3141 3298 2862 
Q 3072 2584 2669 2484 
Q 3125 2378 3379 2068 
Q 3634 1759 3634 1313 
Q 3634 634 3220 271 
Q 2806 -91 2034 -91 
Q 1263 -91 848 271 
Q 434 634 434 1313 
Q 434 1759 690 2068 
Q 947 2378 1403 2484 
z
M 1172 3481 
Q 1172 3119 1398 2916 
Q 1625 2713 2034 2713 
Q 2441 2713 2670 2916 
Q 2900 3119 2900 3481 
Q 2900 3844 2670 4047 
Q 2441 4250 2034 4250 
Q 1625 4250 1398 4047 
Q 1172 3844 1172 3481 
z
" id="DejaVuSans-38" transform="scale(0.015625)"/>
       </defs>
       <use xlink:href="#DejaVuSans-31"/>
       <use x="63.623047" xlink:href="#DejaVuSans-38"/>
       <use x="127.246094" xlink:href="#DejaVuSans-30"/>
      </g>
     </g>
    </g>
    <g id="ytick_5">
     <g id="line2d_13">
      <g>
       <use style="stroke:#000000;stroke-width:0.8;" x="57.6" xlink:href="#md93df0ae6a" y="134.714912"/>
      </g>
     </g>
     <g id="text_14">
      <!-- 200 -->
      <g transform="translate(31.5125 138.514131)scale(0.1 -0.1)">
       <use xlink:href="#DejaVuSans-32"/>
       <use x="63.623047" xlink:href="#DejaVuSans-30"/>
       <use x="127.246094" xlink:href="#DejaVuSans-30"/>
      </g>
     </g>
    </g>
    <g id="ytick_6">
     <g id="line2d_14">
      <g>
       <use style="stroke:#000000;stroke-width:0.8;" x="57.6" xlink:href="#md93df0ae6a" y="99.47578"/>
      </g>
     </g>
     <g id="text_15">
      <!-- 220 -->
      <g transform="translate(31.5125 103.274998)scale(0.1 -0.1)">
       <use xlink:href="#DejaVuSans-32"/>
       <use x="63.623047" xlink:href="#DejaVuSans-32"/>
       <use x="127.246094" xlink:href="#DejaVuSans-30"/>
      </g>
     </g>
    </g>
    <g id="ytick_7">
     <g id="line2d_15">
      <g>
       <use style="stroke:#000000;stroke-width:0.8;" x="57.6" xlink:href="#md93df0ae6a" y="64.236647"/>
      </g>
     </g>
     <g id="text_16">
      <!-- 240 -->
      <g transform="translate(31.5125 68.035866)scale(0.1 -0.1)">
       <use xlink:href="#DejaVuSans-32"/>
       <use x="63.623047" xlink:href="#DejaVuSans-34"/>
       <use x="127.246094" xlink:href="#DejaVuSans-30"/>
      </g>
     </g>
    </g>
    <g id="text_17">
     <!-- Delay(ms) -->
     <g transform="translate(25.432812 200.243625)rotate(-90)scale(0.1 -0.1)">
      <defs>
       <path d="M 1259 4147 
L 1259 519 
L 2022 519 
Q 2988 519 3436 956 
Q 3884 1394 3884 2338 
Q 3884 3275 3436 3711 
Q 2988 4147 2022 4147 
L 1259 4147 
z
M 628 4666 
L 1925 4666 
Q 3281 4666 3915 4102 
Q 4550 3538 4550 2338 
Q 4550 1131 3912 565 
Q 3275 0 1925 0 
L 628 0 
L 628 4666 
z
" id="DejaVuSans-44" transform="scale(0.015625)"/>
       <path d="M 603 4863 
L 1178 4863 
L 1178 0 
L 603 0 
L 603 4863 
z
" id="DejaVuSans-6c" transform="scale(0.015625)"/>
       <path d="M 2194 1759 
Q 1497 1759 1228 1600 
Q 959 1441 959 1056 
Q 959 750 1161 570 
Q 1363 391 1709 391 
Q 2188 391 2477 730 
Q 2766 1069 2766 1631 
L 2766 1759 
L 2194 1759 
z
M 3341 1997 
L 3341 0 
L 2766 0 
L 2766 531 
Q 2569 213 2275 61 
Q 1981 -91 1556 -91 
Q 1019 -91 701 211 
Q 384 513 384 1019 
Q 384 1609 779 1909 
Q 1175 2209 1959 2209 
L 2766 2209 
L 2766 2266 
Q 2766 2663 2505 2880 
Q 2244 3097 1772 3097 
Q 1472 3097 1187 3025 
Q 903 2953 641 2809 
L 641 3341 
Q 956 3463 1253 3523 
Q 1550 3584 1831 3584 
Q 2591 3584 2966 3190 
Q 3341 2797 3341 1997 
z
" id="DejaVuSans-61" transform="scale(0.015625)"/>
       <path d="M 2059 -325 
Q 1816 -950 1584 -1140 
Q 1353 -1331 966 -1331 
L 506 -1331 
L 506 -850 
L 844 -850 
Q 1081 -850 1212 -737 
Q 1344 -625 1503 -206 
L 1606 56 
L 191 3500 
L 800 3500 
L 1894 763 
L 2988 3500 
L 3597 3500 
L 2059 -325 
z
" id="DejaVuSans-79" transform="scale(0.015625)"/>
      </defs>
      <use xlink:href="#DejaVuSans-44"/>
      <use x="77.001953" xlink:href="#DejaVuSans-65"/>
      <use x="138.525391" xlink:href="#DejaVuSans-6c"/>
      <use x="166.308594" xlink:href="#DejaVuSans-61"/>
      <use x="227.587891" xlink:href="#DejaVuSans-79"/>
      <use x="286.767578" xlink:href="#DejaVuSans-28"/>
      <use x="325.78125" xlink:href="#DejaVuSans-6d"/>
      <use x="423.193359" xlink:href="#DejaVuSans-73"/>
      <use x="475.292969" xlink:href="#DejaVuSans-29"/>
     </g>
    </g>
   </g>
   <g id="line2d_16">
    <path clip-path="url(#p27cb2d2084)" d="M 73.832727 188.08266 
L 77.44 232.242125 
L 81.047273 284.257939 
L 84.654545 251.739539 
L 88.261818 289.65946 
L 91.869091 272.464892 
L 95.476364 281.046248 
L 99.083636 295.488 
L 102.690909 273.349272 
L 106.298182 287.075912 
L 109.905455 260.32307 
L 113.512727 293.008052 
L 117.12 273.084332 
L 120.727273 284.898713 
L 124.334545 272.786816 
L 127.941818 289.083709 
L 131.549091 291.773115 
L 135.156364 270.301177 
L 138.763636 289.137566 
L 142.370909 270.089924 
L 145.978182 288.363789 
L 149.585455 285.929411 
L 153.192727 265.805029 
L 156.8 270.509127 
L 160.407273 267.155438 
L 164.014545 282.274561 
L 167.621818 270.459116 
L 171.229091 276.228202 
L 174.836364 262.08853 
L 178.443636 275.419296 
L 182.050909 277.845603 
L 185.658182 278.068359 
L 189.265455 271.942676 
L 192.872727 272.414514 
L 196.48 275.023006 
L 200.087273 261.448367 
L 203.694545 260.089784 
L 207.301818 257.410049 
L 210.909091 260.576695 
L 214.516364 247.352081 
L 218.123636 262.984359 
L 221.730909 261.569447 
L 225.338182 260.936893 
L 228.945455 256.536712 
L 232.552727 260.4929 
L 236.16 259.828056 
L 239.767273 260.266609 
L 243.374545 262.023948 
L 246.981818 260.940273 
L 250.589091 259.73412 
L 254.196364 261.386532 
L 257.803636 261.275189 
L 261.410909 263.720144 
L 265.018182 260.305502 
L 268.625455 257.066236 
L 272.232727 263.26041 
L 275.84 261.62617 
L 279.447273 259.035701 
L 283.054545 260.530344 
L 286.661818 263.296504 
L 290.269091 257.930489 
L 293.876364 255.434572 
L 297.483636 260.023074 
L 301.090909 255.792677 
L 304.698182 258.472241 
L 308.305455 257.191999 
L 311.912727 258.561356 
L 315.52 265.087757 
L 319.127273 257.244733 
L 322.734545 256.600421 
L 326.341818 257.822084 
L 329.949091 259.531579 
L 333.556364 257.367525 
L 337.163636 256.251865 
L 340.770909 256.154472 
L 344.378182 223.647064 
L 347.985455 215.246321 
L 351.592727 227.012697 
L 355.2 215.706423 
L 358.807273 208.787863 
L 362.414545 225.751398 
L 366.021818 217.603234 
L 369.629091 206.3105 
L 373.236364 220.961131 
L 376.843636 211.100065 
L 380.450909 222.062527 
L 384.058182 228.169717 
L 387.665455 201.717364 
L 391.272727 235.535074 
L 394.88 234.812703 
L 398.487273 220.122269 
" style="fill:none;stroke:#1f77b4;stroke-dasharray:2,3.3;stroke-dashoffset:0;stroke-width:2;"/>
    <defs>
     <path d="M 0 3 
C 0.795609 3 1.55874 2.683901 2.12132 2.12132 
C 2.683901 1.55874 3 0.795609 3 0 
C 3 -0.795609 2.683901 -1.55874 2.12132 -2.12132 
C 1.55874 -2.683901 0.795609 -3 0 -3 
C -0.795609 -3 -1.55874 -2.683901 -2.12132 -2.12132 
C -2.683901 -1.55874 -3 -0.795609 -3 0 
C -3 0.795609 -2.683901 1.55874 -2.12132 2.12132 
C -1.55874 2.683901 -0.795609 3 0 3 
z
" id="maa6dc397ac" style="stroke:#1f77b4;"/>
    </defs>
    <g clip-path="url(#p27cb2d2084)">
     <use style="fill-opacity:0;stroke:#1f77b4;" x="73.832727" xlink:href="#maa6dc397ac" y="188.08266"/>
     <use style="fill-opacity:0;stroke:#1f77b4;" x="77.44" xlink:href="#maa6dc397ac" y="232.242125"/>
     <use style="fill-opacity:0;stroke:#1f77b4;" x="81.047273" xlink:href="#maa6dc397ac" y="284.257939"/>
     <use style="fill-opacity:0;stroke:#1f77b4;" x="84.654545" xlink:href="#maa6dc397ac" y="251.739539"/>
     <use style="fill-opacity:0;stroke:#1f77b4;" x="88.261818" xlink:href="#maa6dc397ac" y="289.65946"/>
     <use style="fill-opacity:0;stroke:#1f77b4;" x="91.869091" xlink:href="#maa6dc397ac" y="272.464892"/>
     <use style="fill-opacity:0;stroke:#1f77b4;" x="95.476364" xlink:href="#maa6dc397ac" y="281.046248"/>
     <use style="fill-opacity:0;stroke:#1f77b4;" x="99.083636" xlink:href="#maa6dc397ac" y="295.488"/>
     <use style="fill-opacity:0;stroke:#1f77b4;" x="102.690909" xlink:href="#maa6dc397ac" y="273.349272"/>
     <use style="fill-opacity:0;stroke:#1f77b4;" x="106.298182" xlink:href="#maa6dc397ac" y="287.075912"/>
     <use style="fill-opacity:0;stroke:#1f77b4;" x="109.905455" xlink:href="#maa6dc397ac" y="260.32307"/>
     <use style="fill-opacity:0;stroke:#1f77b4;" x="113.512727" xlink:href="#maa6dc397ac" y="293.008052"/>
     <use style="fill-opacity:0;stroke:#1f77b4;" x="117.12" xlink:href="#maa6dc397ac" y="273.084332"/>
     <use style="fill-opacity:0;stroke:#1f77b4;" x="120.727273" xlink:href="#maa6dc397ac" y="284.898713"/>
     <use style="fill-opacity:0;stroke:#1f77b4;" x="124.334545" xlink:href="#maa6dc397ac" y="272.786816"/>
     <use style="fill-opacity:0;stroke:#1f77b4;" x="127.941818" xlink:href="#maa6dc397ac" y="289.083709"/>
     <use style="fill-opacity:0;stroke:#1f77b4;" x="131.549091" xlink:href="#maa6dc397ac" y="291.773115"/>
     <use style="fill-opacity:0;stroke:#1f77b4;" x="135.156364" xlink:href="#maa6dc397ac" y="270.301177"/>
     <use style="fill-opacity:0;stroke:#1f77b4;" x="138.763636" xlink:href="#maa6dc397ac" y="289.137566"/>
     <use style="fill-opacity:0;stroke:#1f77b4;" x="142.370909" xlink:href="#maa6dc397ac" y="270.089924"/>
     <use style="fill-opacity:0;stroke:#1f77b4;" x="145.978182" xlink:href="#maa6dc397ac" y="288.363789"/>
     <use style="fill-opacity:0;stroke:#1f77b4;" x="149.585455" xlink:href="#maa6dc397ac" y="285.929411"/>
     <use style="fill-opacity:0;stroke:#1f77b4;" x="153.192727" xlink:href="#maa6dc397ac" y="265.805029"/>
     <use style="fill-opacity:0;stroke:#1f77b4;" x="156.8" xlink:href="#maa6dc397ac" y="270.509127"/>
     <use style="fill-opacity:0;stroke:#1f77b4;" x="160.407273" xlink:href="#maa6dc397ac" y="267.155438"/>
     <use style="fill-opacity:0;stroke:#1f77b4;" x="164.014545" xlink:href="#maa6dc397ac" y="282.274561"/>
     <use style="fill-opacity:0;stroke:#1f77b4;" x="167.621818" xlink:href="#maa6dc397ac" y="270.459116"/>
     <use style="fill-opacity:0;stroke:#1f77b4;" x="171.229091" xlink:href="#maa6dc397ac" y="276.228202"/>
     <use style="fill-opacity:0;stroke:#1f77b4;" x="174.836364" xlink:href="#maa6dc397ac" y="262.08853"/>
     <use style="fill-opacity:0;stroke:#1f77b4;" x="178.443636" xlink:href="#maa6dc397ac" y="275.419296"/>
     <use style="fill-opacity:0;stroke:#1f77b4;" x="182.050909" xlink:href="#maa6dc397ac" y="277.845603"/>
     <use style="fill-opacity:0;stroke:#1f77b4;" x="185.658182" xlink:href="#maa6dc397ac" y="278.068359"/>
     <use style="fill-opacity:0;stroke:#1f77b4;" x="189.265455" xlink:href="#maa6dc397ac" y="271.942676"/>
     <use style="fill-opacity:0;stroke:#1f77b4;" x="192.872727" xlink:href="#maa6dc397ac" y="272.414514"/>
     <use style="fill-opacity:0;stroke:#1f77b4;" x="196.48" xlink:href="#maa6dc397ac" y="275.023006"/>
     <use style="fill-opacity:0;stroke:#1f77b4;" x="200.087273" xlink:href="#maa6dc397ac" y="261.448367"/>
     <use style="fill-opacity:0;stroke:#1f77b4;" x="203.694545" xlink:href="#maa6dc397ac" y="260.089784"/>
     <use style="fill-opacity:0;stroke:#1f77b4;" x="207.301818" xlink:href="#maa6dc397ac" y="257.410049"/>
     <use style="fill-opacity:0;stroke:#1f77b4;" x="210.909091" xlink:href="#maa6dc397ac" y="260.576695"/>
     <use style="fill-opacity:0;stroke:#1f77b4;" x="214.516364" xlink:href="#maa6dc397ac" y="247.352081"/>
     <use style="fill-opacity:0;stroke:#1f77b4;" x="218.123636" xlink:href="#maa6dc397ac" y="262.984359"/>
     <use style="fill-opacity:0;stroke:#1f77b4;" x="221.730909" xlink:href="#maa6dc397ac" y="261.569447"/>
     <use style="fill-opacity:0;stroke:#1f77b4;" x="225.338182" xlink:href="#maa6dc397ac" y="260.936893"/>
     <use style="fill-opacity:0;stroke:#1f77b4;" x="228.945455" xlink:href="#maa6dc397ac" y="256.536712"/>
     <use style="fill-opacity:0;stroke:#1f77b4;" x="232.552727" xlink:href="#maa6dc397ac" y="260.4929"/>
     <use style="fill-opacity:0;stroke:#1f77b4;" x="236.16" xlink:href="#maa6dc397ac" y="259.828056"/>
     <use style="fill-opacity:0;stroke:#1f77b4;" x="239.767273" xlink:href="#maa6dc397ac" y="260.266609"/>
     <use style="fill-opacity:0;stroke:#1f77b4;" x="243.374545" xlink:href="#maa6dc397ac" y="262.023948"/>
     <use style="fill-opacity:0;stroke:#1f77b4;" x="246.981818" xlink:href="#maa6dc397ac" y="260.940273"/>
     <use style="fill-opacity:0;stroke:#1f77b4;" x="250.589091" xlink:href="#maa6dc397ac" y="259.73412"/>
     <use style="fill-opacity:0;stroke:#1f77b4;" x="254.196364" xlink:href="#maa6dc397ac" y="261.386532"/>
     <use style="fill-opacity:0;stroke:#1f77b4;" x="257.803636" xlink:href="#maa6dc397ac" y="261.275189"/>
     <use style="fill-opacity:0;stroke:#1f77b4;" x="261.410909" xlink:href="#maa6dc397ac" y="263.720144"/>
     <use style="fill-opacity:0;stroke:#1f77b4;" x="265.018182" xlink:href="#maa6dc397ac" y="260.305502"/>
     <use style="fill-opacity:0;stroke:#1f77b4;" x="268.625455" xlink:href="#maa6dc397ac" y="257.066236"/>
     <use style="fill-opacity:0;stroke:#1f77b4;" x="272.232727" xlink:href="#maa6dc397ac" y="263.26041"/>
     <use style="fill-opacity:0;stroke:#1f77b4;" x="275.84" xlink:href="#maa6dc397ac" y="261.62617"/>
     <use style="fill-opacity:0;stroke:#1f77b4;" x="279.447273" xlink:href="#maa6dc397ac" y="259.035701"/>
     <use style="fill-opacity:0;stroke:#1f77b4;" x="283.054545" xlink:href="#maa6dc397ac" y="260.530344"/>
     <use style="fill-opacity:0;stroke:#1f77b4;" x="286.661818" xlink:href="#maa6dc397ac" y="263.296504"/>
     <use style="fill-opacity:0;stroke:#1f77b4;" x="290.269091" xlink:href="#maa6dc397ac" y="257.930489"/>
     <use style="fill-opacity:0;stroke:#1f77b4;" x="293.876364" xlink:href="#maa6dc397ac" y="255.434572"/>
     <use style="fill-opacity:0;stroke:#1f77b4;" x="297.483636" xlink:href="#maa6dc397ac" y="260.023074"/>
     <use style="fill-opacity:0;stroke:#1f77b4;" x="301.090909" xlink:href="#maa6dc397ac" y="255.792677"/>
     <use style="fill-opacity:0;stroke:#1f77b4;" x="304.698182" xlink:href="#maa6dc397ac" y="258.472241"/>
     <use style="fill-opacity:0;stroke:#1f77b4;" x="308.305455" xlink:href="#maa6dc397ac" y="257.191999"/>
     <use style="fill-opacity:0;stroke:#1f77b4;" x="311.912727" xlink:href="#maa6dc397ac" y="258.561356"/>
     <use style="fill-opacity:0;stroke:#1f77b4;" x="315.52" xlink:href="#maa6dc397ac" y="265.087757"/>
     <use style="fill-opacity:0;stroke:#1f77b4;" x="319.127273" xlink:href="#maa6dc397ac" y="257.244733"/>
     <use style="fill-opacity:0;stroke:#1f77b4;" x="322.734545" xlink:href="#maa6dc397ac" y="256.600421"/>
     <use style="fill-opacity:0;stroke:#1f77b4;" x="326.341818" xlink:href="#maa6dc397ac" y="257.822084"/>
     <use style="fill-opacity:0;stroke:#1f77b4;" x="329.949091" xlink:href="#maa6dc397ac" y="259.531579"/>
     <use style="fill-opacity:0;stroke:#1f77b4;" x="333.556364" xlink:href="#maa6dc397ac" y="257.367525"/>
     <use style="fill-opacity:0;stroke:#1f77b4;" x="337.163636" xlink:href="#maa6dc397ac" y="256.251865"/>
     <use style="fill-opacity:0;stroke:#1f77b4;" x="340.770909" xlink:href="#maa6dc397ac" y="256.154472"/>
     <use style="fill-opacity:0;stroke:#1f77b4;" x="344.378182" xlink:href="#maa6dc397ac" y="223.647064"/>
     <use style="fill-opacity:0;stroke:#1f77b4;" x="347.985455" xlink:href="#maa6dc397ac" y="215.246321"/>
     <use style="fill-opacity:0;stroke:#1f77b4;" x="351.592727" xlink:href="#maa6dc397ac" y="227.012697"/>
     <use style="fill-opacity:0;stroke:#1f77b4;" x="355.2" xlink:href="#maa6dc397ac" y="215.706423"/>
     <use style="fill-opacity:0;stroke:#1f77b4;" x="358.807273" xlink:href="#maa6dc397ac" y="208.787863"/>
     <use style="fill-opacity:0;stroke:#1f77b4;" x="362.414545" xlink:href="#maa6dc397ac" y="225.751398"/>
     <use style="fill-opacity:0;stroke:#1f77b4;" x="366.021818" xlink:href="#maa6dc397ac" y="217.603234"/>
     <use style="fill-opacity:0;stroke:#1f77b4;" x="369.629091" xlink:href="#maa6dc397ac" y="206.3105"/>
     <use style="fill-opacity:0;stroke:#1f77b4;" x="373.236364" xlink:href="#maa6dc397ac" y="220.961131"/>
     <use style="fill-opacity:0;stroke:#1f77b4;" x="376.843636" xlink:href="#maa6dc397ac" y="211.100065"/>
     <use style="fill-opacity:0;stroke:#1f77b4;" x="380.450909" xlink:href="#maa6dc397ac" y="222.062527"/>
     <use style="fill-opacity:0;stroke:#1f77b4;" x="384.058182" xlink:href="#maa6dc397ac" y="228.169717"/>
     <use style="fill-opacity:0;stroke:#1f77b4;" x="387.665455" xlink:href="#maa6dc397ac" y="201.717364"/>
     <use style="fill-opacity:0;stroke:#1f77b4;" x="391.272727" xlink:href="#maa6dc397ac" y="235.535074"/>
     <use style="fill-opacity:0;stroke:#1f77b4;" x="394.88" xlink:href="#maa6dc397ac" y="234.812703"/>
     <use style="fill-opacity:0;stroke:#1f77b4;" x="398.487273" xlink:href="#maa6dc397ac" y="220.122269"/>
    </g>
   </g>
   <g id="line2d_17">
    <path clip-path="url(#p27cb2d2084)" d="M 124.334545 286.348898 
L 127.941818 159.072878 
L 131.549091 204.28778 
L 135.156364 173.51206 
L 138.763636 251.05096 
L 142.370909 245.162962 
L 145.978182 257.014372 
L 149.585455 286.230186 
L 153.192727 258.691129 
L 156.8 259.245656 
L 160.407273 252.810376 
L 164.014545 271.210221 
L 167.621818 263.782157 
L 171.229091 262.724508 
L 174.836364 250.231584 
L 178.443636 258.907881 
L 182.050909 273.807665 
L 185.658182 280.153163 
L 189.265455 265.681657 
L 192.872727 256.52846 
L 196.48 277.373442 
L 200.087273 260.668248 
L 203.694545 259.083259 
L 207.301818 257.736401 
L 210.909091 260.256729 
L 214.516364 249.08689 
L 218.123636 260.593588 
L 221.730909 259.700565 
L 225.338182 258.633842 
L 228.945455 255.845774 
L 232.552727 258.54732 
L 236.16 254.4827 
L 239.767273 255.009283 
L 243.374545 259.574369 
L 246.981818 258.467437 
L 250.589091 257.938619 
L 254.196364 255.848641 
L 257.803636 258.772168 
L 261.410909 261.017803 
L 265.018182 254.444705 
L 268.625455 252.520782 
L 272.232727 255.817455 
L 275.84 256.370807 
L 279.447273 254.302078 
L 283.054545 258.493016 
L 286.661818 258.157009 
L 290.269091 254.077814 
L 293.876364 248.369567 
L 297.483636 258.046306 
L 301.090909 250.543479 
L 304.698182 255.402747 
L 308.305455 258.132448 
L 311.912727 257.76814 
L 315.52 262.856241 
L 319.127273 257.322369 
L 322.734545 256.172707 
L 326.341818 258.060046 
L 329.949091 257.649382 
L 333.556364 258.90176 
L 337.163636 256.555907 
L 340.770909 257.386151 
L 344.378182 221.453581 
L 347.985455 215.102776 
L 351.592727 230.664123 
L 355.2 210.618778 
L 358.807273 209.527137 
L 362.414545 223.740556 
L 366.021818 224.51727 
L 369.629091 223.552387 
L 373.236364 225.448178 
L 376.843636 213.842481 
L 380.450909 230.766847 
L 384.058182 234.239266 
L 387.665455 215.503236 
L 391.272727 239.213128 
L 394.88 221.311907 
L 398.487273 221.047784 
" style="fill:none;stroke:#ff7f0e;stroke-dasharray:2,3.3;stroke-dashoffset:0;stroke-width:2;"/>
    <defs>
     <path d="M -0 3 
L 3 -3 
L -3 -3 
z
" id="ma4f5359203" style="stroke:#ff7f0e;stroke-linejoin:miter;"/>
    </defs>
    <g clip-path="url(#p27cb2d2084)">
     <use style="fill-opacity:0;stroke:#ff7f0e;stroke-linejoin:miter;" x="124.334545" xlink:href="#ma4f5359203" y="286.348898"/>
     <use style="fill-opacity:0;stroke:#ff7f0e;stroke-linejoin:miter;" x="127.941818" xlink:href="#ma4f5359203" y="159.072878"/>
     <use style="fill-opacity:0;stroke:#ff7f0e;stroke-linejoin:miter;" x="131.549091" xlink:href="#ma4f5359203" y="204.28778"/>
     <use style="fill-opacity:0;stroke:#ff7f0e;stroke-linejoin:miter;" x="135.156364" xlink:href="#ma4f5359203" y="173.51206"/>
     <use style="fill-opacity:0;stroke:#ff7f0e;stroke-linejoin:miter;" x="138.763636" xlink:href="#ma4f5359203" y="251.05096"/>
     <use style="fill-opacity:0;stroke:#ff7f0e;stroke-linejoin:miter;" x="142.370909" xlink:href="#ma4f5359203" y="245.162962"/>
     <use style="fill-opacity:0;stroke:#ff7f0e;stroke-linejoin:miter;" x="145.978182" xlink:href="#ma4f5359203" y="257.014372"/>
     <use style="fill-opacity:0;stroke:#ff7f0e;stroke-linejoin:miter;" x="149.585455" xlink:href="#ma4f5359203" y="286.230186"/>
     <use style="fill-opacity:0;stroke:#ff7f0e;stroke-linejoin:miter;" x="153.192727" xlink:href="#ma4f5359203" y="258.691129"/>
     <use style="fill-opacity:0;stroke:#ff7f0e;stroke-linejoin:miter;" x="156.8" xlink:href="#ma4f5359203" y="259.245656"/>
     <use style="fill-opacity:0;stroke:#ff7f0e;stroke-linejoin:miter;" x="160.407273" xlink:href="#ma4f5359203" y="252.810376"/>
     <use style="fill-opacity:0;stroke:#ff7f0e;stroke-linejoin:miter;" x="164.014545" xlink:href="#ma4f5359203" y="271.210221"/>
     <use style="fill-opacity:0;stroke:#ff7f0e;stroke-linejoin:miter;" x="167.621818" xlink:href="#ma4f5359203" y="263.782157"/>
     <use style="fill-opacity:0;stroke:#ff7f0e;stroke-linejoin:miter;" x="171.229091" xlink:href="#ma4f5359203" y="262.724508"/>
     <use style="fill-opacity:0;stroke:#ff7f0e;stroke-linejoin:miter;" x="174.836364" xlink:href="#ma4f5359203" y="250.231584"/>
     <use style="fill-opacity:0;stroke:#ff7f0e;stroke-linejoin:miter;" x="178.443636" xlink:href="#ma4f5359203" y="258.907881"/>
     <use style="fill-opacity:0;stroke:#ff7f0e;stroke-linejoin:miter;" x="182.050909" xlink:href="#ma4f5359203" y="273.807665"/>
     <use style="fill-opacity:0;stroke:#ff7f0e;stroke-linejoin:miter;" x="185.658182" xlink:href="#ma4f5359203" y="280.153163"/>
     <use style="fill-opacity:0;stroke:#ff7f0e;stroke-linejoin:miter;" x="189.265455" xlink:href="#ma4f5359203" y="265.681657"/>
     <use style="fill-opacity:0;stroke:#ff7f0e;stroke-linejoin:miter;" x="192.872727" xlink:href="#ma4f5359203" y="256.52846"/>
     <use style="fill-opacity:0;stroke:#ff7f0e;stroke-linejoin:miter;" x="196.48" xlink:href="#ma4f5359203" y="277.373442"/>
     <use style="fill-opacity:0;stroke:#ff7f0e;stroke-linejoin:miter;" x="200.087273" xlink:href="#ma4f5359203" y="260.668248"/>
     <use style="fill-opacity:0;stroke:#ff7f0e;stroke-linejoin:miter;" x="203.694545" xlink:href="#ma4f5359203" y="259.083259"/>
     <use style="fill-opacity:0;stroke:#ff7f0e;stroke-linejoin:miter;" x="207.301818" xlink:href="#ma4f5359203" y="257.736401"/>
     <use style="fill-opacity:0;stroke:#ff7f0e;stroke-linejoin:miter;" x="210.909091" xlink:href="#ma4f5359203" y="260.256729"/>
     <use style="fill-opacity:0;stroke:#ff7f0e;stroke-linejoin:miter;" x="214.516364" xlink:href="#ma4f5359203" y="249.08689"/>
     <use style="fill-opacity:0;stroke:#ff7f0e;stroke-linejoin:miter;" x="218.123636" xlink:href="#ma4f5359203" y="260.593588"/>
     <use style="fill-opacity:0;stroke:#ff7f0e;stroke-linejoin:miter;" x="221.730909" xlink:href="#ma4f5359203" y="259.700565"/>
     <use style="fill-opacity:0;stroke:#ff7f0e;stroke-linejoin:miter;" x="225.338182" xlink:href="#ma4f5359203" y="258.633842"/>
     <use style="fill-opacity:0;stroke:#ff7f0e;stroke-linejoin:miter;" x="228.945455" xlink:href="#ma4f5359203" y="255.845774"/>
     <use style="fill-opacity:0;stroke:#ff7f0e;stroke-linejoin:miter;" x="232.552727" xlink:href="#ma4f5359203" y="258.54732"/>
     <use style="fill-opacity:0;stroke:#ff7f0e;stroke-linejoin:miter;" x="236.16" xlink:href="#ma4f5359203" y="254.4827"/>
     <use style="fill-opacity:0;stroke:#ff7f0e;stroke-linejoin:miter;" x="239.767273" xlink:href="#ma4f5359203" y="255.009283"/>
     <use style="fill-opacity:0;stroke:#ff7f0e;stroke-linejoin:miter;" x="243.374545" xlink:href="#ma4f5359203" y="259.574369"/>
     <use style="fill-opacity:0;stroke:#ff7f0e;stroke-linejoin:miter;" x="246.981818" xlink:href="#ma4f5359203" y="258.467437"/>
     <use style="fill-opacity:0;stroke:#ff7f0e;stroke-linejoin:miter;" x="250.589091" xlink:href="#ma4f5359203" y="257.938619"/>
     <use style="fill-opacity:0;stroke:#ff7f0e;stroke-linejoin:miter;" x="254.196364" xlink:href="#ma4f5359203" y="255.848641"/>
     <use style="fill-opacity:0;stroke:#ff7f0e;stroke-linejoin:miter;" x="257.803636" xlink:href="#ma4f5359203" y="258.772168"/>
     <use style="fill-opacity:0;stroke:#ff7f0e;stroke-linejoin:miter;" x="261.410909" xlink:href="#ma4f5359203" y="261.017803"/>
     <use style="fill-opacity:0;stroke:#ff7f0e;stroke-linejoin:miter;" x="265.018182" xlink:href="#ma4f5359203" y="254.444705"/>
     <use style="fill-opacity:0;stroke:#ff7f0e;stroke-linejoin:miter;" x="268.625455" xlink:href="#ma4f5359203" y="252.520782"/>
     <use style="fill-opacity:0;stroke:#ff7f0e;stroke-linejoin:miter;" x="272.232727" xlink:href="#ma4f5359203" y="255.817455"/>
     <use style="fill-opacity:0;stroke:#ff7f0e;stroke-linejoin:miter;" x="275.84" xlink:href="#ma4f5359203" y="256.370807"/>
     <use style="fill-opacity:0;stroke:#ff7f0e;stroke-linejoin:miter;" x="279.447273" xlink:href="#ma4f5359203" y="254.302078"/>
     <use style="fill-opacity:0;stroke:#ff7f0e;stroke-linejoin:miter;" x="283.054545" xlink:href="#ma4f5359203" y="258.493016"/>
     <use style="fill-opacity:0;stroke:#ff7f0e;stroke-linejoin:miter;" x="286.661818" xlink:href="#ma4f5359203" y="258.157009"/>
     <use style="fill-opacity:0;stroke:#ff7f0e;stroke-linejoin:miter;" x="290.269091" xlink:href="#ma4f5359203" y="254.077814"/>
     <use style="fill-opacity:0;stroke:#ff7f0e;stroke-linejoin:miter;" x="293.876364" xlink:href="#ma4f5359203" y="248.369567"/>
     <use style="fill-opacity:0;stroke:#ff7f0e;stroke-linejoin:miter;" x="297.483636" xlink:href="#ma4f5359203" y="258.046306"/>
     <use style="fill-opacity:0;stroke:#ff7f0e;stroke-linejoin:miter;" x="301.090909" xlink:href="#ma4f5359203" y="250.543479"/>
     <use style="fill-opacity:0;stroke:#ff7f0e;stroke-linejoin:miter;" x="304.698182" xlink:href="#ma4f5359203" y="255.402747"/>
     <use style="fill-opacity:0;stroke:#ff7f0e;stroke-linejoin:miter;" x="308.305455" xlink:href="#ma4f5359203" y="258.132448"/>
     <use style="fill-opacity:0;stroke:#ff7f0e;stroke-linejoin:miter;" x="311.912727" xlink:href="#ma4f5359203" y="257.76814"/>
     <use style="fill-opacity:0;stroke:#ff7f0e;stroke-linejoin:miter;" x="315.52" xlink:href="#ma4f5359203" y="262.856241"/>
     <use style="fill-opacity:0;stroke:#ff7f0e;stroke-linejoin:miter;" x="319.127273" xlink:href="#ma4f5359203" y="257.322369"/>
     <use style="fill-opacity:0;stroke:#ff7f0e;stroke-linejoin:miter;" x="322.734545" xlink:href="#ma4f5359203" y="256.172707"/>
     <use style="fill-opacity:0;stroke:#ff7f0e;stroke-linejoin:miter;" x="326.341818" xlink:href="#ma4f5359203" y="258.060046"/>
     <use style="fill-opacity:0;stroke:#ff7f0e;stroke-linejoin:miter;" x="329.949091" xlink:href="#ma4f5359203" y="257.649382"/>
     <use style="fill-opacity:0;stroke:#ff7f0e;stroke-linejoin:miter;" x="333.556364" xlink:href="#ma4f5359203" y="258.90176"/>
     <use style="fill-opacity:0;stroke:#ff7f0e;stroke-linejoin:miter;" x="337.163636" xlink:href="#ma4f5359203" y="256.555907"/>
     <use style="fill-opacity:0;stroke:#ff7f0e;stroke-linejoin:miter;" x="340.770909" xlink:href="#ma4f5359203" y="257.386151"/>
     <use style="fill-opacity:0;stroke:#ff7f0e;stroke-linejoin:miter;" x="344.378182" xlink:href="#ma4f5359203" y="221.453581"/>
     <use style="fill-opacity:0;stroke:#ff7f0e;stroke-linejoin:miter;" x="347.985455" xlink:href="#ma4f5359203" y="215.102776"/>
     <use style="fill-opacity:0;stroke:#ff7f0e;stroke-linejoin:miter;" x="351.592727" xlink:href="#ma4f5359203" y="230.664123"/>
     <use style="fill-opacity:0;stroke:#ff7f0e;stroke-linejoin:miter;" x="355.2" xlink:href="#ma4f5359203" y="210.618778"/>
     <use style="fill-opacity:0;stroke:#ff7f0e;stroke-linejoin:miter;" x="358.807273" xlink:href="#ma4f5359203" y="209.527137"/>
     <use style="fill-opacity:0;stroke:#ff7f0e;stroke-linejoin:miter;" x="362.414545" xlink:href="#ma4f5359203" y="223.740556"/>
     <use style="fill-opacity:0;stroke:#ff7f0e;stroke-linejoin:miter;" x="366.021818" xlink:href="#ma4f5359203" y="224.51727"/>
     <use style="fill-opacity:0;stroke:#ff7f0e;stroke-linejoin:miter;" x="369.629091" xlink:href="#ma4f5359203" y="223.552387"/>
     <use style="fill-opacity:0;stroke:#ff7f0e;stroke-linejoin:miter;" x="373.236364" xlink:href="#ma4f5359203" y="225.448178"/>
     <use style="fill-opacity:0;stroke:#ff7f0e;stroke-linejoin:miter;" x="376.843636" xlink:href="#ma4f5359203" y="213.842481"/>
     <use style="fill-opacity:0;stroke:#ff7f0e;stroke-linejoin:miter;" x="380.450909" xlink:href="#ma4f5359203" y="230.766847"/>
     <use style="fill-opacity:0;stroke:#ff7f0e;stroke-linejoin:miter;" x="384.058182" xlink:href="#ma4f5359203" y="234.239266"/>
     <use style="fill-opacity:0;stroke:#ff7f0e;stroke-linejoin:miter;" x="387.665455" xlink:href="#ma4f5359203" y="215.503236"/>
     <use style="fill-opacity:0;stroke:#ff7f0e;stroke-linejoin:miter;" x="391.272727" xlink:href="#ma4f5359203" y="239.213128"/>
     <use style="fill-opacity:0;stroke:#ff7f0e;stroke-linejoin:miter;" x="394.88" xlink:href="#ma4f5359203" y="221.311907"/>
     <use style="fill-opacity:0;stroke:#ff7f0e;stroke-linejoin:miter;" x="398.487273" xlink:href="#ma4f5359203" y="221.047784"/>
    </g>
   </g>
   <g id="line2d_18">
    <path clip-path="url(#p27cb2d2084)" d="M 178.443636 53.568 
L 182.050909 187.386261 
L 185.658182 228.245692 
L 189.265455 190.647161 
L 192.872727 253.879828 
L 196.48 280.244427 
L 200.087273 261.410683 
L 203.694545 258.534421 
L 207.301818 257.417661 
L 210.909091 261.14255 
L 214.516364 250.116748 
L 218.123636 262.42591 
L 221.730909 260.507338 
L 225.338182 257.752487 
L 228.945455 257.434239 
L 232.552727 260.749697 
L 236.16 256.308603 
L 239.767273 259.168842 
L 243.374545 260.242586 
L 246.981818 258.351062 
L 250.589091 257.920393 
L 254.196364 258.990052 
L 257.803636 259.231288 
L 261.410909 261.593688 
L 265.018182 257.45873 
L 268.625455 255.193697 
L 272.232727 258.782327 
L 275.84 259.133897 
L 279.447273 254.37887 
L 283.054545 259.733985 
L 286.661818 260.761214 
L 290.269091 254.939467 
L 293.876364 246.895065 
L 297.483636 257.578539 
L 301.090909 251.873956 
L 304.698182 257.0737 
L 308.305455 256.789766 
L 311.912727 256.258356 
L 315.52 266.235633 
L 319.127273 256.899943 
L 322.734545 256.764861 
L 326.341818 260.006839 
L 329.949091 260.202414 
L 333.556364 259.190992 
L 337.163636 258.941803 
L 340.770909 258.845575 
L 344.378182 193.292436 
L 347.985455 189.371774 
L 351.592727 205.882088 
L 355.2 202.504885 
L 358.807273 214.23168 
L 362.414545 227.389002 
L 366.021818 218.912737 
L 369.629091 213.766981 
L 373.236364 215.269308 
L 376.843636 203.852578 
L 380.450909 225.461339 
L 384.058182 213.086066 
L 387.665455 198.518085 
L 391.272727 232.430939 
L 394.88 220.095953 
L 398.487273 217.311697 
" style="fill:none;stroke:#2ca02c;stroke-dasharray:2,3.3;stroke-dashoffset:0;stroke-width:2;"/>
    <defs>
     <path d="M 0 -3 
L -3 3 
L 3 3 
z
" id="me50522af58" style="stroke:#2ca02c;stroke-linejoin:miter;"/>
    </defs>
    <g clip-path="url(#p27cb2d2084)">
     <use style="fill-opacity:0;stroke:#2ca02c;stroke-linejoin:miter;" x="178.443636" xlink:href="#me50522af58" y="53.568"/>
     <use style="fill-opacity:0;stroke:#2ca02c;stroke-linejoin:miter;" x="182.050909" xlink:href="#me50522af58" y="187.386261"/>
     <use style="fill-opacity:0;stroke:#2ca02c;stroke-linejoin:miter;" x="185.658182" xlink:href="#me50522af58" y="228.245692"/>
     <use style="fill-opacity:0;stroke:#2ca02c;stroke-linejoin:miter;" x="189.265455" xlink:href="#me50522af58" y="190.647161"/>
     <use style="fill-opacity:0;stroke:#2ca02c;stroke-linejoin:miter;" x="192.872727" xlink:href="#me50522af58" y="253.879828"/>
     <use style="fill-opacity:0;stroke:#2ca02c;stroke-linejoin:miter;" x="196.48" xlink:href="#me50522af58" y="280.244427"/>
     <use style="fill-opacity:0;stroke:#2ca02c;stroke-linejoin:miter;" x="200.087273" xlink:href="#me50522af58" y="261.410683"/>
     <use style="fill-opacity:0;stroke:#2ca02c;stroke-linejoin:miter;" x="203.694545" xlink:href="#me50522af58" y="258.534421"/>
     <use style="fill-opacity:0;stroke:#2ca02c;stroke-linejoin:miter;" x="207.301818" xlink:href="#me50522af58" y="257.417661"/>
     <use style="fill-opacity:0;stroke:#2ca02c;stroke-linejoin:miter;" x="210.909091" xlink:href="#me50522af58" y="261.14255"/>
     <use style="fill-opacity:0;stroke:#2ca02c;stroke-linejoin:miter;" x="214.516364" xlink:href="#me50522af58" y="250.116748"/>
     <use style="fill-opacity:0;stroke:#2ca02c;stroke-linejoin:miter;" x="218.123636" xlink:href="#me50522af58" y="262.42591"/>
     <use style="fill-opacity:0;stroke:#2ca02c;stroke-linejoin:miter;" x="221.730909" xlink:href="#me50522af58" y="260.507338"/>
     <use style="fill-opacity:0;stroke:#2ca02c;stroke-linejoin:miter;" x="225.338182" xlink:href="#me50522af58" y="257.752487"/>
     <use style="fill-opacity:0;stroke:#2ca02c;stroke-linejoin:miter;" x="228.945455" xlink:href="#me50522af58" y="257.434239"/>
     <use style="fill-opacity:0;stroke:#2ca02c;stroke-linejoin:miter;" x="232.552727" xlink:href="#me50522af58" y="260.749697"/>
     <use style="fill-opacity:0;stroke:#2ca02c;stroke-linejoin:miter;" x="236.16" xlink:href="#me50522af58" y="256.308603"/>
     <use style="fill-opacity:0;stroke:#2ca02c;stroke-linejoin:miter;" x="239.767273" xlink:href="#me50522af58" y="259.168842"/>
     <use style="fill-opacity:0;stroke:#2ca02c;stroke-linejoin:miter;" x="243.374545" xlink:href="#me50522af58" y="260.242586"/>
     <use style="fill-opacity:0;stroke:#2ca02c;stroke-linejoin:miter;" x="246.981818" xlink:href="#me50522af58" y="258.351062"/>
     <use style="fill-opacity:0;stroke:#2ca02c;stroke-linejoin:miter;" x="250.589091" xlink:href="#me50522af58" y="257.920393"/>
     <use style="fill-opacity:0;stroke:#2ca02c;stroke-linejoin:miter;" x="254.196364" xlink:href="#me50522af58" y="258.990052"/>
     <use style="fill-opacity:0;stroke:#2ca02c;stroke-linejoin:miter;" x="257.803636" xlink:href="#me50522af58" y="259.231288"/>
     <use style="fill-opacity:0;stroke:#2ca02c;stroke-linejoin:miter;" x="261.410909" xlink:href="#me50522af58" y="261.593688"/>
     <use style="fill-opacity:0;stroke:#2ca02c;stroke-linejoin:miter;" x="265.018182" xlink:href="#me50522af58" y="257.45873"/>
     <use style="fill-opacity:0;stroke:#2ca02c;stroke-linejoin:miter;" x="268.625455" xlink:href="#me50522af58" y="255.193697"/>
     <use style="fill-opacity:0;stroke:#2ca02c;stroke-linejoin:miter;" x="272.232727" xlink:href="#me50522af58" y="258.782327"/>
     <use style="fill-opacity:0;stroke:#2ca02c;stroke-linejoin:miter;" x="275.84" xlink:href="#me50522af58" y="259.133897"/>
     <use style="fill-opacity:0;stroke:#2ca02c;stroke-linejoin:miter;" x="279.447273" xlink:href="#me50522af58" y="254.37887"/>
     <use style="fill-opacity:0;stroke:#2ca02c;stroke-linejoin:miter;" x="283.054545" xlink:href="#me50522af58" y="259.733985"/>
     <use style="fill-opacity:0;stroke:#2ca02c;stroke-linejoin:miter;" x="286.661818" xlink:href="#me50522af58" y="260.761214"/>
     <use style="fill-opacity:0;stroke:#2ca02c;stroke-linejoin:miter;" x="290.269091" xlink:href="#me50522af58" y="254.939467"/>
     <use style="fill-opacity:0;stroke:#2ca02c;stroke-linejoin:miter;" x="293.876364" xlink:href="#me50522af58" y="246.895065"/>
     <use style="fill-opacity:0;stroke:#2ca02c;stroke-linejoin:miter;" x="297.483636" xlink:href="#me50522af58" y="257.578539"/>
     <use style="fill-opacity:0;stroke:#2ca02c;stroke-linejoin:miter;" x="301.090909" xlink:href="#me50522af58" y="251.873956"/>
     <use style="fill-opacity:0;stroke:#2ca02c;stroke-linejoin:miter;" x="304.698182" xlink:href="#me50522af58" y="257.0737"/>
     <use style="fill-opacity:0;stroke:#2ca02c;stroke-linejoin:miter;" x="308.305455" xlink:href="#me50522af58" y="256.789766"/>
     <use style="fill-opacity:0;stroke:#2ca02c;stroke-linejoin:miter;" x="311.912727" xlink:href="#me50522af58" y="256.258356"/>
     <use style="fill-opacity:0;stroke:#2ca02c;stroke-linejoin:miter;" x="315.52" xlink:href="#me50522af58" y="266.235633"/>
     <use style="fill-opacity:0;stroke:#2ca02c;stroke-linejoin:miter;" x="319.127273" xlink:href="#me50522af58" y="256.899943"/>
     <use style="fill-opacity:0;stroke:#2ca02c;stroke-linejoin:miter;" x="322.734545" xlink:href="#me50522af58" y="256.764861"/>
     <use style="fill-opacity:0;stroke:#2ca02c;stroke-linejoin:miter;" x="326.341818" xlink:href="#me50522af58" y="260.006839"/>
     <use style="fill-opacity:0;stroke:#2ca02c;stroke-linejoin:miter;" x="329.949091" xlink:href="#me50522af58" y="260.202414"/>
     <use style="fill-opacity:0;stroke:#2ca02c;stroke-linejoin:miter;" x="333.556364" xlink:href="#me50522af58" y="259.190992"/>
     <use style="fill-opacity:0;stroke:#2ca02c;stroke-linejoin:miter;" x="337.163636" xlink:href="#me50522af58" y="258.941803"/>
     <use style="fill-opacity:0;stroke:#2ca02c;stroke-linejoin:miter;" x="340.770909" xlink:href="#me50522af58" y="258.845575"/>
     <use style="fill-opacity:0;stroke:#2ca02c;stroke-linejoin:miter;" x="344.378182" xlink:href="#me50522af58" y="193.292436"/>
     <use style="fill-opacity:0;stroke:#2ca02c;stroke-linejoin:miter;" x="347.985455" xlink:href="#me50522af58" y="189.371774"/>
     <use style="fill-opacity:0;stroke:#2ca02c;stroke-linejoin:miter;" x="351.592727" xlink:href="#me50522af58" y="205.882088"/>
     <use style="fill-opacity:0;stroke:#2ca02c;stroke-linejoin:miter;" x="355.2" xlink:href="#me50522af58" y="202.504885"/>
     <use style="fill-opacity:0;stroke:#2ca02c;stroke-linejoin:miter;" x="358.807273" xlink:href="#me50522af58" y="214.23168"/>
     <use style="fill-opacity:0;stroke:#2ca02c;stroke-linejoin:miter;" x="362.414545" xlink:href="#me50522af58" y="227.389002"/>
     <use style="fill-opacity:0;stroke:#2ca02c;stroke-linejoin:miter;" x="366.021818" xlink:href="#me50522af58" y="218.912737"/>
     <use style="fill-opacity:0;stroke:#2ca02c;stroke-linejoin:miter;" x="369.629091" xlink:href="#me50522af58" y="213.766981"/>
     <use style="fill-opacity:0;stroke:#2ca02c;stroke-linejoin:miter;" x="373.236364" xlink:href="#me50522af58" y="215.269308"/>
     <use style="fill-opacity:0;stroke:#2ca02c;stroke-linejoin:miter;" x="376.843636" xlink:href="#me50522af58" y="203.852578"/>
     <use style="fill-opacity:0;stroke:#2ca02c;stroke-linejoin:miter;" x="380.450909" xlink:href="#me50522af58" y="225.461339"/>
     <use style="fill-opacity:0;stroke:#2ca02c;stroke-linejoin:miter;" x="384.058182" xlink:href="#me50522af58" y="213.086066"/>
     <use style="fill-opacity:0;stroke:#2ca02c;stroke-linejoin:miter;" x="387.665455" xlink:href="#me50522af58" y="198.518085"/>
     <use style="fill-opacity:0;stroke:#2ca02c;stroke-linejoin:miter;" x="391.272727" xlink:href="#me50522af58" y="232.430939"/>
     <use style="fill-opacity:0;stroke:#2ca02c;stroke-linejoin:miter;" x="394.88" xlink:href="#me50522af58" y="220.095953"/>
     <use style="fill-opacity:0;stroke:#2ca02c;stroke-linejoin:miter;" x="398.487273" xlink:href="#me50522af58" y="217.311697"/>
    </g>
   </g>
   <g id="patch_3">
    <path d="M 57.6 307.584 
L 57.6 41.472 
" style="fill:none;stroke:#000000;stroke-linecap:square;stroke-linejoin:miter;stroke-width:0.8;"/>
   </g>
   <g id="patch_4">
    <path d="M 414.72 307.584 
L 414.72 41.472 
" style="fill:none;stroke:#000000;stroke-linecap:square;stroke-linejoin:miter;stroke-width:0.8;"/>
   </g>
   <g id="patch_5">
    <path d="M 57.6 307.584 
L 414.72 307.584 
" style="fill:none;stroke:#000000;stroke-linecap:square;stroke-linejoin:miter;stroke-width:0.8;"/>
   </g>
   <g id="patch_6">
    <path d="M 57.6 41.472 
L 414.72 41.472 
" style="fill:none;stroke:#000000;stroke-linecap:square;stroke-linejoin:miter;stroke-width:0.8;"/>
   </g>
   <g id="text_18">
    <!-- Scenario 3.1 pcon delay -->
    <g transform="translate(163.835625 35.472)scale(0.12 -0.12)">
     <defs>
      <path d="M 3425 4513 
L 3425 3897 
Q 3066 4069 2747 4153 
Q 2428 4238 2131 4238 
Q 1616 4238 1336 4038 
Q 1056 3838 1056 3469 
Q 1056 3159 1242 3001 
Q 1428 2844 1947 2747 
L 2328 2669 
Q 3034 2534 3370 2195 
Q 3706 1856 3706 1288 
Q 3706 609 3251 259 
Q 2797 -91 1919 -91 
Q 1588 -91 1214 -16 
Q 841 59 441 206 
L 441 856 
Q 825 641 1194 531 
Q 1563 422 1919 422 
Q 2459 422 2753 634 
Q 3047 847 3047 1241 
Q 3047 1584 2836 1778 
Q 2625 1972 2144 2069 
L 1759 2144 
Q 1053 2284 737 2584 
Q 422 2884 422 3419 
Q 422 4038 858 4394 
Q 1294 4750 2059 4750 
Q 2388 4750 2728 4690 
Q 3069 4631 3425 4513 
z
" id="DejaVuSans-53" transform="scale(0.015625)"/>
      <path d="M 3122 3366 
L 3122 2828 
Q 2878 2963 2633 3030 
Q 2388 3097 2138 3097 
Q 1578 3097 1268 2742 
Q 959 2388 959 1747 
Q 959 1106 1268 751 
Q 1578 397 2138 397 
Q 2388 397 2633 464 
Q 2878 531 3122 666 
L 3122 134 
Q 2881 22 2623 -34 
Q 2366 -91 2075 -91 
Q 1284 -91 818 406 
Q 353 903 353 1747 
Q 353 2603 823 3093 
Q 1294 3584 2113 3584 
Q 2378 3584 2631 3529 
Q 2884 3475 3122 3366 
z
" id="DejaVuSans-63" transform="scale(0.015625)"/>
      <path d="M 3513 2113 
L 3513 0 
L 2938 0 
L 2938 2094 
Q 2938 2591 2744 2837 
Q 2550 3084 2163 3084 
Q 1697 3084 1428 2787 
Q 1159 2491 1159 1978 
L 1159 0 
L 581 0 
L 581 3500 
L 1159 3500 
L 1159 2956 
Q 1366 3272 1645 3428 
Q 1925 3584 2291 3584 
Q 2894 3584 3203 3211 
Q 3513 2838 3513 2113 
z
" id="DejaVuSans-6e" transform="scale(0.015625)"/>
      <path d="M 2631 2963 
Q 2534 3019 2420 3045 
Q 2306 3072 2169 3072 
Q 1681 3072 1420 2755 
Q 1159 2438 1159 1844 
L 1159 0 
L 581 0 
L 581 3500 
L 1159 3500 
L 1159 2956 
Q 1341 3275 1631 3429 
Q 1922 3584 2338 3584 
Q 2397 3584 2469 3576 
Q 2541 3569 2628 3553 
L 2631 2963 
z
" id="DejaVuSans-72" transform="scale(0.015625)"/>
      <path d="M 1959 3097 
Q 1497 3097 1228 2736 
Q 959 2375 959 1747 
Q 959 1119 1226 758 
Q 1494 397 1959 397 
Q 2419 397 2687 759 
Q 2956 1122 2956 1747 
Q 2956 2369 2687 2733 
Q 2419 3097 1959 3097 
z
M 1959 3584 
Q 2709 3584 3137 3096 
Q 3566 2609 3566 1747 
Q 3566 888 3137 398 
Q 2709 -91 1959 -91 
Q 1206 -91 779 398 
Q 353 888 353 1747 
Q 353 2609 779 3096 
Q 1206 3584 1959 3584 
z
" id="DejaVuSans-6f" transform="scale(0.015625)"/>
      <path id="DejaVuSans-20" transform="scale(0.015625)"/>
      <path d="M 2597 2516 
Q 3050 2419 3304 2112 
Q 3559 1806 3559 1356 
Q 3559 666 3084 287 
Q 2609 -91 1734 -91 
Q 1441 -91 1130 -33 
Q 819 25 488 141 
L 488 750 
Q 750 597 1062 519 
Q 1375 441 1716 441 
Q 2309 441 2620 675 
Q 2931 909 2931 1356 
Q 2931 1769 2642 2001 
Q 2353 2234 1838 2234 
L 1294 2234 
L 1294 2753 
L 1863 2753 
Q 2328 2753 2575 2939 
Q 2822 3125 2822 3475 
Q 2822 3834 2567 4026 
Q 2313 4219 1838 4219 
Q 1578 4219 1281 4162 
Q 984 4106 628 3988 
L 628 4550 
Q 988 4650 1302 4700 
Q 1616 4750 1894 4750 
Q 2613 4750 3031 4423 
Q 3450 4097 3450 3541 
Q 3450 3153 3228 2886 
Q 3006 2619 2597 2516 
z
" id="DejaVuSans-33" transform="scale(0.015625)"/>
      <path d="M 684 794 
L 1344 794 
L 1344 0 
L 684 0 
L 684 794 
z
" id="DejaVuSans-2e" transform="scale(0.015625)"/>
      <path d="M 1159 525 
L 1159 -1331 
L 581 -1331 
L 581 3500 
L 1159 3500 
L 1159 2969 
Q 1341 3281 1617 3432 
Q 1894 3584 2278 3584 
Q 2916 3584 3314 3078 
Q 3713 2572 3713 1747 
Q 3713 922 3314 415 
Q 2916 -91 2278 -91 
Q 1894 -91 1617 61 
Q 1341 213 1159 525 
z
M 3116 1747 
Q 3116 2381 2855 2742 
Q 2594 3103 2138 3103 
Q 1681 3103 1420 2742 
Q 1159 2381 1159 1747 
Q 1159 1113 1420 752 
Q 1681 391 2138 391 
Q 2594 391 2855 752 
Q 3116 1113 3116 1747 
z
" id="DejaVuSans-70" transform="scale(0.015625)"/>
      <path d="M 2906 2969 
L 2906 4863 
L 3481 4863 
L 3481 0 
L 2906 0 
L 2906 525 
Q 2725 213 2448 61 
Q 2172 -91 1784 -91 
Q 1150 -91 751 415 
Q 353 922 353 1747 
Q 353 2572 751 3078 
Q 1150 3584 1784 3584 
Q 2172 3584 2448 3432 
Q 2725 3281 2906 2969 
z
M 947 1747 
Q 947 1113 1208 752 
Q 1469 391 1925 391 
Q 2381 391 2643 752 
Q 2906 1113 2906 1747 
Q 2906 2381 2643 2742 
Q 2381 3103 1925 3103 
Q 1469 3103 1208 2742 
Q 947 2381 947 1747 
z
" id="DejaVuSans-64" transform="scale(0.015625)"/>
     </defs>
     <use xlink:href="#DejaVuSans-53"/>
     <use x="63.476562" xlink:href="#DejaVuSans-63"/>
     <use x="118.457031" xlink:href="#DejaVuSans-65"/>
     <use x="179.980469" xlink:href="#DejaVuSans-6e"/>
     <use x="243.359375" xlink:href="#DejaVuSans-61"/>
     <use x="304.638672" xlink:href="#DejaVuSans-72"/>
     <use x="345.751953" xlink:href="#DejaVuSans-69"/>
     <use x="373.535156" xlink:href="#DejaVuSans-6f"/>
     <use x="434.716797" xlink:href="#DejaVuSans-20"/>
     <use x="466.503906" xlink:href="#DejaVuSans-33"/>
     <use x="530.126953" xlink:href="#DejaVuSans-2e"/>
     <use x="561.914062" xlink:href="#DejaVuSans-31"/>
     <use x="625.537109" xlink:href="#DejaVuSans-20"/>
     <use x="657.324219" xlink:href="#DejaVuSans-70"/>
     <use x="720.800781" xlink:href="#DejaVuSans-63"/>
     <use x="775.78125" xlink:href="#DejaVuSans-6f"/>
     <use x="836.962891" xlink:href="#DejaVuSans-6e"/>
     <use x="900.341797" xlink:href="#DejaVuSans-20"/>
     <use x="932.128906" xlink:href="#DejaVuSans-64"/>
     <use x="995.605469" xlink:href="#DejaVuSans-65"/>
     <use x="1057.128906" xlink:href="#DejaVuSans-6c"/>
     <use x="1084.912109" xlink:href="#DejaVuSans-61"/>
     <use x="1146.191406" xlink:href="#DejaVuSans-79"/>
    </g>
   </g>
   <g id="legend_1">
    <g id="patch_7">
     <path d="M 362.374688 93.506375 
L 407.72 93.506375 
Q 409.72 93.506375 409.72 91.506375 
L 409.72 48.472 
Q 409.72 46.472 407.72 46.472 
L 362.374688 46.472 
Q 360.374688 46.472 360.374688 48.472 
L 360.374688 91.506375 
Q 360.374688 93.506375 362.374688 93.506375 
z
" style="fill:#ffffff;opacity:0.8;stroke:#cccccc;stroke-linejoin:miter;"/>
    </g>
    <g id="line2d_19">
     <path d="M 364.374688 54.570438 
L 384.374688 54.570438 
" style="fill:none;stroke:#1f77b4;stroke-dasharray:2,3.3;stroke-dashoffset:0;stroke-width:2;"/>
    </g>
    <g id="line2d_20">
     <g>
      <use style="fill-opacity:0;stroke:#1f77b4;" x="374.374688" xlink:href="#maa6dc397ac" y="54.570438"/>
     </g>
    </g>
    <g id="text_19">
     <!-- C1 -->
     <g transform="translate(392.374688 58.070438)scale(0.1 -0.1)">
      <defs>
       <path d="M 4122 4306 
L 4122 3641 
Q 3803 3938 3442 4084 
Q 3081 4231 2675 4231 
Q 1875 4231 1450 3742 
Q 1025 3253 1025 2328 
Q 1025 1406 1450 917 
Q 1875 428 2675 428 
Q 3081 428 3442 575 
Q 3803 722 4122 1019 
L 4122 359 
Q 3791 134 3420 21 
Q 3050 -91 2638 -91 
Q 1578 -91 968 557 
Q 359 1206 359 2328 
Q 359 3453 968 4101 
Q 1578 4750 2638 4750 
Q 3056 4750 3426 4639 
Q 3797 4528 4122 4306 
z
" id="DejaVuSans-43" transform="scale(0.015625)"/>
      </defs>
      <use xlink:href="#DejaVuSans-43"/>
      <use x="69.824219" xlink:href="#DejaVuSans-31"/>
     </g>
    </g>
    <g id="line2d_21">
     <path d="M 364.374688 69.248563 
L 384.374688 69.248563 
" style="fill:none;stroke:#ff7f0e;stroke-dasharray:2,3.3;stroke-dashoffset:0;stroke-width:2;"/>
    </g>
    <g id="line2d_22">
     <g>
      <use style="fill-opacity:0;stroke:#ff7f0e;stroke-linejoin:miter;" x="374.374688" xlink:href="#ma4f5359203" y="69.248563"/>
     </g>
    </g>
    <g id="text_20">
     <!-- C2 -->
     <g transform="translate(392.374688 72.748563)scale(0.1 -0.1)">
      <use xlink:href="#DejaVuSans-43"/>
      <use x="69.824219" xlink:href="#DejaVuSans-32"/>
     </g>
    </g>
    <g id="line2d_23">
     <path d="M 364.374688 83.926688 
L 384.374688 83.926688 
" style="fill:none;stroke:#2ca02c;stroke-dasharray:2,3.3;stroke-dashoffset:0;stroke-width:2;"/>
    </g>
    <g id="line2d_24">
     <g>
      <use style="fill-opacity:0;stroke:#2ca02c;stroke-linejoin:miter;" x="374.374688" xlink:href="#me50522af58" y="83.926688"/>
     </g>
    </g>
    <g id="text_21">
     <!-- C3 -->
     <g transform="translate(392.374688 87.426688)scale(0.1 -0.1)">
      <use xlink:href="#DejaVuSans-43"/>
      <use x="69.824219" xlink:href="#DejaVuSans-33"/>
     </g>
    </g>
   </g>
  </g>
 </g>
 <defs>
  <clipPath id="p27cb2d2084">
   <rect height="266.112" width="357.12" x="57.6" y="41.472"/>
  </clipPath>
 </defs>
</svg>
