<?xml version="1.0" encoding="UTF-8" standalone="no"?>
<!DOCTYPE svg PUBLIC "-//W3C//DTD SVG 1.1//EN" "http://www.w3.org/Graphics/SVG/1.1/DTD/svg11.dtd">
<!-- 由 Microsoft Visio, SVG Export 生成 topology.svg 页-1 -->
<svg xmlns="http://www.w3.org/2000/svg" xmlns:xlink="http://www.w3.org/1999/xlink" xmlns:ev="http://www.w3.org/2001/xml-events"
		xmlns:v="http://schemas.microsoft.com/visio/2003/SVGExtensions/" width="10.5877in" height="3.7306in"
		viewBox="0 0 762.311 268.603" xml:space="preserve" color-interpolation-filters="sRGB" class="st21">
	<v:documentProperties v:langID="2052" v:metric="true" v:viewMarkup="false"/>

	<style type="text/css">
	<![CDATA[
		.st1 {stroke:#7f7f7f;stroke-linecap:round;stroke-linejoin:round;stroke-width:1}
		.st2 {fill:none;stroke:none;stroke-width:0.25}
		.st3 {fill:#595959;font-family:Times New Roman;font-size:1.00001em}
		.st4 {fill:#f8cecc;stroke:#b85450;stroke-width:0.25}
		.st5 {fill:#f8cecc}
		.st6 {stroke:#b85450;stroke-width:0.25}
		.st7 {fill:#f8cecc;stroke:#b85450;stroke-dasharray:1.75,1.25;stroke-width:0.25}
		.st8 {fill:#f8cecc;stroke:none;stroke-width:0.25}
		.st9 {fill:#833c0b;font-family:Times New Roman;font-size:0.833336em}
		.st10 {fill:#7030a0;font-family:Times New Roman;font-size:1.00001em}
		.st11 {fill:#d5e8d4;stroke:#82b366;stroke-width:0.25}
		.st12 {fill:#d5e8d4}
		.st13 {stroke:#82b366;stroke-width:0.25}
		.st14 {fill:#d5e8d4;stroke:#82b366;stroke-dasharray:1.75,1.25;stroke-width:0.25}
		.st15 {fill:#d5e8d4;stroke:none;stroke-width:0.25}
		.st16 {fill:#e1d5e7;stroke:#9673a6;stroke-width:0.25}
		.st17 {fill:#e1d5e7}
		.st18 {stroke:#9673a6;stroke-width:0.25}
		.st19 {fill:#e1d5e7;stroke:#9673a6;stroke-dasharray:1.75,1.25;stroke-width:0.25}
		.st20 {fill:#e1d5e7;stroke:none;stroke-width:0.25}
		.st21 {fill:none;fill-rule:evenodd;font-size:12px;overflow:visible;stroke-linecap:square;stroke-miterlimit:3}
	]]>
	</style>

	<g v:mID="0" v:index="1" v:groupContext="foregroundPage">
		<title>页-1</title>
		<v:pageProperties v:drawingScale="0.0393701" v:pageScale="0.0393701" v:drawingUnits="24" v:shadowOffsetX="8.50394"
				v:shadowOffsetY="-8.50394"/>
		<v:layer v:name="连接线" v:index="0"/>
		<g id="shape276-1" v:mID="276" v:groupContext="shape" v:layerMember="0" transform="translate(52.6909,-248.809)">
			<title>动态连接线.276</title>
			<path d="M0 268.6 L72.99 374.74" class="st1"/>
		</g>
		<g id="shape277-4" v:mID="277" v:groupContext="shape" v:layerMember="0" transform="translate(52.6909,-172.511)">
			<title>动态连接线.277</title>
			<path d="M0 268.6 L72.99 306.75" class="st1"/>
		</g>
		<g id="shape278-7" v:mID="278" v:groupContext="shape" v:layerMember="0" transform="translate(52.6909,-96.2132)">
			<title>动态连接线.278</title>
			<path d="M0 268.6 L72.99 230.45" class="st1"/>
		</g>
		<g id="shape279-10" v:mID="279" v:groupContext="shape" v:layerMember="0" transform="translate(52.6909,-19.9154)">
			<title>动态连接线.279</title>
			<path d="M0 268.6 L72.99 162.3" class="st1"/>
		</g>
		<g id="shape280-13" v:mID="280" v:groupContext="shape" transform="translate(282.314,-123.952) rotate(55)">
			<title>工作表.280</title>
			<desc>100Mbps</desc>
			<v:textBlock v:margins="rect(4,4,4,4)" v:tabSpace="42.5197"/>
			<v:textRect cx="41.1024" cy="261.517" width="82.21" height="14.1732"/>
			<rect x="0" y="254.43" width="82.2047" height="14.1732" class="st2"/>
			<text x="18.43" y="265.12" class="st3" v:langID="2052"><v:paragraph v:horizAlign="1"/><v:tabList/>100Mbps</text>		</g>
		<g id="shape281-16" v:mID="281" v:groupContext="shape" transform="translate(268.141,-114.564) rotate(55)">
			<title>工作表.281</title>
			<desc>10ms</desc>
			<v:textBlock v:margins="rect(4,4,4,4)" v:tabSpace="42.5197"/>
			<v:textRect cx="41.1024" cy="261.517" width="82.21" height="14.1732"/>
			<rect x="0" y="254.43" width="82.2047" height="14.1732" class="st2"/>
			<text x="28.1" y="265.12" class="st3" v:langID="2052"><v:paragraph v:horizAlign="1"/><v:tabList/>10ms</text>		</g>
		<g id="shape282-19" v:mID="282" v:groupContext="shape" transform="translate(177.298,-143.056) rotate(27.8)">
			<title>工作表.282</title>
			<desc>100Mbps</desc>
			<v:textBlock v:margins="rect(4,4,4,4)" v:tabSpace="42.5197"/>
			<v:textRect cx="41.1024" cy="261.517" width="82.21" height="14.1732"/>
			<rect x="0" y="254.43" width="82.2047" height="14.1732" class="st2"/>
			<text x="18.43" y="265.12" class="st3" v:langID="2052"><v:paragraph v:horizAlign="1"/><v:tabList/>100Mbps</text>		</g>
		<g id="shape283-22" v:mID="283" v:groupContext="shape" transform="translate(170.938,-130.3) rotate(27.8)">
			<title>工作表.283</title>
			<desc>10ms</desc>
			<v:textBlock v:margins="rect(4,4,4,4)" v:tabSpace="42.5197"/>
			<v:textRect cx="41.1024" cy="261.517" width="82.21" height="14.1732"/>
			<rect x="0" y="254.43" width="82.2047" height="14.1732" class="st2"/>
			<text x="28.1" y="265.12" class="st3" v:langID="2052"><v:paragraph v:horizAlign="1"/><v:tabList/>10ms</text>		</g>
		<g id="shape284-25" v:mID="284" v:groupContext="shape" transform="translate(-72.5871,-65.9317) rotate(-27.5)">
			<title>工作表.284</title>
			<desc>100Mbps</desc>
			<v:textBlock v:margins="rect(4,4,4,4)" v:tabSpace="42.5197"/>
			<v:textRect cx="41.1024" cy="261.517" width="82.21" height="14.1732"/>
			<rect x="0" y="254.43" width="82.2047" height="14.1732" class="st2"/>
			<text x="18.43" y="265.12" class="st3" v:langID="2052"><v:paragraph v:horizAlign="1"/><v:tabList/>100Mbps</text>		</g>
		<g id="shape285-28" v:mID="285" v:groupContext="shape" transform="translate(-65.5914,-53.4227) rotate(-27.5)">
			<title>工作表.285</title>
			<desc>10ms</desc>
			<v:textBlock v:margins="rect(4,4,4,4)" v:tabSpace="42.5197"/>
			<v:textRect cx="41.1024" cy="261.517" width="82.21" height="14.1732"/>
			<rect x="0" y="254.43" width="82.2047" height="14.1732" class="st2"/>
			<text x="28.1" y="265.12" class="st3" v:langID="2052"><v:paragraph v:horizAlign="1"/><v:tabList/>10ms</text>		</g>
		<g id="shape286-31" v:mID="286" v:groupContext="shape" transform="translate(-151.799,70.9458) rotate(-55)">
			<title>工作表.286</title>
			<desc>100Mbps</desc>
			<v:textBlock v:margins="rect(4,4,4,4)" v:tabSpace="42.5197"/>
			<v:textRect cx="41.1024" cy="261.517" width="82.21" height="14.1732"/>
			<rect x="0" y="254.43" width="82.2047" height="14.1732" class="st2"/>
			<text x="18.43" y="265.12" class="st3" v:langID="2052"><v:paragraph v:horizAlign="1"/><v:tabList/>100Mbps</text>		</g>
		<g id="shape287-34" v:mID="287" v:groupContext="shape" transform="translate(-139.427,79.4497) rotate(-55)">
			<title>工作表.287</title>
			<desc>10ms</desc>
			<v:textBlock v:margins="rect(4,4,4,4)" v:tabSpace="42.5197"/>
			<v:textRect cx="41.1024" cy="261.517" width="82.21" height="14.1732"/>
			<rect x="0" y="254.43" width="82.2047" height="14.1732" class="st2"/>
			<text x="28.1" y="265.12" class="st3" v:langID="2052"><v:paragraph v:horizAlign="1"/><v:tabList/>10ms</text>		</g>
		<g id="shape338-37" v:mID="338" v:groupContext="shape" v:layerMember="0" transform="translate(616.077,-142.669)">
			<title>动态连接线.338</title>
			<path d="M0 268.6 L93.54 162.46" class="st1"/>
		</g>
		<g id="shape339-40" v:mID="339" v:groupContext="shape" v:layerMember="0" transform="translate(616.077,-134.362)">
			<title>动态连接线.339</title>
			<path d="M0 268.6 L93.54 230.45" class="st1"/>
		</g>
		<g id="shape340-43" v:mID="340" v:groupContext="shape" v:layerMember="0" transform="translate(616.077,-134.362)">
			<title>动态连接线.340</title>
			<path d="M0 268.6 L93.54 306.75" class="st1"/>
		</g>
		<g id="shape341-46" v:mID="341" v:groupContext="shape" v:layerMember="0" transform="translate(616.077,-126.223)">
			<title>动态连接线.341</title>
			<path d="M0 268.6 L93.54 374.91" class="st1"/>
		</g>
		<g id="shape230-49" v:mID="230" v:groupContext="shape" v:layerMember="0" transform="translate(178.124,-127.276)">
			<title>动态连接线.230</title>
			<path d="M0 261.52 L93.54 261.52" class="st1"/>
		</g>
		<g id="group208-52" transform="translate(125.683,-114.697)" v:mID="208" v:groupContext="group">
			<title>工作表.208</title>
			<g id="shape153-53" v:mID="153" v:groupContext="shape" transform="translate(2.03837E-13,-11.2373)">
				<title>矩形</title>
				<v:userDefs>
					<v:ud v:nameU="visVersion" v:val="VT0(15):26"/>
					<v:ud v:nameU="visMasterStencil" v:prompt="" v:val="VT4(Basic_M.vssx)"/>
				</v:userDefs>
				<rect x="0" y="251.747" width="52.4409" height="16.856" class="st4"/>
			</g>
			<g id="group207-55" v:mID="207" v:groupContext="group">
				<title>工作表.207</title>
				<g id="shape191-56" v:mID="191" v:groupContext="shape" transform="translate(6.13624E-07,0)">
					<title>工作表.191</title>
					<path d="M52.44 257.46 L0 257.46 A26.2209 11.2375 -180 0 0 52.44 257.46 L52.44 257.46 ZM52.44 257.46 L52.44 257.46
								 Z" class="st5"/>
					<path d="M52.44 257.46 L0 257.46 A26.2209 11.2375 -180 0 0 52.44 257.46M52.44 257.46 L52.44 257.46" class="st6"/>
				</g>
				<g id="shape203-59" v:mID="203" v:groupContext="shape" transform="translate(6.13649E-07,-11.1436)">
					<title>工作表.203</title>
					<path d="M26.22 257.27 L26.22 257.27 A26.2205 11.2373 -180 0 0 0 268.51 A26.2205 11.2373 -180 0 0 0 268.6 L52.44
								 268.6 A23.7051 10.1593 0 0 1 52.44 268.51 L52.44 268.51 A26.2205 11.2373 -180 0 0 26.22 257.27 Z"
							class="st7"/>
				</g>
				<g id="shape206-61" v:mID="206" v:groupContext="shape" transform="translate(6.79456E-14,-5.57182)">
					<title>椭圆形</title>
					<v:userDefs>
						<v:ud v:nameU="visVersion" v:val="VT0(15):26"/>
						<v:ud v:nameU="visMasterStencil" v:prompt="" v:val="VT4(Basic_M.vssx)"/>
					</v:userDefs>
					<path d="M0 262.65 A26.2205 5.95425 0 1 1 52.44 262.65 A26.2205 5.95425 0 1 1 0 262.65 Z" class="st8"/>
				</g>
			</g>
			<g id="shape154-63" v:mID="154" v:groupContext="shape" transform="translate(1.67866E-13,-16.7352)">
				<title>椭圆形</title>
				<desc>ER1</desc>
				<v:userDefs>
					<v:ud v:nameU="visVersion" v:val="VT0(15):26"/>
					<v:ud v:nameU="visMasterStencil" v:prompt="" v:val="VT4(Basic_M.vssx)"/>
				</v:userDefs>
				<v:textBlock v:margins="rect(4,4,4,4)" v:tabSpace="42.5197"/>
				<v:textRect cx="26.2205" cy="257.366" width="45.89" height="19.6654"/>
				<path d="M0 257.37 A26.2205 11.2373 0 1 1 52.44 257.37 A26.2205 11.2373 0 0 1 0 257.37 Z" class="st4"/>
				<text x="17.33" y="260.37" class="st9" v:langID="2052"><v:paragraph v:horizAlign="1"/><v:tabList/>ER1</text>			</g>
		</g>
		<g id="group209-66" transform="translate(271.667,-114.697)" v:mID="209" v:groupContext="group">
			<title>工作表.209</title>
			<g id="shape210-67" v:mID="210" v:groupContext="shape" transform="translate(2.03837E-13,-11.2373)">
				<title>矩形</title>
				<v:userDefs>
					<v:ud v:nameU="visVersion" v:val="VT0(15):26"/>
					<v:ud v:nameU="visMasterStencil" v:prompt="" v:val="VT4(Basic_M.vssx)"/>
				</v:userDefs>
				<rect x="0" y="251.747" width="52.4409" height="16.856" class="st4"/>
			</g>
			<g id="group211-69" v:mID="211" v:groupContext="group">
				<title>工作表.211</title>
				<g id="shape212-70" v:mID="212" v:groupContext="shape" transform="translate(6.13624E-07,0)">
					<title>工作表.212</title>
					<path d="M52.44 257.46 L0 257.46 A26.2209 11.2375 -180 0 0 52.44 257.46 L52.44 257.46 ZM52.44 257.46 L52.44 257.46
								 Z" class="st5"/>
					<path d="M52.44 257.46 L0 257.46 A26.2209 11.2375 -180 0 0 52.44 257.46M52.44 257.46 L52.44 257.46" class="st6"/>
				</g>
				<g id="shape213-73" v:mID="213" v:groupContext="shape" transform="translate(6.13649E-07,-11.1436)">
					<title>工作表.213</title>
					<path d="M26.22 257.27 L26.22 257.27 A26.2205 11.2373 -180 0 0 0 268.51 A26.2205 11.2373 -180 0 0 0 268.6 L52.44
								 268.6 A23.7051 10.1593 0 0 1 52.44 268.51 L52.44 268.51 A26.2205 11.2373 -180 0 0 26.22 257.27 Z"
							class="st7"/>
				</g>
				<g id="shape214-75" v:mID="214" v:groupContext="shape" transform="translate(6.79456E-14,-5.57182)">
					<title>椭圆形</title>
					<v:userDefs>
						<v:ud v:nameU="visVersion" v:val="VT0(15):26"/>
						<v:ud v:nameU="visMasterStencil" v:prompt="" v:val="VT4(Basic_M.vssx)"/>
					</v:userDefs>
					<path d="M0 262.65 A26.2205 5.95425 0 1 1 52.44 262.65 A26.2205 5.95425 0 1 1 0 262.65 Z" class="st8"/>
				</g>
			</g>
			<g id="shape215-77" v:mID="215" v:groupContext="shape" transform="translate(1.67866E-13,-16.7352)">
				<title>椭圆形</title>
				<desc>CR1</desc>
				<v:userDefs>
					<v:ud v:nameU="visVersion" v:val="VT0(15):26"/>
					<v:ud v:nameU="visMasterStencil" v:prompt="" v:val="VT4(Basic_M.vssx)"/>
				</v:userDefs>
				<v:textBlock v:margins="rect(4,4,4,4)" v:tabSpace="42.5197"/>
				<v:textRect cx="26.2205" cy="257.366" width="45.89" height="19.6654"/>
				<path d="M0 257.37 A26.2205 11.2373 0 1 1 52.44 257.37 A26.2205 11.2373 0 0 1 0 257.37 Z" class="st4"/>
				<text x="17.05" y="260.37" class="st9" v:langID="2052"><v:paragraph v:horizAlign="1"/><v:tabList/>CR1</text>			</g>
		</g>
		<g id="group216-80" transform="translate(417.652,-114.697)" v:mID="216" v:groupContext="group">
			<title>工作表.216</title>
			<g id="shape217-81" v:mID="217" v:groupContext="shape" transform="translate(2.03837E-13,-11.2373)">
				<title>矩形</title>
				<v:userDefs>
					<v:ud v:nameU="visVersion" v:val="VT0(15):26"/>
					<v:ud v:nameU="visMasterStencil" v:prompt="" v:val="VT4(Basic_M.vssx)"/>
				</v:userDefs>
				<rect x="0" y="251.747" width="52.4409" height="16.856" class="st4"/>
			</g>
			<g id="group218-83" v:mID="218" v:groupContext="group">
				<title>工作表.218</title>
				<g id="shape219-84" v:mID="219" v:groupContext="shape" transform="translate(6.13624E-07,0)">
					<title>工作表.219</title>
					<path d="M52.44 257.46 L0 257.46 A26.2209 11.2375 -180 0 0 52.44 257.46 L52.44 257.46 ZM52.44 257.46 L52.44 257.46
								 Z" class="st5"/>
					<path d="M52.44 257.46 L0 257.46 A26.2209 11.2375 -180 0 0 52.44 257.46M52.44 257.46 L52.44 257.46" class="st6"/>
				</g>
				<g id="shape220-87" v:mID="220" v:groupContext="shape" transform="translate(6.13649E-07,-11.1436)">
					<title>工作表.220</title>
					<path d="M26.22 257.27 L26.22 257.27 A26.2205 11.2373 -180 0 0 0 268.51 A26.2205 11.2373 -180 0 0 0 268.6 L52.44
								 268.6 A23.7051 10.1593 0 0 1 52.44 268.51 L52.44 268.51 A26.2205 11.2373 -180 0 0 26.22 257.27 Z"
							class="st7"/>
				</g>
				<g id="shape221-89" v:mID="221" v:groupContext="shape" transform="translate(6.79456E-14,-5.57182)">
					<title>椭圆形</title>
					<v:userDefs>
						<v:ud v:nameU="visVersion" v:val="VT0(15):26"/>
						<v:ud v:nameU="visMasterStencil" v:prompt="" v:val="VT4(Basic_M.vssx)"/>
					</v:userDefs>
					<path d="M0 262.65 A26.2205 5.95425 0 1 1 52.44 262.65 A26.2205 5.95425 0 1 1 0 262.65 Z" class="st8"/>
				</g>
			</g>
			<g id="shape222-91" v:mID="222" v:groupContext="shape" transform="translate(1.67866E-13,-16.7352)">
				<title>椭圆形</title>
				<desc>CR2</desc>
				<v:userDefs>
					<v:ud v:nameU="visVersion" v:val="VT0(15):26"/>
					<v:ud v:nameU="visMasterStencil" v:prompt="" v:val="VT4(Basic_M.vssx)"/>
				</v:userDefs>
				<v:textBlock v:margins="rect(4,4,4,4)" v:tabSpace="42.5197"/>
				<v:textRect cx="26.2205" cy="257.366" width="45.89" height="19.6654"/>
				<path d="M0 257.37 A26.2205 11.2373 0 1 1 52.44 257.37 A26.2205 11.2373 0 0 1 0 257.37 Z" class="st4"/>
				<text x="17.05" y="260.37" class="st9" v:langID="2052"><v:paragraph v:horizAlign="1"/><v:tabList/>CR2</text>			</g>
		</g>
		<g id="group223-94" transform="translate(563.636,-114.697)" v:mID="223" v:groupContext="group">
			<title>工作表.223</title>
			<g id="shape224-95" v:mID="224" v:groupContext="shape" transform="translate(2.03837E-13,-11.2373)">
				<title>矩形</title>
				<v:userDefs>
					<v:ud v:nameU="visVersion" v:val="VT0(15):26"/>
					<v:ud v:nameU="visMasterStencil" v:prompt="" v:val="VT4(Basic_M.vssx)"/>
				</v:userDefs>
				<rect x="0" y="251.747" width="52.4409" height="16.856" class="st4"/>
			</g>
			<g id="group225-97" v:mID="225" v:groupContext="group">
				<title>工作表.225</title>
				<g id="shape226-98" v:mID="226" v:groupContext="shape" transform="translate(6.13624E-07,0)">
					<title>工作表.226</title>
					<path d="M52.44 257.46 L0 257.46 A26.2209 11.2375 -180 0 0 52.44 257.46 L52.44 257.46 ZM52.44 257.46 L52.44 257.46
								 Z" class="st5"/>
					<path d="M52.44 257.46 L0 257.46 A26.2209 11.2375 -180 0 0 52.44 257.46M52.44 257.46 L52.44 257.46" class="st6"/>
				</g>
				<g id="shape227-101" v:mID="227" v:groupContext="shape" transform="translate(6.13649E-07,-11.1436)">
					<title>工作表.227</title>
					<path d="M26.22 257.27 L26.22 257.27 A26.2205 11.2373 -180 0 0 0 268.51 A26.2205 11.2373 -180 0 0 0 268.6 L52.44
								 268.6 A23.7051 10.1593 0 0 1 52.44 268.51 L52.44 268.51 A26.2205 11.2373 -180 0 0 26.22 257.27 Z"
							class="st7"/>
				</g>
				<g id="shape228-103" v:mID="228" v:groupContext="shape" transform="translate(6.79456E-14,-5.57182)">
					<title>椭圆形</title>
					<v:userDefs>
						<v:ud v:nameU="visVersion" v:val="VT0(15):26"/>
						<v:ud v:nameU="visMasterStencil" v:prompt="" v:val="VT4(Basic_M.vssx)"/>
					</v:userDefs>
					<path d="M0 262.65 A26.2205 5.95425 0 1 1 52.44 262.65 A26.2205 5.95425 0 1 1 0 262.65 Z" class="st8"/>
				</g>
			</g>
			<g id="shape229-105" v:mID="229" v:groupContext="shape" transform="translate(1.67866E-13,-16.7352)">
				<title>椭圆形</title>
				<desc>ER2</desc>
				<v:userDefs>
					<v:ud v:nameU="visVersion" v:val="VT0(15):26"/>
					<v:ud v:nameU="visMasterStencil" v:prompt="" v:val="VT4(Basic_M.vssx)"/>
				</v:userDefs>
				<v:textBlock v:margins="rect(4,4,4,4)" v:tabSpace="42.5197"/>
				<v:textRect cx="26.2205" cy="257.366" width="45.89" height="19.6654"/>
				<path d="M0 257.37 A26.2205 11.2373 0 1 1 52.44 257.37 A26.2205 11.2373 0 0 1 0 257.37 Z" class="st4"/>
				<text x="17.33" y="260.37" class="st9" v:langID="2052"><v:paragraph v:horizAlign="1"/><v:tabList/>ER2</text>			</g>
		</g>
		<g id="shape232-108" v:mID="232" v:groupContext="shape" transform="translate(183.793,-137.136)">
			<title>工作表.232</title>
			<desc>100Mbps</desc>
			<v:textBlock v:margins="rect(4,4,4,4)" v:tabSpace="42.5197"/>
			<v:textRect cx="41.1024" cy="261.517" width="82.21" height="14.1732"/>
			<rect x="0" y="254.43" width="82.2047" height="14.1732" class="st2"/>
			<text x="18.43" y="265.12" class="st3" v:langID="2052"><v:paragraph v:horizAlign="1"/><v:tabList/>100Mbps</text>		</g>
		<g id="shape239-111" v:mID="239" v:groupContext="shape" transform="translate(183.793,-117.294)">
			<title>工作表.239</title>
			<desc>10ms</desc>
			<v:textBlock v:margins="rect(4,4,4,4)" v:tabSpace="42.5197"/>
			<v:textRect cx="41.1024" cy="261.517" width="82.21" height="14.1732"/>
			<rect x="0" y="254.43" width="82.2047" height="14.1732" class="st2"/>
			<text x="28.1" y="265.12" class="st3" v:langID="2052"><v:paragraph v:horizAlign="1"/><v:tabList/>10ms</text>		</g>
		<g id="shape241-114" v:mID="241" v:groupContext="shape" v:layerMember="0" transform="translate(324.108,-127.276)">
			<title>动态连接线.241</title>
			<path d="M0 261.52 L93.54 261.52" class="st1"/>
		</g>
		<g id="shape242-117" v:mID="242" v:groupContext="shape" transform="translate(329.778,-135.542)">
			<title>工作表.242</title>
			<desc>10Mbps</desc>
			<v:textBlock v:margins="rect(4,4,4,4)" v:tabSpace="42.5197"/>
			<v:textRect cx="41.1024" cy="261.517" width="82.21" height="14.1732"/>
			<rect x="0" y="254.43" width="82.2047" height="14.1732" class="st2"/>
			<text x="21.43" y="265.12" class="st10" v:langID="2052"><v:paragraph v:horizAlign="1"/><v:tabList/>10Mbps</text>		</g>
		<g id="shape243-120" v:mID="243" v:groupContext="shape" transform="translate(329.778,-118.711)">
			<title>工作表.243</title>
			<desc>10ms</desc>
			<v:textBlock v:margins="rect(4,4,4,4)" v:tabSpace="42.5197"/>
			<v:textRect cx="41.1024" cy="261.517" width="82.21" height="14.1732"/>
			<rect x="0" y="254.43" width="82.2047" height="14.1732" class="st2"/>
			<text x="28.1" y="265.12" class="st3" v:langID="2052"><v:paragraph v:horizAlign="1"/><v:tabList/>10ms</text>		</g>
		<g id="shape244-123" v:mID="244" v:groupContext="shape" v:layerMember="0" transform="translate(470.093,-127.276)">
			<title>动态连接线.244</title>
			<path d="M0 261.52 L93.54 261.52" class="st1"/>
		</g>
		<g id="shape245-126" v:mID="245" v:groupContext="shape" transform="translate(475.762,-135.719)">
			<title>工作表.245</title>
			<desc>100Mbps</desc>
			<v:textBlock v:margins="rect(4,4,4,4)" v:tabSpace="42.5197"/>
			<v:textRect cx="41.1024" cy="261.517" width="82.21" height="14.1732"/>
			<rect x="0" y="254.43" width="82.2047" height="14.1732" class="st2"/>
			<text x="18.43" y="265.12" class="st3" v:langID="2052"><v:paragraph v:horizAlign="1"/><v:tabList/>100Mbps</text>		</g>
		<g id="shape246-129" v:mID="246" v:groupContext="shape" transform="translate(475.762,-118.711)">
			<title>工作表.246</title>
			<desc>10ms</desc>
			<v:textBlock v:margins="rect(4,4,4,4)" v:tabSpace="42.5197"/>
			<v:textRect cx="41.1024" cy="261.517" width="82.21" height="14.1732"/>
			<rect x="0" y="254.43" width="82.2047" height="14.1732" class="st2"/>
			<text x="28.1" y="265.12" class="st3" v:langID="2052"><v:paragraph v:horizAlign="1"/><v:tabList/>10ms</text>		</g>
		<g id="group247-132" transform="translate(0.25,-229.144)" v:mID="247" v:groupContext="group">
			<title>工作表.247</title>
			<g id="shape248-133" v:mID="248" v:groupContext="shape" transform="translate(2.03837E-13,-11.2373)">
				<title>矩形</title>
				<v:userDefs>
					<v:ud v:nameU="visVersion" v:val="VT0(15):26"/>
					<v:ud v:nameU="visMasterStencil" v:prompt="" v:val="VT4(Basic_M.vssx)"/>
				</v:userDefs>
				<rect x="0" y="251.747" width="52.4409" height="16.856" class="st11"/>
			</g>
			<g id="group249-135" v:mID="249" v:groupContext="group">
				<title>工作表.249</title>
				<g id="shape250-136" v:mID="250" v:groupContext="shape" transform="translate(6.13624E-07,0)">
					<title>工作表.250</title>
					<path d="M52.44 257.46 L0 257.46 A26.2209 11.2375 -180 0 0 52.44 257.46 L52.44 257.46 ZM52.44 257.46 L52.44 257.46
								 Z" class="st12"/>
					<path d="M52.44 257.46 L0 257.46 A26.2209 11.2375 -180 0 0 52.44 257.46M52.44 257.46 L52.44 257.46"
							class="st13"/>
				</g>
				<g id="shape251-139" v:mID="251" v:groupContext="shape" transform="translate(6.13649E-07,-11.1436)">
					<title>工作表.251</title>
					<path d="M26.22 257.27 L26.22 257.27 A26.2205 11.2373 -180 0 0 0 268.51 A26.2205 11.2373 -180 0 0 0 268.6 L52.44
								 268.6 A23.7051 10.1593 0 0 1 52.44 268.51 L52.44 268.51 A26.2205 11.2373 -180 0 0 26.22 257.27 Z"
							class="st14"/>
				</g>
				<g id="shape252-141" v:mID="252" v:groupContext="shape" transform="translate(6.79456E-14,-5.57182)">
					<title>椭圆形</title>
					<v:userDefs>
						<v:ud v:nameU="visVersion" v:val="VT0(15):26"/>
						<v:ud v:nameU="visMasterStencil" v:prompt="" v:val="VT4(Basic_M.vssx)"/>
					</v:userDefs>
					<path d="M0 262.65 A26.2205 5.95425 0 1 1 52.44 262.65 A26.2205 5.95425 0 1 1 0 262.65 Z" class="st15"/>
				</g>
			</g>
			<g id="shape253-143" v:mID="253" v:groupContext="shape" transform="translate(1.67866E-13,-16.7352)">
				<title>椭圆形</title>
				<desc>C1</desc>
				<v:userDefs>
					<v:ud v:nameU="visVersion" v:val="VT0(15):26"/>
					<v:ud v:nameU="visMasterStencil" v:prompt="" v:val="VT4(Basic_M.vssx)"/>
				</v:userDefs>
				<v:textBlock v:margins="rect(4,4,4,4)" v:tabSpace="42.5197"/>
				<v:textRect cx="26.2205" cy="257.366" width="45.89" height="19.6654"/>
				<path d="M0 257.37 A26.2205 11.2373 0 1 1 52.44 257.37 A26.2205 11.2373 0 0 1 0 257.37 Z" class="st11"/>
				<text x="20.39" y="260.37" class="st9" v:langID="2052"><v:paragraph v:horizAlign="1"/><v:tabList/>C1</text>			</g>
		</g>
		<g id="group254-146" transform="translate(0.25,-152.846)" v:mID="254" v:groupContext="group">
			<title>工作表.254</title>
			<g id="shape255-147" v:mID="255" v:groupContext="shape" transform="translate(2.03837E-13,-11.2373)">
				<title>矩形</title>
				<v:userDefs>
					<v:ud v:nameU="visVersion" v:val="VT0(15):26"/>
					<v:ud v:nameU="visMasterStencil" v:prompt="" v:val="VT4(Basic_M.vssx)"/>
				</v:userDefs>
				<rect x="0" y="251.747" width="52.4409" height="16.856" class="st11"/>
			</g>
			<g id="group256-149" v:mID="256" v:groupContext="group">
				<title>工作表.256</title>
				<g id="shape257-150" v:mID="257" v:groupContext="shape" transform="translate(6.13624E-07,0)">
					<title>工作表.257</title>
					<path d="M52.44 257.46 L0 257.46 A26.2209 11.2375 -180 0 0 52.44 257.46 L52.44 257.46 ZM52.44 257.46 L52.44 257.46
								 Z" class="st12"/>
					<path d="M52.44 257.46 L0 257.46 A26.2209 11.2375 -180 0 0 52.44 257.46M52.44 257.46 L52.44 257.46"
							class="st13"/>
				</g>
				<g id="shape258-153" v:mID="258" v:groupContext="shape" transform="translate(6.13649E-07,-11.1436)">
					<title>工作表.258</title>
					<path d="M26.22 257.27 L26.22 257.27 A26.2205 11.2373 -180 0 0 0 268.51 A26.2205 11.2373 -180 0 0 0 268.6 L52.44
								 268.6 A23.7051 10.1593 0 0 1 52.44 268.51 L52.44 268.51 A26.2205 11.2373 -180 0 0 26.22 257.27 Z"
							class="st14"/>
				</g>
				<g id="shape259-155" v:mID="259" v:groupContext="shape" transform="translate(6.79456E-14,-5.57182)">
					<title>椭圆形</title>
					<v:userDefs>
						<v:ud v:nameU="visVersion" v:val="VT0(15):26"/>
						<v:ud v:nameU="visMasterStencil" v:prompt="" v:val="VT4(Basic_M.vssx)"/>
					</v:userDefs>
					<path d="M0 262.65 A26.2205 5.95425 0 1 1 52.44 262.65 A26.2205 5.95425 0 1 1 0 262.65 Z" class="st15"/>
				</g>
			</g>
			<g id="shape260-157" v:mID="260" v:groupContext="shape" transform="translate(1.67866E-13,-16.7352)">
				<title>椭圆形</title>
				<desc>C2</desc>
				<v:userDefs>
					<v:ud v:nameU="visVersion" v:val="VT0(15):26"/>
					<v:ud v:nameU="visMasterStencil" v:prompt="" v:val="VT4(Basic_M.vssx)"/>
				</v:userDefs>
				<v:textBlock v:margins="rect(4,4,4,4)" v:tabSpace="42.5197"/>
				<v:textRect cx="26.2205" cy="257.366" width="45.89" height="19.6654"/>
				<path d="M0 257.37 A26.2205 11.2373 0 1 1 52.44 257.37 A26.2205 11.2373 0 0 1 0 257.37 Z" class="st11"/>
				<text x="20.39" y="260.37" class="st9" v:langID="2052"><v:paragraph v:horizAlign="1"/><v:tabList/>C2</text>			</g>
		</g>
		<g id="group261-160" transform="translate(0.25,-76.5479)" v:mID="261" v:groupContext="group">
			<title>工作表.261</title>
			<g id="shape262-161" v:mID="262" v:groupContext="shape" transform="translate(2.03837E-13,-11.2373)">
				<title>矩形</title>
				<v:userDefs>
					<v:ud v:nameU="visVersion" v:val="VT0(15):26"/>
					<v:ud v:nameU="visMasterStencil" v:prompt="" v:val="VT4(Basic_M.vssx)"/>
				</v:userDefs>
				<rect x="0" y="251.747" width="52.4409" height="16.856" class="st11"/>
			</g>
			<g id="group263-163" v:mID="263" v:groupContext="group">
				<title>工作表.263</title>
				<g id="shape264-164" v:mID="264" v:groupContext="shape" transform="translate(6.13624E-07,0)">
					<title>工作表.264</title>
					<path d="M52.44 257.46 L0 257.46 A26.2209 11.2375 -180 0 0 52.44 257.46 L52.44 257.46 ZM52.44 257.46 L52.44 257.46
								 Z" class="st12"/>
					<path d="M52.44 257.46 L0 257.46 A26.2209 11.2375 -180 0 0 52.44 257.46M52.44 257.46 L52.44 257.46"
							class="st13"/>
				</g>
				<g id="shape265-167" v:mID="265" v:groupContext="shape" transform="translate(6.13649E-07,-11.1436)">
					<title>工作表.265</title>
					<path d="M26.22 257.27 L26.22 257.27 A26.2205 11.2373 -180 0 0 0 268.51 A26.2205 11.2373 -180 0 0 0 268.6 L52.44
								 268.6 A23.7051 10.1593 0 0 1 52.44 268.51 L52.44 268.51 A26.2205 11.2373 -180 0 0 26.22 257.27 Z"
							class="st14"/>
				</g>
				<g id="shape266-169" v:mID="266" v:groupContext="shape" transform="translate(6.79456E-14,-5.57182)">
					<title>椭圆形</title>
					<v:userDefs>
						<v:ud v:nameU="visVersion" v:val="VT0(15):26"/>
						<v:ud v:nameU="visMasterStencil" v:prompt="" v:val="VT4(Basic_M.vssx)"/>
					</v:userDefs>
					<path d="M0 262.65 A26.2205 5.95425 0 1 1 52.44 262.65 A26.2205 5.95425 0 1 1 0 262.65 Z" class="st15"/>
				</g>
			</g>
			<g id="shape267-171" v:mID="267" v:groupContext="shape" transform="translate(1.67866E-13,-16.7352)">
				<title>椭圆形</title>
				<desc>C3</desc>
				<v:userDefs>
					<v:ud v:nameU="visVersion" v:val="VT0(15):26"/>
					<v:ud v:nameU="visMasterStencil" v:prompt="" v:val="VT4(Basic_M.vssx)"/>
				</v:userDefs>
				<v:textBlock v:margins="rect(4,4,4,4)" v:tabSpace="42.5197"/>
				<v:textRect cx="26.2205" cy="257.366" width="45.89" height="19.6654"/>
				<path d="M0 257.37 A26.2205 11.2373 0 1 1 52.44 257.37 A26.2205 11.2373 0 0 1 0 257.37 Z" class="st11"/>
				<text x="20.39" y="260.37" class="st9" v:langID="2052"><v:paragraph v:horizAlign="1"/><v:tabList/>C3</text>			</g>
		</g>
		<g id="group268-174" transform="translate(0.25,-0.25)" v:mID="268" v:groupContext="group">
			<title>工作表.268</title>
			<g id="shape269-175" v:mID="269" v:groupContext="shape" transform="translate(2.03837E-13,-11.2373)">
				<title>矩形</title>
				<v:userDefs>
					<v:ud v:nameU="visVersion" v:val="VT0(15):26"/>
					<v:ud v:nameU="visMasterStencil" v:prompt="" v:val="VT4(Basic_M.vssx)"/>
				</v:userDefs>
				<rect x="0" y="251.747" width="52.4409" height="16.856" class="st11"/>
			</g>
			<g id="group270-177" v:mID="270" v:groupContext="group">
				<title>工作表.270</title>
				<g id="shape271-178" v:mID="271" v:groupContext="shape" transform="translate(6.13624E-07,0)">
					<title>工作表.271</title>
					<path d="M52.44 257.46 L0 257.46 A26.2209 11.2375 -180 0 0 52.44 257.46 L52.44 257.46 ZM52.44 257.46 L52.44 257.46
								 Z" class="st12"/>
					<path d="M52.44 257.46 L0 257.46 A26.2209 11.2375 -180 0 0 52.44 257.46M52.44 257.46 L52.44 257.46"
							class="st13"/>
				</g>
				<g id="shape272-181" v:mID="272" v:groupContext="shape" transform="translate(6.13649E-07,-11.1436)">
					<title>工作表.272</title>
					<path d="M26.22 257.27 L26.22 257.27 A26.2205 11.2373 -180 0 0 0 268.51 A26.2205 11.2373 -180 0 0 0 268.6 L52.44
								 268.6 A23.7051 10.1593 0 0 1 52.44 268.51 L52.44 268.51 A26.2205 11.2373 -180 0 0 26.22 257.27 Z"
							class="st14"/>
				</g>
				<g id="shape273-183" v:mID="273" v:groupContext="shape" transform="translate(6.79456E-14,-5.57182)">
					<title>椭圆形</title>
					<v:userDefs>
						<v:ud v:nameU="visVersion" v:val="VT0(15):26"/>
						<v:ud v:nameU="visMasterStencil" v:prompt="" v:val="VT4(Basic_M.vssx)"/>
					</v:userDefs>
					<path d="M0 262.65 A26.2205 5.95425 0 1 1 52.44 262.65 A26.2205 5.95425 0 1 1 0 262.65 Z" class="st15"/>
				</g>
			</g>
			<g id="shape274-185" v:mID="274" v:groupContext="shape" transform="translate(1.67866E-13,-16.7352)">
				<title>椭圆形</title>
				<desc>C4</desc>
				<v:userDefs>
					<v:ud v:nameU="visVersion" v:val="VT0(15):26"/>
					<v:ud v:nameU="visMasterStencil" v:prompt="" v:val="VT4(Basic_M.vssx)"/>
				</v:userDefs>
				<v:textBlock v:margins="rect(4,4,4,4)" v:tabSpace="42.5197"/>
				<v:textRect cx="26.2205" cy="257.366" width="45.89" height="19.6654"/>
				<path d="M0 257.37 A26.2205 11.2373 0 1 1 52.44 257.37 A26.2205 11.2373 0 0 1 0 257.37 Z" class="st11"/>
				<text x="20.39" y="260.37" class="st9" v:langID="2052"><v:paragraph v:horizAlign="1"/><v:tabList/>C4</text>			</g>
		</g>
		<g id="group288-188" transform="translate(709.62,-229.144)" v:mID="288" v:groupContext="group">
			<title>工作表.288</title>
			<g id="shape289-189" v:mID="289" v:groupContext="shape" transform="translate(2.03837E-13,-11.2373)">
				<title>矩形</title>
				<v:userDefs>
					<v:ud v:nameU="visVersion" v:val="VT0(15):26"/>
					<v:ud v:nameU="visMasterStencil" v:prompt="" v:val="VT4(Basic_M.vssx)"/>
				</v:userDefs>
				<rect x="0" y="251.747" width="52.4409" height="16.856" class="st16"/>
			</g>
			<g id="group290-191" v:mID="290" v:groupContext="group">
				<title>工作表.290</title>
				<g id="shape291-192" v:mID="291" v:groupContext="shape" transform="translate(6.13624E-07,0)">
					<title>工作表.291</title>
					<path d="M52.44 257.46 L0 257.46 A26.2209 11.2375 -180 0 0 52.44 257.46 L52.44 257.46 ZM52.44 257.46 L52.44 257.46
								 Z" class="st17"/>
					<path d="M52.44 257.46 L0 257.46 A26.2209 11.2375 -180 0 0 52.44 257.46M52.44 257.46 L52.44 257.46"
							class="st18"/>
				</g>
				<g id="shape292-195" v:mID="292" v:groupContext="shape" transform="translate(6.13649E-07,-11.1436)">
					<title>工作表.292</title>
					<path d="M26.22 257.27 L26.22 257.27 A26.2205 11.2373 -180 0 0 0 268.51 A26.2205 11.2373 -180 0 0 0 268.6 L52.44
								 268.6 A23.7051 10.1593 0 0 1 52.44 268.51 L52.44 268.51 A26.2205 11.2373 -180 0 0 26.22 257.27 Z"
							class="st19"/>
				</g>
				<g id="shape293-197" v:mID="293" v:groupContext="shape" transform="translate(6.79456E-14,-5.57182)">
					<title>椭圆形</title>
					<v:userDefs>
						<v:ud v:nameU="visVersion" v:val="VT0(15):26"/>
						<v:ud v:nameU="visMasterStencil" v:prompt="" v:val="VT4(Basic_M.vssx)"/>
					</v:userDefs>
					<path d="M0 262.65 A26.2205 5.95425 0 1 1 52.44 262.65 A26.2205 5.95425 0 1 1 0 262.65 Z" class="st20"/>
				</g>
			</g>
			<g id="shape294-199" v:mID="294" v:groupContext="shape" transform="translate(1.67866E-13,-16.7352)">
				<title>椭圆形</title>
				<desc>P1</desc>
				<v:userDefs>
					<v:ud v:nameU="visVersion" v:val="VT0(15):26"/>
					<v:ud v:nameU="visMasterStencil" v:prompt="" v:val="VT4(Basic_M.vssx)"/>
				</v:userDefs>
				<v:textBlock v:margins="rect(4,4,4,4)" v:tabSpace="42.5197"/>
				<v:textRect cx="26.2205" cy="257.366" width="45.89" height="19.6654"/>
				<path d="M0 257.37 A26.2205 11.2373 0 1 1 52.44 257.37 A26.2205 11.2373 0 0 1 0 257.37 Z" class="st16"/>
				<text x="20.94" y="260.37" class="st9" v:langID="2052"><v:paragraph v:horizAlign="1"/><v:tabList/>P1</text>			</g>
		</g>
		<g id="group317-202" transform="translate(709.62,-152.846)" v:mID="317" v:groupContext="group">
			<title>工作表.317</title>
			<g id="shape318-203" v:mID="318" v:groupContext="shape" transform="translate(2.03837E-13,-11.2373)">
				<title>矩形</title>
				<v:userDefs>
					<v:ud v:nameU="visVersion" v:val="VT0(15):26"/>
					<v:ud v:nameU="visMasterStencil" v:prompt="" v:val="VT4(Basic_M.vssx)"/>
				</v:userDefs>
				<rect x="0" y="251.747" width="52.4409" height="16.856" class="st16"/>
			</g>
			<g id="group319-205" v:mID="319" v:groupContext="group">
				<title>工作表.319</title>
				<g id="shape320-206" v:mID="320" v:groupContext="shape" transform="translate(6.13624E-07,0)">
					<title>工作表.320</title>
					<path d="M52.44 257.46 L0 257.46 A26.2209 11.2375 -180 0 0 52.44 257.46 L52.44 257.46 ZM52.44 257.46 L52.44 257.46
								 Z" class="st17"/>
					<path d="M52.44 257.46 L0 257.46 A26.2209 11.2375 -180 0 0 52.44 257.46M52.44 257.46 L52.44 257.46"
							class="st18"/>
				</g>
				<g id="shape321-209" v:mID="321" v:groupContext="shape" transform="translate(6.13649E-07,-11.1436)">
					<title>工作表.321</title>
					<path d="M26.22 257.27 L26.22 257.27 A26.2205 11.2373 -180 0 0 0 268.51 A26.2205 11.2373 -180 0 0 0 268.6 L52.44
								 268.6 A23.7051 10.1593 0 0 1 52.44 268.51 L52.44 268.51 A26.2205 11.2373 -180 0 0 26.22 257.27 Z"
							class="st19"/>
				</g>
				<g id="shape322-211" v:mID="322" v:groupContext="shape" transform="translate(6.79456E-14,-5.57182)">
					<title>椭圆形</title>
					<v:userDefs>
						<v:ud v:nameU="visVersion" v:val="VT0(15):26"/>
						<v:ud v:nameU="visMasterStencil" v:prompt="" v:val="VT4(Basic_M.vssx)"/>
					</v:userDefs>
					<path d="M0 262.65 A26.2205 5.95425 0 1 1 52.44 262.65 A26.2205 5.95425 0 1 1 0 262.65 Z" class="st20"/>
				</g>
			</g>
			<g id="shape323-213" v:mID="323" v:groupContext="shape" transform="translate(1.67866E-13,-16.7352)">
				<title>椭圆形</title>
				<desc>P2</desc>
				<v:userDefs>
					<v:ud v:nameU="visVersion" v:val="VT0(15):26"/>
					<v:ud v:nameU="visMasterStencil" v:prompt="" v:val="VT4(Basic_M.vssx)"/>
				</v:userDefs>
				<v:textBlock v:margins="rect(4,4,4,4)" v:tabSpace="42.5197"/>
				<v:textRect cx="26.2205" cy="257.366" width="45.89" height="19.6654"/>
				<path d="M0 257.37 A26.2205 11.2373 0 1 1 52.44 257.37 A26.2205 11.2373 0 0 1 0 257.37 Z" class="st16"/>
				<text x="20.94" y="260.37" class="st9" v:langID="2052"><v:paragraph v:horizAlign="1"/><v:tabList/>P2</text>			</g>
		</g>
		<g id="group324-216" transform="translate(709.62,-76.5479)" v:mID="324" v:groupContext="group">
			<title>工作表.324</title>
			<g id="shape325-217" v:mID="325" v:groupContext="shape" transform="translate(2.03837E-13,-11.2373)">
				<title>矩形</title>
				<v:userDefs>
					<v:ud v:nameU="visVersion" v:val="VT0(15):26"/>
					<v:ud v:nameU="visMasterStencil" v:prompt="" v:val="VT4(Basic_M.vssx)"/>
				</v:userDefs>
				<rect x="0" y="251.747" width="52.4409" height="16.856" class="st16"/>
			</g>
			<g id="group326-219" v:mID="326" v:groupContext="group">
				<title>工作表.326</title>
				<g id="shape327-220" v:mID="327" v:groupContext="shape" transform="translate(6.13624E-07,0)">
					<title>工作表.327</title>
					<path d="M52.44 257.46 L0 257.46 A26.2209 11.2375 -180 0 0 52.44 257.46 L52.44 257.46 ZM52.44 257.46 L52.44 257.46
								 Z" class="st17"/>
					<path d="M52.44 257.46 L0 257.46 A26.2209 11.2375 -180 0 0 52.44 257.46M52.44 257.46 L52.44 257.46"
							class="st18"/>
				</g>
				<g id="shape328-223" v:mID="328" v:groupContext="shape" transform="translate(6.13649E-07,-11.1436)">
					<title>工作表.328</title>
					<path d="M26.22 257.27 L26.22 257.27 A26.2205 11.2373 -180 0 0 0 268.51 A26.2205 11.2373 -180 0 0 0 268.6 L52.44
								 268.6 A23.7051 10.1593 0 0 1 52.44 268.51 L52.44 268.51 A26.2205 11.2373 -180 0 0 26.22 257.27 Z"
							class="st19"/>
				</g>
				<g id="shape329-225" v:mID="329" v:groupContext="shape" transform="translate(6.79456E-14,-5.57182)">
					<title>椭圆形</title>
					<v:userDefs>
						<v:ud v:nameU="visVersion" v:val="VT0(15):26"/>
						<v:ud v:nameU="visMasterStencil" v:prompt="" v:val="VT4(Basic_M.vssx)"/>
					</v:userDefs>
					<path d="M0 262.65 A26.2205 5.95425 0 1 1 52.44 262.65 A26.2205 5.95425 0 1 1 0 262.65 Z" class="st20"/>
				</g>
			</g>
			<g id="shape330-227" v:mID="330" v:groupContext="shape" transform="translate(1.67866E-13,-16.7352)">
				<title>椭圆形</title>
				<desc>P3</desc>
				<v:userDefs>
					<v:ud v:nameU="visVersion" v:val="VT0(15):26"/>
					<v:ud v:nameU="visMasterStencil" v:prompt="" v:val="VT4(Basic_M.vssx)"/>
				</v:userDefs>
				<v:textBlock v:margins="rect(4,4,4,4)" v:tabSpace="42.5197"/>
				<v:textRect cx="26.2205" cy="257.366" width="45.89" height="19.6654"/>
				<path d="M0 257.37 A26.2205 11.2373 0 1 1 52.44 257.37 A26.2205 11.2373 0 0 1 0 257.37 Z" class="st16"/>
				<text x="20.94" y="260.37" class="st9" v:langID="2052"><v:paragraph v:horizAlign="1"/><v:tabList/>P3</text>			</g>
		</g>
		<g id="group331-230" transform="translate(709.62,-0.25)" v:mID="331" v:groupContext="group">
			<title>工作表.331</title>
			<g id="shape332-231" v:mID="332" v:groupContext="shape" transform="translate(2.03837E-13,-11.2373)">
				<title>矩形</title>
				<v:userDefs>
					<v:ud v:nameU="visVersion" v:val="VT0(15):26"/>
					<v:ud v:nameU="visMasterStencil" v:prompt="" v:val="VT4(Basic_M.vssx)"/>
				</v:userDefs>
				<rect x="0" y="251.747" width="52.4409" height="16.856" class="st16"/>
			</g>
			<g id="group333-233" v:mID="333" v:groupContext="group">
				<title>工作表.333</title>
				<g id="shape334-234" v:mID="334" v:groupContext="shape" transform="translate(6.13624E-07,0)">
					<title>工作表.334</title>
					<path d="M52.44 257.46 L0 257.46 A26.2209 11.2375 -180 0 0 52.44 257.46 L52.44 257.46 ZM52.44 257.46 L52.44 257.46
								 Z" class="st17"/>
					<path d="M52.44 257.46 L0 257.46 A26.2209 11.2375 -180 0 0 52.44 257.46M52.44 257.46 L52.44 257.46"
							class="st18"/>
				</g>
				<g id="shape335-237" v:mID="335" v:groupContext="shape" transform="translate(6.13649E-07,-11.1436)">
					<title>工作表.335</title>
					<path d="M26.22 257.27 L26.22 257.27 A26.2205 11.2373 -180 0 0 0 268.51 A26.2205 11.2373 -180 0 0 0 268.6 L52.44
								 268.6 A23.7051 10.1593 0 0 1 52.44 268.51 L52.44 268.51 A26.2205 11.2373 -180 0 0 26.22 257.27 Z"
							class="st19"/>
				</g>
				<g id="shape336-239" v:mID="336" v:groupContext="shape" transform="translate(6.79456E-14,-5.57182)">
					<title>椭圆形</title>
					<v:userDefs>
						<v:ud v:nameU="visVersion" v:val="VT0(15):26"/>
						<v:ud v:nameU="visMasterStencil" v:prompt="" v:val="VT4(Basic_M.vssx)"/>
					</v:userDefs>
					<path d="M0 262.65 A26.2205 5.95425 0 1 1 52.44 262.65 A26.2205 5.95425 0 1 1 0 262.65 Z" class="st20"/>
				</g>
			</g>
			<g id="shape337-241" v:mID="337" v:groupContext="shape" transform="translate(1.67866E-13,-16.7352)">
				<title>椭圆形</title>
				<desc>P4</desc>
				<v:userDefs>
					<v:ud v:nameU="visVersion" v:val="VT0(15):26"/>
					<v:ud v:nameU="visMasterStencil" v:prompt="" v:val="VT4(Basic_M.vssx)"/>
				</v:userDefs>
				<v:textBlock v:margins="rect(4,4,4,4)" v:tabSpace="42.5197"/>
				<v:textRect cx="26.2205" cy="257.366" width="45.89" height="19.6654"/>
				<path d="M0 257.37 A26.2205 11.2373 0 1 1 52.44 257.37 A26.2205 11.2373 0 0 1 0 257.37 Z" class="st16"/>
				<text x="20.94" y="260.37" class="st9" v:langID="2052"><v:paragraph v:horizAlign="1"/><v:tabList/>P4</text>			</g>
		</g>
		<g id="shape342-244" v:mID="342" v:groupContext="shape" transform="translate(435.161,-78.1737) rotate(-48)">
			<title>工作表.342</title>
			<desc>100Mbps</desc>
			<v:textBlock v:margins="rect(4,4,4,4)" v:tabSpace="42.5197"/>
			<v:textRect cx="41.1024" cy="261.517" width="82.21" height="14.1732"/>
			<rect x="0" y="254.43" width="82.2047" height="14.1732" class="st2"/>
			<text x="18.43" y="265.12" class="st3" v:langID="2052"><v:paragraph v:horizAlign="1"/><v:tabList/>100Mbps</text>		</g>
		<g id="shape343-247" v:mID="343" v:groupContext="shape" transform="translate(446.841,-68.1063) rotate(-48)">
			<title>工作表.343</title>
			<desc>10ms</desc>
			<v:textBlock v:margins="rect(4,4,4,4)" v:tabSpace="42.5197"/>
			<v:textRect cx="41.1024" cy="261.517" width="82.21" height="14.1732"/>
			<rect x="0" y="254.43" width="82.2047" height="14.1732" class="st2"/>
			<text x="28.1" y="265.12" class="st3" v:langID="2052"><v:paragraph v:horizAlign="1"/><v:tabList/>10ms</text>		</g>
		<g id="shape344-250" v:mID="344" v:groupContext="shape" transform="translate(526.435,-120.412) rotate(-22)">
			<title>工作表.344</title>
			<desc>100Mbps</desc>
			<v:textBlock v:margins="rect(4,4,4,4)" v:tabSpace="42.5197"/>
			<v:textRect cx="41.1024" cy="261.517" width="82.21" height="14.1732"/>
			<rect x="0" y="254.43" width="82.2047" height="14.1732" class="st2"/>
			<text x="18.43" y="265.12" class="st3" v:langID="2052"><v:paragraph v:horizAlign="1"/><v:tabList/>100Mbps</text>		</g>
		<g id="shape345-253" v:mID="345" v:groupContext="shape" transform="translate(532.104,-106.949) rotate(-22)">
			<title>工作表.345</title>
			<desc>10ms</desc>
			<v:textBlock v:margins="rect(4,4,4,4)" v:tabSpace="42.5197"/>
			<v:textRect cx="41.1024" cy="261.517" width="82.21" height="14.1732"/>
			<rect x="0" y="254.43" width="82.2047" height="14.1732" class="st2"/>
			<text x="28.1" y="265.12" class="st3" v:langID="2052"><v:paragraph v:horizAlign="1"/><v:tabList/>10ms</text>		</g>
		<g id="shape346-256" v:mID="346" v:groupContext="shape" transform="translate(727.487,-111.435) rotate(22.2)">
			<title>工作表.346</title>
			<desc>100Mbps</desc>
			<v:textBlock v:margins="rect(4,4,4,4)" v:tabSpace="42.5197"/>
			<v:textRect cx="41.1024" cy="261.517" width="82.21" height="14.1732"/>
			<rect x="0" y="254.43" width="82.2047" height="14.1732" class="st2"/>
			<text x="18.43" y="265.12" class="st3" v:langID="2052"><v:paragraph v:horizAlign="1"/><v:tabList/>100Mbps</text>		</g>
		<g id="shape347-259" v:mID="347" v:groupContext="shape" transform="translate(722.187,-98.4331) rotate(22.2)">
			<title>工作表.347</title>
			<desc>10ms</desc>
			<v:textBlock v:margins="rect(4,4,4,4)" v:tabSpace="42.5197"/>
			<v:textRect cx="41.1024" cy="261.517" width="82.21" height="14.1732"/>
			<rect x="0" y="254.43" width="82.2047" height="14.1732" class="st2"/>
			<text x="28.1" y="265.12" class="st3" v:langID="2052"><v:paragraph v:horizAlign="1"/><v:tabList/>10ms</text>		</g>
		<g id="shape348-262" v:mID="348" v:groupContext="shape" transform="translate(836.005,-15.5655) rotate(48.6)">
			<title>工作表.348</title>
			<desc>100Mbps</desc>
			<v:textBlock v:margins="rect(4,4,4,4)" v:tabSpace="42.5197"/>
			<v:textRect cx="41.1024" cy="261.517" width="82.21" height="14.1732"/>
			<rect x="0" y="254.43" width="82.2047" height="14.1732" class="st2"/>
			<text x="18.43" y="265.12" class="st3" v:langID="2052"><v:paragraph v:horizAlign="1"/><v:tabList/>100Mbps</text>		</g>
		<g id="shape349-265" v:mID="349" v:groupContext="shape" transform="translate(824.848,-4.36164) rotate(48.6)">
			<title>工作表.349</title>
			<desc>10ms</desc>
			<v:textBlock v:margins="rect(4,4,4,4)" v:tabSpace="42.5197"/>
			<v:textRect cx="41.1024" cy="261.517" width="82.21" height="14.1732"/>
			<rect x="0" y="254.43" width="82.2047" height="14.1732" class="st2"/>
			<text x="28.1" y="265.12" class="st3" v:langID="2052"><v:paragraph v:horizAlign="1"/><v:tabList/>10ms</text>		</g>
	</g>
</svg>
